<?xml version="1.0" encoding="UTF-8" standalone="no"?>
<svg
   viewBox="0 0 600 170"
   version="1.1"
   width="600"
   height="170"
   id="svg1"
   xmlns="http://www.w3.org/2000/svg">
  <path
     style="stroke-width:1"
     d="m 588.14357,47.384403 v 6.068868 h -17.30302 v 7.019659 h 15.88021 v 5.596844 h -15.88021 v 8.031134 h 17.6739 v 6.068871 H 563.60512 V 47.39789 Z m -49.88609,0 c 2.01135,-0.01754 4.00961,0.325018 5.90028,1.011479 1.77769,0.648283 3.38971,1.682279 4.72024,3.02769 1.38971,1.441061 2.45433,3.163308 3.12209,5.050647 0.79382,2.285925 1.17512,4.694724 1.12612,7.114063 0.0214,2.235922 -0.28756,4.462746 -0.91708,6.608323 -0.55341,1.915201 -1.49444,3.696266 -2.76471,5.23271 -1.26441,1.488457 -2.84775,2.67309 -4.63256,3.465999 -2.06487,0.883808 -4.29547,1.313829 -6.5409,1.260976 H 524.11027 V 47.384403 Z m -0.50574,26.716505 c 1.03035,0.0012 2.05366,-0.16974 3.02769,-0.50574 0.99155,-0.343809 1.88797,-0.916775 2.61636,-1.672307 0.82239,-0.875641 1.44779,-1.917204 1.83415,-3.054663 0.48993,-1.479885 0.71811,-3.033852 0.67431,-4.592111 0.0175,-1.506147 -0.14322,-3.009078 -0.47877,-4.477476 -0.27936,-1.239226 -0.81957,-2.404702 -1.58464,-3.418796 -0.76324,-0.968888 -1.76786,-1.720024 -2.91306,-2.17805 -1.42844,-0.543267 -2.94988,-0.799896 -4.47748,-0.755237 h -5.13831 v 20.65438 z M 482.57898,57.08785 c 0.68976,-2.016164 1.76631,-3.878364 3.1693,-5.482212 1.40206,-1.580139 3.1328,-2.834467 5.07087,-3.675036 4.34602,-1.774496 9.21452,-1.774496 13.56055,0 1.92993,0.844613 3.65325,2.098563 5.05065,3.675036 1.40298,1.603848 2.47953,3.466048 3.1693,5.482212 0.75204,2.193427 1.12599,4.498678 1.10588,6.817361 0.0196,2.271856 -0.35218,4.53012 -1.09914,6.675756 -0.68987,1.989808 -1.76703,3.82327 -3.1693,5.394548 -1.40533,1.549165 -3.12797,2.777324 -5.05065,3.600862 -4.35155,1.746151 -9.20899,1.746151 -13.56054,0 -1.93078,-0.81952 -3.66083,-2.048046 -5.07088,-3.600862 -1.40227,-1.571278 -2.47943,-3.40474 -3.1693,-5.394548 -0.74697,-2.145636 -1.11878,-4.4039 -1.09914,-6.675756 -0.0244,-2.317911 0.34493,-4.623141 1.0924,-6.817361 z m 6.58809,10.829558 c 0.2994,1.253202 0.82005,2.442918 1.53745,3.5132 0.70404,1.041724 1.64745,1.899582 2.75122,2.501725 2.61055,1.254623 5.64985,1.254623 8.26041,0 1.1036,-0.602359 2.04697,-1.460174 2.75121,-2.501725 0.71702,-1.07049 1.23764,-2.260135 1.53745,-3.5132 0.32435,-1.324001 0.48514,-2.682776 0.47876,-4.045912 0.005,-1.405295 -0.15621,-2.806247 -0.47876,-4.174033 -0.29451,-1.282088 -0.81513,-2.501436 -1.53745,-3.600862 -0.69973,-1.050677 -1.64377,-1.916044 -2.75121,-2.521952 -2.61056,-1.254623 -5.64986,-1.254623 -8.26041,0 -1.1076,0.605687 -2.05169,1.471099 -2.75122,2.521952 -0.72271,1.099222 -1.24336,2.318641 -1.53745,3.600862 -0.32255,1.367785 -0.48324,2.768737 -0.47877,4.174033 -0.007,1.365392 0.15387,2.726465 0.47877,4.052655 z M 464.40608,56.123574 c -0.43299,-0.685854 -0.97772,-1.294404 -1.61162,-1.800431 -1.33907,-1.072682 -3.00449,-1.655579 -4.72022,-1.652082 -1.43589,-0.04357 -2.85898,0.281445 -4.13358,0.944047 -1.1076,0.605687 -2.05169,1.471098 -2.75122,2.521952 -0.72289,1.092589 -1.24575,2.305 -1.54419,3.580633 -0.32256,1.367785 -0.48324,2.768738 -0.47876,4.174032 -0.006,1.363136 0.15441,2.721912 0.47876,4.045913 0.2994,1.253203 0.82005,2.442919 1.53745,3.5132 0.70404,1.041723 1.64745,1.89958 2.75121,2.501725 1.27449,0.662885 2.69767,0.987914 4.13358,0.944041 1.93397,0.108636 3.81947,-0.629809 5.16528,-2.022953 1.30284,-1.490041 2.0986,-3.355472 2.27246,-5.327118 h 6.9792 c -0.14927,1.920493 -0.63068,3.800514 -1.42282,5.556386 -0.72221,1.592265 -1.75103,3.026653 -3.02769,4.221233 -1.27364,1.175035 -2.7713,2.080971 -4.4033,2.663563 -1.7843,0.628066 -3.66489,0.938458 -5.55638,0.917065 -2.31383,0.03292 -4.60951,-0.412468 -6.74319,-1.308172 -1.93077,-0.819521 -3.66083,-2.048047 -5.07088,-3.600863 -1.40227,-1.571278 -2.47943,-3.40474 -3.1693,-5.394548 -0.74697,-2.145636 -1.11878,-4.403901 -1.09914,-6.675756 -0.0223,-2.318298 0.34938,-4.623538 1.09914,-6.817362 0.68976,-2.016164 1.76631,-3.878363 3.1693,-5.482211 1.40207,-1.580141 3.13281,-2.834468 5.07088,-3.675036 3.77781,-1.561428 7.98179,-1.756962 11.88824,-0.552942 1.56136,0.496898 3.02245,1.266251 4.31564,2.272454 1.28235,1.010951 2.35056,2.267132 3.14232,3.695266 0.85399,1.561497 1.38381,3.279392 1.55768,5.050647 h -7.00617 c -0.11139,-0.813224 -0.39161,-1.594167 -0.82268,-2.292683 z m -41.99656,-8.739171 c 1.35755,-0.01928 2.70608,0.223409 3.97174,0.714779 1.12825,0.442821 2.15737,1.105218 3.02769,1.94878 0.83275,0.812778 1.48923,1.788317 1.92855,2.865854 0.4522,1.115748 0.68129,2.30932 0.67431,3.513201 0.0457,1.745885 -0.37313,3.472584 -1.21377,5.003445 -0.91657,1.493797 -2.31886,2.627055 -3.97173,3.209757 v 0.0944 c 0.81026,0.204967 1.56393,0.58987 2.20502,1.126113 0.58011,0.503097 1.06244,1.108879 1.42281,1.786944 0.37616,0.714609 0.64646,1.480095 0.80244,2.272455 0.16664,0.81912 0.2815,1.647926 0.3439,2.481493 0.0315,0.521472 0.0629,1.132853 0.0944,1.834143 0.0315,0.701294 0.0854,1.420567 0.16184,2.157822 0.0699,0.704783 0.19167,1.403465 0.36413,2.090391 0.14189,0.600806 0.39832,1.168609 0.75524,1.672306 h -7.21521 c -0.42958,-1.194732 -0.67734,-2.447191 -0.73501,-3.715496 -0.0899,-1.438543 -0.22702,-2.8164 -0.41133,-4.133571 -0.10375,-1.388476 -0.64966,-2.707176 -1.55768,-3.762699 -0.7957,-0.795696 -2.09713,-1.193544 -3.9043,-1.193544 h -7.20847 v 12.812058 h -7.20847 V 47.391147 Z m -2.56916,14.835012 c 1.33134,0.101247 2.65351,-0.289885 3.7155,-1.099139 0.82716,-0.73276 1.24074,-1.926305 1.24074,-3.580633 0,-1.654328 -0.41358,-2.809661 -1.24074,-3.465998 -1.06816,-0.795333 -2.38748,-1.178439 -3.7155,-1.07891 h -7.89627 v 9.22468 z M 393.99372,47.384403 v 6.068868 H 376.6907 v 7.019659 h 15.88021 v 5.596844 H 376.6907 v 8.031134 h 17.66041 v 6.068871 H 369.48898 V 47.39789 Z m -45.85367,0 c 1.78612,-0.04645 3.56399,0.258262 5.23271,0.896845 1.32975,0.523134 2.52888,1.330992 3.5132,2.366858 0.89541,0.967202 1.56959,2.11769 1.97575,3.371594 0.82641,2.528055 0.82641,5.253582 0,7.781638 -0.40496,1.254437 -1.07929,2.405169 -1.97575,3.371593 -0.98432,1.035866 -2.18345,1.843724 -3.5132,2.366859 -1.66877,0.638412 -3.4466,0.943118 -5.23271,0.896843 h -7.5726 v 11.753376 h -7.20172 V 47.41812 Z m -1.97575,15.421669 c 0.79925,0.0026 1.59746,-0.05826 2.38708,-0.182066 0.7144,-0.104403 1.40155,-0.347199 2.02296,-0.714777 0.59254,-0.362176 1.07694,-0.876852 1.40258,-1.490245 0.70378,-1.609999 0.70378,-3.440649 0,-5.050647 -0.3259,-0.613199 -0.81024,-1.127811 -1.40258,-1.490244 -0.6222,-0.364592 -1.3092,-0.605044 -2.02296,-0.708035 -0.78964,-0.123609 -1.58783,-0.184488 -2.38708,-0.182066 h -5.59685 v 9.824823 z M 312.02353,47.384403 c 1.78613,-0.04645 3.564,0.258262 5.23272,0.896845 1.32975,0.523134 2.52888,1.330992 3.5132,2.366858 0.89541,0.967202 1.56959,2.11769 1.97575,3.371594 0.82641,2.528055 0.82641,5.253582 0,7.781638 -0.40496,1.254437 -1.07929,2.405169 -1.97575,3.371593 -0.98432,1.035866 -2.18345,1.843724 -3.5132,2.366859 -1.66877,0.638412 -3.4466,0.943118 -5.23272,0.896843 h -7.57934 V 80.190009 H 297.2492 V 47.41812 Z m -1.96227,15.421669 c 0.79926,0.0026 1.59747,-0.05826 2.38709,-0.182066 0.7144,-0.104402 1.40156,-0.347197 2.02296,-0.714777 0.59255,-0.362177 1.07695,-0.876853 1.40259,-1.490245 0.70377,-1.609999 0.70377,-3.440649 0,-5.050647 -0.32591,-0.613198 -0.81025,-1.12781 -1.40259,-1.490244 -0.6222,-0.364593 -1.3092,-0.605045 -2.02296,-0.708035 -0.78928,-0.128125 -1.58747,-0.193514 -2.38709,-0.195553 h -5.59684 v 9.824824 z m -28.24047,14.848497 c -2.477,2.157822 -5.90478,3.236729 -10.28336,3.236729 -4.37857,0 -7.8131,-1.069917 -10.30359,-3.209758 -2.43204,-2.139837 -3.64806,-5.443998 -3.64806,-9.912482 V 47.384403 h 7.20847 v 20.377911 c -0.002,0.877195 0.0753,1.752769 0.22926,2.616357 0.27241,1.722164 1.40718,3.185145 3.00746,3.87733 1.11227,0.458972 2.31102,0.670651 3.5132,0.620373 2.57141,0 4.34711,-0.57317 5.32712,-1.71951 0.98002,-1.146342 1.47002,-2.944525 1.47002,-5.39455 V 47.384403 h 7.20847 v 20.377911 c -0.009,4.437019 -1.25201,7.734437 -3.72899,9.892255 z m 227.6163,23.371891 -3.18952,1.89483 c -0.39496,-0.80351 -0.9807,-1.49806 -1.70603,-2.02295 -0.65937,-0.38471 -1.41535,-0.57195 -2.17805,-0.53945 -0.98226,-0.0277 -1.94103,0.30311 -2.69727,0.93055 -0.69654,0.55787 -1.09504,1.40718 -1.07892,2.29943 0,1.27222 0.94629,2.29718 2.83888,3.07489 l 2.60287,1.06542 c 1.79117,0.63104 3.39073,1.71058 4.64606,3.13558 1.00169,1.29636 1.52138,2.90071 1.47002,4.53817 0.068,2.23118 -0.80286,4.38861 -2.40058,5.94749 -1.59359,1.57076 -3.75786,2.42527 -5.99469,2.36686 -2.06066,0.0722 -4.06992,-0.65231 -5.61033,-2.02296 -1.52996,-1.51458 -2.48382,-3.5153 -2.69728,-5.65753 l 3.98523,-0.87662 c 0.0471,1.12049 0.37141,2.21178 0.94404,3.17605 1.64353,2.05843 4.69626,2.27025 6.60832,0.45853 0.81311,-0.83183 1.2515,-1.95948 1.21378,-3.1221 0.006,-0.47349 -0.0647,-0.94485 -0.20904,-1.39584 -0.14817,-0.42837 -0.37707,-0.82436 -0.67432,-1.16656 -0.33583,-0.38749 -0.72658,-0.72372 -1.15982,-0.998 -0.53788,-0.34232 -1.10414,-0.63785 -1.69255,-0.88336 l -2.51521,-1.04519 c -3.5694,-1.51047 -5.35409,-3.71774 -5.35409,-6.62181 -0.0302,-1.89319 0.7947,-3.699102 2.24549,-4.915776 1.53919,-1.359172 3.53755,-2.082346 5.5901,-2.022959 2.98498,0.009 5.32262,1.476783 7.01291,4.403305 z M 463.752,123.22503 V 95.368928 l 19.02253,19.899132 V 97.142384 h 3.95825 v 27.647066 l -19.04276,-19.82497 v 18.26055 z m -33.94521,-13.1627 c -0.0319,-3.57435 1.43561,-6.99848 4.04592,-9.44046 2.54721,-2.580007 6.03785,-4.007436 9.66298,-3.951506 7.46042,0.05146 13.49561,6.086636 13.54707,13.547056 0.0554,3.60841 -1.41365,7.07283 -4.04592,9.54161 -5.18109,5.07477 -13.40851,5.26638 -18.82024,0.4383 -2.91908,-2.54179 -4.5326,-6.26701 -4.38981,-10.135 z m 3.97174,0.0472 c -0.0839,2.6762 0.97252,5.26215 2.90631,7.11406 3.77002,3.73995 9.85706,3.71882 13.60101,-0.0472 3.74198,-3.91087 3.74198,-10.07449 0,-13.98537 -3.79555,-3.787014 -9.94032,-3.787014 -13.73587,0 -1.83529,1.8301 -2.83745,4.33426 -2.77145,6.92525 z M 423.11081,97.142384 v 26.082646 h -3.93803 V 97.142384 Z m -15.15869,3.708746 v 22.38064 h -3.93802 v -22.38064 h -5.9947 v -3.708746 h 15.88696 v 3.708746 z m -30.54663,-3.708746 v 15.711626 c 0,2.24772 0.36637,3.88631 1.09913,4.91578 2.35154,2.9942 6.88662,2.9942 9.23817,0 0.73276,-1.00249 1.09914,-2.64108 1.09914,-4.91578 V 97.142384 h 3.93802 v 16.790536 c 0.0883,2.51631 -0.83731,4.96273 -2.56915,6.79038 -3.89162,3.9554 -10.26909,3.9554 -14.1607,0 -1.74414,-1.82218 -2.68216,-4.26925 -2.60287,-6.79038 V 97.142384 Z m -16.27132,0 v 22.380636 h 7.667 v 3.70201 H 357.19615 V 97.142384 Z m -37.87648,12.919946 c -0.0319,-3.57435 1.43559,-6.99848 4.04591,-9.44046 2.54721,-2.580007 6.03785,-4.007444 9.66299,-3.951506 7.46305,0.04777 13.50231,6.084026 13.5538,13.547056 0.0478,3.59906 -1.42064,7.05222 -4.04591,9.51463 -5.1811,5.07477 -13.40851,5.26638 -18.82024,0.43831 -2.9141,-2.53448 -4.52943,-6.24825 -4.39655,-10.10803 z m 3.97173,0.0472 c -0.0839,2.6762 0.97253,5.26215 2.90632,7.11406 3.77001,3.73995 9.85705,3.71882 13.60101,-0.0472 3.74198,-3.91087 3.74198,-10.07449 0,-13.98537 -3.79556,-3.787014 -9.94033,-3.787014 -13.73588,0 -1.83529,1.8301 -2.83745,4.33426 -2.77145,6.92525 z m -9.82482,-9.08309 -3.18954,1.89483 c -0.39494,-0.80351 -0.98069,-1.49806 -1.70602,-2.02295 -0.65936,-0.38471 -1.41535,-0.57195 -2.17805,-0.53945 -0.98227,-0.0276 -1.94102,0.30311 -2.69728,0.93055 -0.69653,0.55787 -1.09503,1.40718 -1.0789,2.29943 0,1.27222 0.94629,2.29718 2.83888,3.07489 l 2.60287,1.06542 c 1.79117,0.63104 3.39073,1.71058 4.64606,3.13558 1.00169,1.29636 1.52138,2.90071 1.47002,4.53817 0.068,2.23118 -0.80286,4.38861 -2.40058,5.94749 -1.5936,1.57076 -3.75786,2.42527 -5.9947,2.36686 -2.06065,0.0722 -4.06991,-0.65231 -5.61033,-2.02296 -1.52995,-1.51458 -2.48381,-3.5153 -2.69728,-5.65753 l 3.98523,-0.87662 c 0.0471,1.12049 0.37142,2.21178 0.94404,3.17605 1.64353,2.05843 4.69626,2.27025 6.60833,0.45853 0.79,-0.83739 1.20825,-1.95839 1.15982,-3.10861 0.006,-0.47349 -0.0647,-0.94485 -0.20903,-1.39584 -0.14817,-0.42837 -0.37707,-0.82437 -0.67433,-1.16657 -0.33582,-0.38748 -0.72657,-0.72371 -1.15982,-0.99799 -0.53787,-0.34232 -1.10413,-0.63785 -1.69254,-0.88336 l -2.51521,-1.04519 c -3.56939,-1.51047 -5.35409,-3.71774 -5.35409,-6.62181 -0.0302,-1.89319 0.7947,-3.699103 2.24548,-4.915776 1.5392,-1.359173 3.53756,-2.082346 5.59011,-2.02296 3.02095,0 5.37657,1.463278 7.06686,4.389816 z m -38.362,-0.17533 v 22.38066 h -3.93802 v -22.38064 h -5.9947 v -3.708746 h 15.91393 v 3.708746 z m -15.20588,-3.708746 v 26.082646 h -3.93803 V 97.142384 Z M 133.71156,14.828627 c -10.95197,4.068366 -21.19155,8.093817 -31.59421,11.6472 -3.862369,1.32179 -5.149827,3.235811 -5.089745,7.287011 0.0515,3.707878 0.09155,7.4272 0.120162,11.157967 1.386656,2.003699 2.468443,4.201992 3.210063,6.523119 3.88528,11.395693 3.9666,23.744636 0.23174,35.19051 -1.12251,3.777662 -3.135914,7.230469 -5.870806,10.067921 0,0.12874 0,0.26607 -0.0515,0.39482 -0.214576,2.24876 0.102997,5.330065 1.484868,6.814945 6.085388,6.54887 13.861628,8.58305 22.238688,5.43307 9.0122,-3.34739 14.89159,-10.402665 15.12333,-19.878349 0.59224,-24.573276 0.19741,-49.172301 0.19741,-74.638214 z m 26.47872,0.214576 18.23898,1.871105 c 8.23115,0.858305 16.47946,1.63078 24.70202,2.574916 8.05949,0.858305 14.85727,3.338807 20.29892,7.527336 6.76776,4.989602 11.40987,12.34344 13.00332,20.599323 1.04492,5.199771 1.66779,10.475502 1.86252,15.775648 0.24891,6.634699 -1.82819,13.054821 -5.02966,19.337615 -2.88786,5.432724 -7.0383,10.092392 -12.10211,13.586969 -7.51875,5.433065 -16.80561,8.737555 -27.6975,9.964925 -0.38624,0.0429 -0.78964,0 -1.1673,0.103 -0.52356,0.0944 -1.03855,0.22316 -1.71661,0.38624 v 1.84535 34.41804 c 0,1.28746 -18.66813,11.15797 -26.70187,12.01627 -3.33022,0.35191 -3.55338,0.26608 -3.55338,-1.96552 V 83.072468 c 0,-5.527485 -0.0687,-11.05497 -0.0772,-16.582455 0,-3.96537 0.0515,-7.93074 0.0515,-11.89611 0,-12.622807 -0.02,-25.245615 -0.0601,-37.868422 -0.0601,-0.523566 -0.0515,-1.055715 -0.0515,-1.682278 z m 30.61574,66.870553 c 1.99127,-0.163078 3.56197,-0.205993 5.07259,-0.42057 8.18823,-1.158712 13.00332,-4.797925 15.44949,-9.947756 3.63063,-7.544502 3.43322,-15.209167 -0.22316,-22.64209 -3.15856,-6.428705 -10.21383,-9.630183 -20.33325,-9.346942 z M 48.37887,14.794295 c 0,24.427364 -0.214576,47.481439 0.06008,70.544098 0.291824,24.890857 9.861926,45.378597 30.761656,59.523467 6.171214,4.17136 13.569804,6.51453 19.423445,9.24395 -9.904841,0 -21.122889,1.18446 -32.014781,-0.22316 -30.692991,-3.97396 -53.978809,-31.69721 -54.85428,-64.664718 -0.497817,-18.771133 -0.188827,-37.568015 0,-56.347731 0,-1.82819 1.227376,-4.729262 2.617831,-5.28716 10.840393,-4.394522 21.878197,-8.308394 34.006049,-12.788746 z" />
</svg>
