<?xml version="1.0" encoding="UTF-8" standalone="no"?>
<svg
   height="24"
   width="48"
   viewBox="0 0 48 24"
   version="1.1"
   xmlns="http://www.w3.org/2000/svg"
   xmlns:svg="http://www.w3.org/2000/svg">
  <path
     d="M 2,1.999999 V 6.999997 H 4 V 3.999996 H 7 V 1.999999 Z m 39.000002,0 v 1.999997 h 3.000001 V 6.999997 H 46 V 1.999999 Z M 10.490235,7.146483 C 10.10829,7.437276 9.682075,7.704206 9.208985,7.947259 8.735895,8.190325 8.23112,8.390629 7.697265,8.546875 v 1.730463 c 0.182293,-0.02165 0.368057,-0.05581 0.554688,-0.103516 0.186632,-0.0521 0.365452,-0.1122 0.539061,-0.18164 C 8.964628,9.918422 9.127387,9.836804 9.279297,9.749997 9.435547,9.658867 9.570748,9.564664 9.683593,9.464843 v 7.226559 h 2.050782 V 7.146483 Z m 7.460938,0.05268 c -1.141493,0 -2.01389,0.424704 -2.617188,1.275398 -0.598957,0.846351 -0.898438,2.078339 -0.898438,3.697261 0,3.120654 1.111766,4.681648 3.333984,4.681648 1.106769,0 1.954646,-0.421672 2.544921,-1.26368 0.594617,-0.84201 0.892579,-2.052949 0.892579,-3.632814 0,-3.172737 -1.085724,-4.757813 -3.255858,-4.757813 z m 7.669926,0 c -1.141497,0 -2.013894,0.424704 -2.617194,1.275398 -0.598955,0.846351 -0.898437,2.078339 -0.898437,3.697261 0,3.120654 1.111767,4.681648 3.33398,4.681648 1.106774,0 1.954654,-0.421672 2.544926,-1.26368 0.594613,-0.84201 0.892574,-2.052949 0.892574,-3.632814 0,-3.172737 -1.085723,-4.757813 -3.255849,-4.757813 z m 6.666012,0.02536 c -0.720489,0 -1.296449,0.227873 -1.730474,0.683598 -0.429683,0.455724 -0.644531,1.072696 -0.644531,1.849609 0,0.711805 0.201821,1.278212 0.605475,1.699223 0.407984,0.420999 0.94336,0.630856 1.607424,0.630856 0.716135,0 1.289061,-0.226346 1.718744,-0.677739 0.429684,-0.451383 0.644531,-1.059892 0.644531,-1.82812 0,-0.74653 -0.195314,-1.325963 -0.585929,-1.738278 -0.386286,-0.412326 -0.925135,-0.619149 -1.61524,-0.619149 z m 5.05274,0.130865 -6.068365,9.335932 h 1.589836 l 6.080082,-9.335932 z m -5.091808,1.015624 c 0.585941,0 0.878912,0.423176 0.878912,1.269527 0,0.868063 -0.307514,1.30078 -0.923827,1.30078 -0.603297,0 -0.904304,-0.416668 -0.904304,-1.249995 0,-0.881076 0.315538,-1.320312 0.949219,-1.320312 z M 17.861327,8.767498 c 0.833332,0 1.250001,1.085723 1.250001,3.255861 0,2.170126 -0.426651,3.253904 -1.277343,3.253904 -0.872395,0 -1.308595,-1.051218 -1.308595,-3.156259 0,-2.235234 0.446182,-3.353506 1.335937,-3.353506 z m 7.667974,0 c 0.833325,0 1.249994,1.085723 1.249994,3.255861 0,2.170126 -0.424693,3.253904 -1.275387,3.253904 -0.872396,0 -1.308595,-1.051218 -1.308595,-3.156259 0,-2.235234 0.444227,-3.353506 1.333988,-3.353506 z m 12.572259,3.189445 c -0.720477,0 -1.298394,0.227873 -1.732419,0.683597 -0.429683,0.455724 -0.64453,1.072697 -0.64453,1.849611 0,0.711803 0.201821,1.278211 0.605463,1.699222 0.407995,0.420998 0.945317,0.630856 1.609381,0.630856 0.716146,0 1.289061,-0.227863 1.718744,-0.683599 0.429695,-0.455724 0.64453,-1.067706 0.64453,-1.835934 0,-0.74653 -0.193785,-1.322478 -0.58007,-1.730462 -0.386285,-0.407984 -0.926652,-0.613291 -1.621099,-0.613291 z m -0.05859,1.14649 c 0.269094,0 0.485458,0.110694 0.650389,0.332026 0.164931,0.221355 0.248044,0.533859 0.248044,0.937501 0,0.868061 -0.307513,1.302735 -0.923826,1.302735 -0.611982,0 -0.917967,-0.416668 -0.917967,-1.249994 0,-0.881077 0.314021,-1.322269 0.94336,-1.322268 z M 2,17.000002 v 4.999999 H 7 V 19.999993 H 4 v -2.999991 z m 42.000003,0 v 2.999991 h -3.000001 v 2.000008 H 46 v -4.999999 z"
   />
</svg>
