<?xml version="1.0" encoding="UTF-8" standalone="no"?>
<svg version="1.1" width="32" height="32" viewBox="0 0 32 32" xmlns="http://www.w3.org/2000/svg">

	<g id="info">
        <path d="m 21.909073,25.454554 v 2.363642 C 21.909073,28.464504 21.373574,29 20.727267,29 h -9.454538 c -0.646304,0 -1.181802,-0.535496 -1.181802,-1.181804 v -2.363642 c 0,-0.646308 0.535498,-1.181804 1.181802,-1.181804 h 1.181802 v -7.090928 h -1.181802 c -0.646304,0 -1.181802,-0.535496 -1.181802,-1.181804 v -2.363644 c 0,-0.646308 0.535498,-1.181804 1.181802,-1.181804 h 7.090927 c 0.646308,0 1.181806,0.535496 1.181806,1.181804 V 24.27275 h 1.181805 c 0.646307,0 1.181806,0.535496 1.181806,1.181804 z M 19.54543,4.181804 v 3.5454464 c 0,0.646308 -0.535498,1.181804 -1.181805,1.181804 h -4.727282 c -0.646314,0 -1.181812,-0.535496 -1.181812,-1.181804 V 4.181804 C 12.454531,3.535496 12.990029,3 13.636343,3 h 4.727282 c 0.646307,0 1.181805,0.535496 1.181805,1.181804 z" />
	</g>

	<g id="question">
        <path d="m 19.19537,23.875 v 5.25001 c 0,0.48123 -0.39376,0.87499 -0.875,0.87499 h -5.25 c -0.48123,0 -0.87499,-0.39376 -0.87499,-0.87499 V 23.875 c 0,-0.48123 0.39376,-0.87499 0.87499,-0.87499 h 5.25 c 0.48124,0 0.875,0.39376 0.875,0.87499 z m 6.912478,-13.12498 c 0,4.15623 -2.821862,5.75313 -4.899997,6.91248 -1.290611,0.74376 -2.099991,2.25311 -2.099991,2.88751 v 0 c 0,0.48123 -0.37187,1.05002 -0.875,1.05002 h -5.25 c -0.48123,0 -0.78748,-0.74377 -0.78748,-1.225 v -0.98437 c 0,-2.64687 2.62498,-4.92185 4.54999,-5.79688 1.68437,-0.76563 2.38438,-1.4875 2.38438,-2.88752 0,-1.225 -1.59686,-2.31873 -3.36874,-2.31873 -0.98437,0 -1.88126,0.30625 -2.36249,0.63436 -0.52499,0.37186 -1.05002,0.89689 -2.34063,2.51561 -0.17498,0.21874 -0.43752,0.35001 -0.67811,0.35001 -0.19688,0 -0.37187,-0.0656 -0.54689,-0.17499 L 6.2454,8.97813 C 5.87354,8.69374 5.78603,8.21251 6.02666,7.81875 8.38915,3.90311 11.71414,2 16.17666,2 c 4.68126,0 9.931265,3.74061 9.931265,8.74998 z" />
	</g>

	<g id="success">
        <path d="m 7.3846265,24.615357 c 0,-0.588943 -0.4879683,-1.076911 -1.0769107,-1.076911 -0.5889423,0 -1.0769105,0.487968 -1.0769105,1.076911 0,0.588942 0.4879682,1.07691 1.0769105,1.07691 0.5889424,0 1.0769107,-0.487968 1.0769107,-1.07691 z M 26.769224,14.923043 c 0,-1.144227 -1.026439,-2.15385 -2.153851,-2.15385 h -5.923082 c 0,-1.968747 1.615381,-3.3990519 1.615381,-5.3846119 0,-1.9687472 -0.387024,-3.2307622 -2.692321,-3.2307622 -1.076911,1.093755 -0.521626,3.6682572 -2.153851,5.3846122 -0.471154,0.4879679 -0.874992,1.0096239 -1.295673,1.5312499 -0.757203,0.975966 -2.759607,3.853362 -4.088938,3.853362 H 9.5384184 v 10.769224 h 0.5384706 c 0.942307,0 2.490372,0.605757 3.399051,0.925494 1.850957,0.639414 3.769231,1.228357 5.754821,1.228357 h 2.036062 c 1.90143,0 3.230761,-0.757203 3.230761,-2.810109 0,-0.319708 -0.03366,-0.639415 -0.08413,-0.942308 0.706732,-0.387024 1.093754,-1.346146 1.093754,-2.120193 0,-0.403838 -0.100974,-0.807705 -0.302893,-1.16107 0.572128,-0.53847 0.891837,-1.211543 0.891837,-2.002404 0,-0.53847 -0.235577,-1.329332 -0.588944,-1.73317 0.790863,-0.01681 1.262016,-1.53125 1.262016,-2.15385 z m 2.15385,-0.01681 c 0,0.975966 -0.286049,1.935088 -0.824519,2.742793 0.100974,0.37018 0.151446,0.774047 0.151446,1.16107 0,0.841334 -0.218762,1.682697 -0.639414,2.423086 0.03366,0.235577 0.05047,0.487968 0.05047,0.723545 0,1.076911 -0.353365,2.153851 -1.009624,2.995185 0.03366,3.180289 -2.137007,5.04809 -5.250009,5.04809 H 19.23076 c -2.389428,0 -4.610565,-0.706731 -6.831732,-1.480778 -0.487967,-0.168265 -1.850956,-0.673077 -2.32211,-0.673077 H 5.2307759 c -1.1946991,0 -2.1538507,-0.959122 -2.1538507,-2.15385 V 14.923073 c 0,-1.194699 0.959122,-2.153851 2.1538507,-2.153851 h 4.610565 C 10.4976,12.331726 11.641826,10.81729 12.146638,10.161061 c 0.572128,-0.7403889 1.16107,-1.4639339 1.800485,-2.1538509 1.009624,-1.0769102 0.471154,-3.7355732 2.153851,-5.3846122 0.403838,-0.387023 0.942308,-0.6226 1.514436,-0.6226 1.750013,0 3.43268,0.6226 4.257199,2.254795 0.521627,1.026439 0.588943,2.002405 0.588943,3.1298172 0,1.177885 -0.302893,2.187509 -0.807705,3.2307609 h 2.961526 c 2.322111,0 4.307702,1.968746 4.307702,4.290858 z" />
	</g>

	<g id="failure">
        <path d="M 16,2 C 8.268008,2 2,8.268008 2,16 2,23.731992 8.268008,30 16,30 23.731992,30 30,23.731992 30,16 30,8.268008 23.731992,2 16,2 Z m 5.25,7 C 22.216492,9 23,9.783508 23,10.75 23,11.716492 22.216492,12.5 21.25,12.5 20.283508,12.5 19.5,11.716492 19.5,10.75 19.5,9.783508 20.283508,9 21.25,9 Z m -10.5,0 c 0.966492,0 1.75,0.783508 1.75,1.75 0,0.966492 -0.783508,1.75 -1.75,1.75 C 9.783508,12.5 9,11.716492 9,10.75 9,9.783508 9.783508,9 10.75,9 Z M 21.25268,23.348359 C 20.181516,21.566969 18.229992,20.375 16,20.375 c -2.230047,0 -4.181516,1.191969 -5.25268,2.973359 L 8.496164,21.997688 C 10.02632,19.452805 12.81418,17.75 16,17.75 c 3.185766,0 5.973625,1.702805 7.503836,4.247688 z" />
	</g>
	
	<g id="exclamation">
        <path d="m 19.818156,24.27274 v 4.45455 c 0,0.69602 -0.57669,1.27271 -1.272713,1.27271 h -5.090921 c -0.696024,0 -1.272713,-0.57669 -1.272713,-1.27271 v -4.45455 c 0,-0.69602 0.576689,-1.27271 1.272713,-1.27271 h 5.090921 c 0.696023,0 1.272713,0.57669 1.272713,1.27271 z M 20.414753,3.27271 19.857934,18.54544 c -0.01987,0.69603 -0.616468,1.27272 -1.312491,1.27272 h -5.090921 c -0.696024,0 -1.29262,-0.57669 -1.312491,-1.27272 L 11.585212,3.27271 C 11.565342,2.57669 12.122159,2 12.818182,2 h 6.363635 c 0.696023,0 1.252842,0.57669 1.23297,1.27271 z" />
	</g>

	<g id="warning">
        <path d="m 18.000242,24.485381 v -2.969092 c 0,-0.281292 -0.218776,-0.515683 -0.500067,-0.515683 h -3.00035 c -0.281291,0 -0.500068,0.234391 -0.500068,0.515683 v 2.969092 c 0,0.281291 0.218777,0.515682 0.500068,0.515682 h 3.00035 c 0.281291,0 0.500067,-0.234391 0.500067,-0.515682 z m -0.03126,-5.844439 0.281291,-7.172738 c 0,-0.09377 -0.04687,-0.218776 -0.156261,-0.296907 -0.09377,-0.07813 -0.234391,-0.171903 -0.375037,-0.171903 h -3.437902 c -0.140646,0 -0.281291,0.09377 -0.375037,0.171903 -0.109388,0.07813 -0.156261,0.234392 -0.156261,0.328165 l 0.265649,7.14148 c 0,0.203161 0.234391,0.359422 0.531325,0.359422 h 2.890962 c 0.281292,0 0.515683,-0.156261 0.531325,-0.359422 z M 17.750208,4.04546 29.751635,26.048071 c 0.34378,0.609456 0.328165,1.359529 -0.03126,1.968985 -0.359422,0.609455 -1.01575,0.984492 -1.718951,0.984492 H 3.998573 c -0.7032011,0 -1.3595293,-0.375037 -1.7189511,-0.984492 C 1.9202002,27.4076 1.904585,26.657527 2.2483639,26.048071 L 14.249791,4.04546 C 14.59357,3.404747 15.265541,2.998452 16,2.998452 c 0.734458,0 1.406429,0.406295 1.750208,1.047008 z" />
	</g>

	<g id="danger">
        <path d="M 29.17647,5.2941176 C 29.17647,4.12275 28.931367,3.0088235 28.490573,2 27.626485,3.9773971 26.008455,5.5497206 23.999919,6.3538456 21.781691,4.6563456 19.008919,3.6470588 16,3.6470588 c -3.00892,0 -5.781691,1.0092868 -7.9999188,2.7067868 C 5.9914929,5.5497206 4.373515,3.9773971 3.5094268,2 3.0686326,3.0088235 2.8235297,4.12275 2.8235297,5.2941176 c 0,1.8934486 0.6395221,3.6371177 1.7136618,5.0281104 -1.0904044,1.91836 -1.7136618,4.136948 -1.7136618,6.501301 C 2.8235297,24.100699 8.7228312,30 16,30 c 7.277169,0 13.17647,-5.899301 13.17647,-13.176471 0,-2.364353 -0.623257,-4.582941 -1.713662,-6.501301 1.07414,-1.3909926 1.713662,-3.1346618 1.713662,-5.0281104 z M 17.649478,13.43975 c 0.05229,-1.221243 1.163492,-2.03175 2.099794,-2.499875 0.894095,-0.447073 1.778411,-0.670662 1.815573,-0.679978 0.441258,-0.110353 0.888383,0.157963 0.998684,0.599221 0.110301,0.441257 -0.157963,0.888331 -0.599221,0.998684 -0.453558,0.114522 -0.991375,0.311911 -1.465264,0.549448 0.274029,0.294154 0.441978,0.688471 0.441978,1.122213 0,0.90964 -0.737419,1.647059 -1.647059,1.647059 -0.90964,0 -1.647059,-0.737419 -1.647059,-1.647059 5.1e-5,-0.03011 9.78e-4,-0.06001 0.0026,-0.08971 z M 9.4364194,10.859118 c 0.1103529,-0.441258 0.5574265,-0.709574 0.9986836,-0.599221 0.03721,0.0093 0.921478,0.232956 1.815574,0.679978 0.936249,0.468177 2.047499,1.278632 2.099793,2.499875 0.0016,0.0297 0.0025,0.05955 0.0025,0.08966 0,0.909639 -0.737419,1.647059 -1.647058,1.647059 -0.90964,0 -1.647059,-0.73742 -1.647059,-1.647059 0,-0.433743 0.167949,-0.828059 0.441978,-1.122213 C 11.026963,12.169662 10.489199,11.972272 10.035588,11.85775 9.5944341,11.747449 9.3261694,11.300324 9.4364194,10.859118 Z M 16,25.058824 c -2.99842,0 -5.622235,-1.60264 -7.0624335,-3.997824 l 2.1187345,-1.271221 c 1.008155,1.676603 2.844831,2.798456 4.943699,2.798456 2.098816,0 3.935544,-1.121853 4.943698,-2.798456 L 23.062433,21.061 C 21.622235,23.456184 18.998419,25.058824 16,25.058824 Z" />
	</g>

	<g id="error">
        <path d="m 30,18.084797 v -1.75 H 24.714727 C 24.554438,14.347289 23.845578,12.533305 22.755,11.077961 h 4.428156 l 1.915703,-7.662812 -1.697773,-0.42443 -1.584297,6.337187 h -4.776406 c -0.02439,-0.01898 -0.04911,-0.03757 -0.07377,-0.05622 C 21.15009,8.738428 21.249949,8.166397 21.249949,7.571068 21.25,4.679195 18.899531,2.334797 16,2.334797 c -2.899531,0 -5.25,2.344398 -5.25,5.236328 0,0.595328 0.0998,1.167359 0.283336,1.700617 -0.02461,0.0187 -0.04933,0.03724 -0.07377,0.05622 H 6.1831562 L 4.5988593,2.990774 2.9010858,3.415203 4.816789,11.078016 h 4.4281563 c -1.0905781,1.455289 -1.7993829,3.269273 -1.959672,5.256781 H 1.9999999 v 1.75 h 5.287461 c 0.103961,1.248625 0.4240469,2.428453 0.9197891,3.493164 H 4.8168438 l -1.9157032,7.662758 1.6977735,0.424484 1.5842967,-6.337242 H 9.2553906 C 10.86025,25.461649 13.28575,26.821125 16,26.821125 c 2.71425,0 5.139695,-1.359476 6.744664,-3.493164 h 3.07218 l 1.584297,6.337242 1.697773,-0.424484 -1.915703,-7.662758 h -3.390406 c 0.495742,-1.064711 0.815828,-2.244539 0.919734,-3.493164 z" />
	</g>

	<g id="">
        <path d="" />
	</g>

</svg>
