<?xml version="1.0" encoding="UTF-8" standalone="no"?>
<svg version="1.1" width="32" height="32" viewBox="0 0 32 32" xmlns="http://www.w3.org/2000/svg">

	<g id="go_back">
		<path d="m 16.672783,26.872085 0.174213,-0.201809 c 0.52288,-0.704531 0.464809,-1.704458 -0.174213,-2.343479 l -6.525364,-6.525318 16.052858,-7.2e-4 0.244282,-0.01656 C 27.322824,17.665177 28,16.912173 28,16.001033 L 27.98344,15.756751 C 27.864418,14.878246 27.111414,14.20131 26.200274,14.20131 l -16.057657,7.2e-4 6.531603,-6.5287469 0.174453,-0.201809 C 17.371555,6.7670171 17.313484,5.7671631 16.674703,5.1280935 15.972091,4.4251457 14.832506,4.4249297 14.129654,5.1276136 L 4.5273724,14.726112 4.3530473,14.927921 c -0.5229436,0.704532 -0.4649525,1.704698 0.1740692,2.34372 l 9.6006175,9.600444 0.201809,0.174213 c 0.704532,0.52288 1.704218,0.464809 2.34324,-0.174213 z" />
	</g>

	<g id="nav-home">
		<path d="m 32,17.5 -6,-6 v -9 h -4.000001 v 5 l -6,-6 L 0,17.5 v 1 h 3.999999 v 10 h 10 v -6 h 4 v 6 h 10 v -10 H 32 Z" />
	</g>

	<g id="info">
		<path d="m 21.909073,25.454554 v 2.363642 C 21.909073,28.464504 21.373574,29 20.727267,29 h -9.454538 c -0.646304,0 -1.181802,-0.535496 -1.181802,-1.181804 v -2.363642 c 0,-0.646308 0.535498,-1.181804 1.181802,-1.181804 h 1.181802 v -7.090928 h -1.181802 c -0.646304,0 -1.181802,-0.535496 -1.181802,-1.181804 v -2.363644 c 0,-0.646308 0.535498,-1.181804 1.181802,-1.181804 h 7.090927 c 0.646308,0 1.181806,0.535496 1.181806,1.181804 V 24.27275 h 1.181805 c 0.646307,0 1.181806,0.535496 1.181806,1.181804 z M 19.54543,4.181804 v 3.5454464 c 0,0.646308 -0.535498,1.181804 -1.181805,1.181804 h -4.727282 c -0.646314,0 -1.181812,-0.535496 -1.181812,-1.181804 V 4.181804 C 12.454531,3.535496 12.990029,3 13.636343,3 h 4.727282 c 0.646307,0 1.181805,0.535496 1.181805,1.181804 z" />
	</g>

	<g id="navigation">
		<path d="m 4.3,22.49999 h 23.4 c 0.71799,0 1.3,0.58201 1.3,1.3 0,0.66664 -0.5018,1.21615 -1.14842,1.29129 L 27.7,25.10001 H 4.3 c -0.717964,0 -1.3,-0.58201 -1.3,-1.3 0,-0.66664 0.501852,-1.21615 1.148394,-1.29129 L 4.3,22.49999 h 23.4 z m -1.56e-4,-7.8 23.400026,-0.0029 c 0.71799,0 1.30013,0.58188 1.30013,1.29987 0,0.66664 -0.50167,1.21628 -1.14829,1.29142 l -0.15158,0.0087 -23.399974,0.0029 C 3.582192,17.300139 3,16.718129 3,16.000139 c 0,-0.66664 0.501722,-1.21615 1.148238,-1.29142 l 0.151606,-0.0087 23.400026,-0.0029 z M 4.3,6.89999 h 23.4 c 0.71799,0 1.3,0.582036 1.3,1.3 0,0.666692 -0.5018,1.216163 -1.14842,1.291251 L 27.7,9.499941 H 4.3 c -0.717964,0 -1.3,-0.582036 -1.3,-1.3 C 3,7.533249 3.501852,6.983778 4.148394,6.90869 L 4.3,6.89999 h 23.4 z" />
	</g>

	<g id="brick_down">
		<path d="M 22.264118,15.613394 22.147833,15.51301 c -0.405966,-0.301294 -0.982144,-0.267833 -1.350223,0.100384 l -3.760158,3.760019 -4.14e-4,-9.249914 -0.0094,-0.1407202 C 16.958914,9.4765937 16.525017,9.0864609 16,9.0864609 l -0.140761,0.00949 c -0.506073,0.068661 -0.896276,0.5025489 -0.896276,1.0275671 l 4.15e-4,9.252678 -3.761941,-3.763615 -0.116301,-0.100384 c -0.405924,-0.301294 -0.982046,-0.26797 -1.350291,0.100107 -0.405067,0.404859 -0.405192,1.061511 -2.78e-4,1.466647 l 5.530796,5.532939 0.116425,0.100384 c 0.405965,0.301433 0.982143,0.267971 1.35036,-0.100245 l 5.53197,-5.531973 0.100384,-0.116423 c 0.301294,-0.405986 0.267833,-0.982026 -0.100384,-1.350242 z M 4.4938272,3.5555552 C 2.0119488,3.5555552 0,5.567504 0,8.0493825 V 23.950617 c 0,2.481837 2.0119488,4.493828 4.4938272,4.493828 H 27.506173 C 29.98801,28.444445 32,26.432454 32,23.950617 V 8.0493825 C 32,5.567504 29.98801,3.5555552 27.506173,3.5555552 Z M 2.0740736,8.0493825 c 0,-1.3363948 1.0833589,-2.4197537 2.4197536,-2.4197537 H 27.506173 c 1.336394,0 2.419753,1.0833589 2.419753,2.4197537 V 23.950617 c 0,1.336396 -1.083357,2.419754 -2.419753,2.419754 H 4.4938272 c -1.3363947,0 -2.4197536,-1.083358 -2.4197536,-2.419754 z" />
	</g>

	<g id="brick_up">
		<path d="m 22.264117,16.386606 -0.116288,0.100384 c -0.405962,0.301294 -0.982144,0.267832 -1.350218,-0.100384 l -3.76016,-3.76002 -4.16e-4,9.249914 -0.0096,0.14072 c -0.06869,0.506186 -0.502635,0.896319 -1.027648,0.896319 l -0.140758,-0.0095 c -0.50608,-0.06866 -0.896277,-0.502549 -0.896277,-1.027567 l 4.16e-4,-9.252679 -3.761941,3.763615 -0.11631,0.100384 C 10.678997,16.789086 10.10288,16.755762 9.734635,16.387686 9.329568,15.982827 9.32944,15.326174 9.734357,14.921038 l 5.530795,-5.532939 0.116427,-0.100384 c 0.405962,-0.3014321 0.982133,-0.2679707 1.350357,0.100246 l 5.531968,5.531972 0.100373,0.116424 c 0.301291,0.405986 0.26783,0.982025 -0.100373,1.350242 z M 4.493824,28.444445 C 2.0119467,28.444445 0,26.432496 0,23.950617 V 8.0493822 C 0,5.5675465 2.0119467,3.555555 4.493824,3.555555 H 27.506176 C 29.98801,3.555555 32,5.5675465 32,8.0493822 V 23.950617 c 0,2.481879 -2.01199,4.493828 -4.493824,4.493828 z M 2.0740693,23.950617 c 0,1.336395 1.08336,2.419754 2.4197547,2.419754 h 23.012352 c 1.336395,0 2.41975,-1.083359 2.41975,-2.419754 V 8.0493822 c 0,-1.3363957 -1.083355,-2.4197536 -2.41975,-2.4197536 H 4.493824 c -1.3363947,0 -2.4197547,1.0833579 -2.4197547,2.4197536 z" />
	</g>

	<g id="brick_left">
		<path d="M 4.494141,3.5546875 C 2.012306,3.5546875 0,5.5669945 0,8.0488286 V 23.951172 c 0,2.481875 2.012306,4.494141 4.494141,4.49414 H 27.505859 C 29.987735,28.445312 32,26.433047 32,23.951172 V 8.0488286 C 32,5.5669945 29.987735,3.5546875 27.505859,3.5546875 Z m 0,2.074219 h 23.011718 c 1.336393,0 2.419922,1.0835275 2.419922,2.4199221 V 23.951172 c 0,1.336393 -1.083529,2.419922 -2.419922,2.419922 H 4.494141 c -1.336393,0 -2.419922,-1.083529 -2.419922,-2.419922 V 8.0488286 c 0,-1.3363946 1.083527,-2.4199221 2.419922,-2.4199221 z M 15.65625,9.4316411 c -0.265412,-5.03e-5 -0.531807,0.1002776 -0.734375,0.3027344 l -5.533203,5.5312495 -0.09961,0.117187 c -0.301433,0.405965 -0.268606,0.981393 0.09961,1.34961 l 5.533203,5.533203 0.115234,0.09961 c 0.405986,0.301294 0.983347,0.268608 1.351563,-0.09961 l 0.09961,-0.117187 c 0.301294,-0.405966 0.268608,-0.981531 -0.09961,-1.34961 l -3.761719,-3.761719 h 9.25 l 0.140625,-0.0098 C 22.523763,16.958624 22.914063,16.525016 22.914062,16 l -0.0098,-0.140625 c -0.06865,-0.506072 -0.502326,-0.896484 -1.027344,-0.896484 l -9.251953,0.002 3.763672,-3.763672 0.09961,-0.115234 c 0.301328,-0.405971 0.268502,-0.981412 -0.09957,-1.3496564 -0.202429,-0.2025333 -0.46701,-0.3046371 -0.732422,-0.3046875 z" />
	</g>

	<g id="brick_right">
		<path d="M 27.50586,3.554688 C 29.98769,3.554688 32,5.566995 32,8.048829 v 15.902343 c 0,2.481875 -2.01231,4.494141 -4.49414,4.49414 H 4.49414 C 2.01227,28.445312 0,26.433047 0,23.951172 V 8.048829 C 0,5.566995 2.01227,3.554688 4.49414,3.554688 Z m 0,2.074219 H 4.49414 c -1.33639,0 -2.41992,1.083527 -2.41992,2.419922 v 15.902343 c 0,1.336393 1.08353,2.419922 2.41992,2.419922 h 23.01172 c 1.33639,0 2.41992,-1.083529 2.41992,-2.419922 V 8.048829 c 0,-1.336395 -1.08353,-2.419922 -2.41992,-2.419922 z M 16.34375,9.431641 c 0.26541,-5e-5 0.53181,0.100278 0.73438,0.302735 l 5.5332,5.531249 0.0996,0.117187 c 0.30143,0.405965 0.2686,0.981393 -0.0996,1.34961 l -5.5332,5.533203 -0.11524,0.09961 c -0.40598,0.301294 -0.98335,0.268608 -1.35156,-0.09961 l -0.0996,-0.117187 c -0.3013,-0.405966 -0.26861,-0.981531 0.0996,-1.34961 l 3.76172,-3.761719 h -9.25 l -0.14063,-0.0098 C 9.47624,16.958629 9.08594,16.525016 9.08594,16 l 0.01,-0.140625 c 0.0686,-0.506072 0.50232,-0.896484 1.02734,-0.896484 l 9.25196,0.002 -3.76368,-3.763672 -0.0996,-0.115234 c -0.30133,-0.405971 -0.2685,-0.981412 0.0996,-1.349656 0.20243,-0.202534 0.46701,-0.304637 0.73243,-0.304688 z" />
	</g>

	<g id="screen_expand">
		<path d="m 9.146586,21.206165 c 0.45548,-0.455516 1.193962,-0.455516 1.649457,0 0.45548,0.455516 0.45548,1.193921 0,1.649438 l -4.813371,4.81161 h 3.404165 c 0.59048,0 1.078463,0.438874 1.15569,1.008076 l 0.01065,0.158318 c 0,0.644161 -0.522195,1.166395 -1.166343,1.166395 H 3.166343 C 2.522195,30.000002 2,29.477768 2,28.833607 v -6.22077 c 0,-0.644161 0.522195,-1.166395 1.166343,-1.166395 0.644147,0 1.166342,0.522234 1.166342,1.166395 v 3.404316 z m 13.466577,8.793837 c -0.644132,0 -1.166343,-0.522234 -1.166343,-1.166395 0,-0.64416 0.522211,-1.166394 1.166343,-1.166394 h 3.3995 l -4.807664,-4.811921 c -0.413974,-0.414149 -0.451297,-1.062198 -0.112436,-1.518646 l 0.113058,-0.130792 c 0.455651,-0.455361 1.194179,-0.45505 1.649364,6.22e-4 l 4.81233,4.815343 v -3.408982 c 0,-0.590507 0.438856,-1.078526 1.008031,-1.155664 l 0.158311,-0.01073 C 29.47779,21.446442 30,21.968676 30,22.612837 v 6.22077 c 0,0.644161 -0.52221,1.166395 -1.166343,1.166395 z M 9.386837,2.0000015 c 0.644148,0 1.166343,0.522218 1.166343,1.166395 0,0.644176 -0.522195,1.166394 -1.166343,1.166394 H 5.985782 l 4.809282,4.813134 c 0.413911,0.414257 0.451296,1.0622595 0.112326,1.5187545 l -0.11298,0.130777 c -0.455666,0.455329 -1.194148,0.455033 -1.649457,-6.54e-4 L 4.332685,5.9781845 v 3.408982 c 0,0.590506 -0.438778,1.0785105 -1.008077,1.1557415 l -0.158265,0.01065 C 2.522195,10.553559 2,10.031341 2,9.3871635 v -6.22077 c 0,-0.644177 0.522195,-1.166395 1.166343,-1.166395 z m 19.44682,0 C 29.47779,2.0000015 30,2.5222195 30,3.1663965 v 6.22077 c 0,0.6441775 -0.52221,1.1663955 -1.166343,1.1663955 -0.644132,0 -1.166342,-0.522218 -1.166342,-1.1663955 v -3.407427 l -4.812486,4.8152195 c -0.413974,0.414178 -1.061838,0.451954 -1.518578,0.113249 L 21.205465,10.795301 C 20.749814,10.339879 20.749658,9.6013635 21.205154,9.1457695 l 4.809064,-4.812979 h -3.401055 c -0.59048,0 -1.078478,-0.438798 -1.155768,-1.008122 l -0.01058,-0.158272 c 0,-0.644177 0.522211,-1.166395 1.166343,-1.166395 z" />
	</g>

	<g id="screen_normal">
		<path d="M 11.333333,3.555556 C 11.333333,2.696453 10.63688,2 9.777778,2 8.918676,2 8.222222,2.696453 8.222222,3.555556 v 3.888888 c 0,0.429552 -0.348226,0.777778 -0.777778,0.777778 H 3.555556 C 2.696453,8.222222 2,8.918676 2,9.777778 c 0,0.859102 0.696453,1.555555 1.555556,1.555555 h 3.888888 c 2.147772,0 3.888889,-1.741117 3.888889,-3.888889 z m 0,24.888888 C 11.333333,29.303578 10.63688,30 9.777778,30 8.918676,30 8.222222,29.303578 8.222222,28.444444 v -3.888888 c 0,-0.429489 -0.348226,-0.777778 -0.777778,-0.777778 H 3.555556 C 2.696453,23.777778 2,23.081356 2,22.222222 2,21.363089 2.696453,20.666667 3.555556,20.666667 h 3.888888 c 2.147772,0 3.888889,1.741133 3.888889,3.888889 z M 22.222222,2 c -0.859133,0 -1.555555,0.696453 -1.555555,1.555556 v 3.888888 c 0,2.147772 1.741133,3.888889 3.888889,3.888889 h 3.888888 C 29.303578,11.333333 30,10.63688 30,9.777778 30,8.918676 29.303578,8.222222 28.444444,8.222222 h -3.888888 c -0.429489,0 -0.777778,-0.348226 -0.777778,-0.777778 V 3.555556 C 23.777778,2.696453 23.081356,2 22.222222,2 Z m -1.555555,26.444444 c 0,0.859134 0.696422,1.555556 1.555555,1.555556 0.859134,0 1.555556,-0.696422 1.555556,-1.555556 v -3.888888 c 0,-0.429489 0.348289,-0.777778 0.777778,-0.777778 h 3.888888 C 29.303578,23.777778 30,23.081356 30,22.222222 30,21.363089 29.303578,20.666667 28.444444,20.666667 h -3.888888 c -2.147756,0 -3.888889,1.741133 -3.888889,3.888889 z" />
	</g>

	<g id="angle-end">
		<path d="M 24.105657,27.592454 H 28 V 4.407546 H 24.105657 Z M 4,24.875474 6.71698,27.592454 18.309434,16 6.71698,4.407546 4,7.124526 12.875474,16 Z" />
	</g>

	<g id="angle-left">
		<path d="M 23.40625,6.8125 20.59375,4 l -12,12 12,12 2.8125,-2.8125 L 14.21875,16 Z" />
	</g>

	<g id="angle-right">
		<path d="M 8.59375,6.8125 17.78125,16 8.59375,25.1875 11.40625,28 l 12,-12 -12,-12 z" />
	</g>

	<g id="angle-start">
		<path d="M 4,27.592455 H 7.89434 V 4.407545 H 4 Z M 28,7.124525 25.283019,4.407545 13.690566,15.999995 25.283019,27.592455 28,24.875465 19.124528,15.999995 Z" />
	</g>

	<g id="enter">
		<path d="M 10.75,17 H 2 v -3.5 h 8.75 V 10 L 16,15.25 10.75,20.5 Z M 28.25,3 V 25.75 L 17.75,31 V 25.75 H 7.25 v -7 H 9 V 24 h 8.75 V 8.25 l 7,-3.5 H 9 v 7 H 7.25 V 3 Z" />
	</g>

	<g id="exit">
		<path d="M 26.375,20.75 V 17 H 17 v -3.75 h 9.375 V 9.5 L 32,15.125 Z M 24.5,18.875 v 7.5 H 15.125 V 32 L 3.875,26.375 V 2 H 24.5 v 9.375 h -1.875 v -7.5 h -15 l 7.5,3.75 V 24.5 h 7.5 v -5.625 z" />
	</g>

	<g id="nav-settings">
		<path d="M 27.53329,18.68658 C 26.06422,16.14213 26.9477,12.88139 29.5062,11.3998 L 26.75471,6.634 C 25.96857,7.09485 25.05458,7.3591 24.07923,7.3591 21.13879,7.3591 18.75518,4.9598 18.75518,2 h -5.50315 c 0.007,0.91355 -0.22077,1.83974 -0.70978,2.68658 C 11.07323,7.23108 7.80751,8.0964 5.24524,6.62137 L 2.4938,11.38716 c 0.79215,0.45041 1.47793,1.10983 1.96563,1.95448 1.46667,2.54045 0.58822,5.79469 -1.96076,7.27956 l 2.75149,4.7658 c 0.7834,-0.45653 1.69302,-0.71788 2.66328,-0.71788 2.93114,0 5.30863,2.38415 5.32383,5.33088 h 5.50304 c -0.002,-0.90437 0.22619,-1.82027 0.71001,-2.6583 1.46661,-2.5404 4.72434,-3.40687 7.28475,-1.94174 l 2.7515,-4.76574 c -0.78696,-0.45024 -1.46814,-1.10737 -1.95328,-1.94764 z m -11.53332,2.98271 c -3.13108,0 -5.66934,-2.53816 -5.66934,-5.66929 0,-3.13108 2.53821,-5.66929 5.66934,-5.66929 3.13108,0 5.66924,2.53821 5.66924,5.66929 -6e-5,3.13113 -2.53816,5.66929 -5.66924,5.66929 z" />
	</g>

	<g id="user">
		<path d="m 22.765613,14.25 c 2.203109,0.640641 5.234391,2.812504 5.234391,9.921879 C 28.000004,27.390609 25.609363,30 22.671875,30 H 9.3281249 c -2.937516,0 -5.328129,-2.609391 -5.328129,-5.828121 0,-7.109375 3.031254,-9.281266 5.234391,-9.921879 -0.781234,-1.234371 -1.234371,-2.68752 -1.234371,-4.2500161 0,-4.406246 3.5937661,-7.999984 7.9999841,-7.999984 4.406218,0 7.999984,3.593766 7.999984,7.9999841 0,1.562496 -0.453109,3.015645 -1.234371,4.250016 z M 15.999972,3.9999959 c -3.312496,0 -6.0000161,2.68752 -6.0000161,6.0000161 0,3.312496 2.6875201,6.000016 6.0000161,6.000016 3.312496,0 6.000016,-2.68752 6.000016,-6.000016 0,-3.3124961 -2.68752,-6.0000161 -6.000016,-6.0000161 z m 6.671875,24.0000081 c 1.828129,0 3.328105,-1.703145 3.328105,-3.828125 0,-4.921875 -1.656234,-7.999984 -4.74998,-8.15627 -1.406266,1.234371 -3.234395,1.984359 -5.25,1.984359 -2.015605,0 -3.843734,-0.750016 -5.25,-1.984359 -3.0937461,0.15623 -4.7499801,3.234395 -4.7499801,8.15627 0,2.12498 1.500004,3.828125 3.328105,3.828125 z" />
	</g>

	<g id="nav-bookshelf">
		<path d="m 22.61233,2.9079353 -4.678446,2.3575596 c -0.428727,0.2156731 -0.603361,0.743941 -0.386815,1.1726676 l 7.857659,15.5956925 c 0.215673,0.428727 0.743941,0.603361 1.172668,0.386815 l 4.678446,-2.35756 c 0.428726,-0.215673 0.60336,-0.743941 0.386814,-1.172667 L 23.784997,3.2947497 C 23.569324,2.8660231 23.041056,2.6913891 22.61233,2.9079353 Z M 16.579597,1.5580142 h -5.239022 c -0.480243,0 -0.87317,0.3929265 -0.87317,0.8731702 V 21.640929 c 0,0.480243 0.392927,0.87317 0.87317,0.87317 h 5.239022 c 0.480243,0 0.87317,-0.392927 0.87317,-0.87317 V 2.4311844 c 0,-0.4802437 -0.392927,-0.8731702 -0.87317,-0.8731702 z m -0.873171,5.2390213 h -3.49268 V 5.050695 h 3.49268 z M 7.847894,1.5580142 H 2.6088727 c -0.4802436,0 -0.8731702,0.3929265 -0.8731702,0.8731702 V 21.640929 c 0,0.480243 0.3929266,0.87317 0.8731702,0.87317 H 7.847894 c 0.4802436,0 0.8731702,-0.392927 0.8731702,-0.87317 V 2.4311844 c 0,-0.4802437 -0.3929266,-0.8731702 -0.8731702,-0.8731702 z M 6.9747238,6.7970355 H 3.4820429 V 5.050695 H 6.9747238 Z M 1.05,22.629486 c -0.579058,0 -1.05,0.471064 -1.05,1.05 v 1.531251 c 0,0.579053 0.470942,1.05 1.05,1.049999 h 0.475 v 3.13125 c 0,0.579061 0.470942,1.05 1.05,1.05 h 1.53125 c 0.579057,0 1.05,-0.471002 1.05,-1.05 v -3.13125 h 21.6875 v 3.13125 c 0,0.579061 0.470939,1.05 1.05,1.05 h 1.531251 c 0.579053,0 1.05,-0.471002 1.049998,-1.05 V 28.44407 c 0,-0.0096 -0.0052,-0.01777 -0.0063,-0.02708 9.71e-4,-0.0093 0.0063,-0.01747 0.0063,-0.02708 V 26.260738 H 30.95 c 0.579054,-2e-6 1.05,-0.471009 1.05,-1.050001 v -1.531251 c -6.2e-5,-0.578999 -0.470946,-1.05 -1.05,-1.05 z m 0,0.937542 h 29.9 c 0.06201,0 0.1125,0.0505 0.1125,0.1125 v 0.464584 c 0,0.06206 -0.0505,0.112499 -0.1125,0.112499 H 1.05 c -0.06206,0 -0.1125,-0.0505 -0.1125,-0.112499 v -0.464584 c 0,-0.06206 0.05044,-0.1125 0.1125,-0.1125 z m 2.479167,2.693749 H 4.21875 v 3.13125 c 0,0.06206 -0.05044,0.112501 -0.1125,0.112501 H 3.641667 c -0.06206,0 -0.1125,-0.0505 -0.1125,-0.112501 z m 24.252083,0 h 0.689583 v 2.129167 c 0,0.0096 0.0053,0.01777 0.0063,0.02708 -9.7e-4,0.0093 -0.0063,0.01747 -0.0063,0.02708 v 0.947916 c 0,0.06206 -0.05044,0.1125 -0.112499,0.1125 H 27.89375 c -0.062,0 -0.1125,-0.0505 -0.1125,-0.1125 z" />
	</g>

	<g id="nav-catalog">
		<path d="M 32,4 A 4,4 0 0 0 28,0 H 4 A 4,4 0 0 0 0,4 v 24 a 4,4 0 0 0 4,4 h 24 a 4,4 0 0 0 4,-4 z M 8,2 V 30 H 4 A 2,2 0 0 1 2,28 V 4 A 2,2 0 0 1 4,2 Z m 2,0 h 18 a 2,2 0 0 1 2,2 v 24 a 2,2 0 0 1 -2,2 H 10 Z m 15,4 a 1,1 0 0 1 0,2 H 15 a 1,1 0 0 1 0,-2 z m 0,6 a 1,1 0 0 1 0,2 H 15 a 1,1 0 0 1 0,-2 z m 1,7 A 1,1 0 0 0 25,18 H 15 a 1,1 0 0 0 0,2 h 10 a 1,1 0 0 0 1,-1 m -1,5 a 1,1 0 0 1 0,2 H 15 a 1,1 0 0 1 0,-2 z" />
	</g>

	<g id="catalog-reg">
		<path d="M 19.75 0 A 1.75 1.75 0 0 0 18 1.75 L 18 8.75 A 1.75 1.75 0 0 0 19.75 10.5 L 21.5 10.5 L 21.5 12.25 A 1.75 1.75 0 0 0 23.25 14 L 30.25 14 A 1.75 1.75 0 0 0 32 12.25 L 32 5.25 A 1.75 1.75 0 0 0 30.25 3.5 L 28.5 3.5 L 28.5 1.75 A 1.75 1.75 0 0 0 26.75 0 L 19.75 0 z M 28.5 4.375 L 30.25 4.375 A 0.875 0.875 0 0 1 31.125 5.25 L 31.125 12.25 A 0.875 0.875 0 0 1 30.25 13.125 L 23.25 13.125 A 0.875 0.875 0 0 1 22.375 12.25 L 22.375 10.5 L 26.75 10.5 A 1.75 1.75 0 0 0 28.5 8.75 L 28.5 4.375 z M 3.375 5 A 3.375 3.375 0 0 0 0 8.375 L 0 28.625 A 3.375 3.375 0 0 0 3.375 32 L 23.625 32 A 3.375 3.375 0 0 0 27 28.625 L 27 15 L 25.3125 15 L 25.3125 28.625 A 1.6875 1.6875 0 0 1 23.625 30.3125 L 8.4375 30.3125 L 8.4375 6.6875 L 17 6.6875 L 17 5 L 3.375 5 z M 3.375 6.6875 L 6.75 6.6875 L 6.75 30.3125 L 3.375 30.3125 A 1.6875 1.6875 0 0 1 1.6875 28.625 L 1.6875 8.375 A 1.6875 1.6875 0 0 1 3.375 6.6875 z M 12.65625 10.0625 A 0.84375 0.84375 0 0 0 12.65625 11.75 L 17 11.75 L 17 10.0625 L 12.65625 10.0625 z M 12.65625 15.125 A 0.84375 0.84375 0 0 0 12.65625 16.8125 L 21.09375 16.8125 A 0.84375 0.84375 0 0 0 21.09375 15.125 L 12.65625 15.125 z M 12.65625 20.1875 A 0.84375 0.84375 0 0 0 12.65625 21.875 L 21.09375 21.875 A 0.84375 0.84375 0 0 0 21.9375 21.03125 A 0.84375 0.84375 0 0 0 21.09375 20.1875 L 12.65625 20.1875 z M 12.65625 25.25 A 0.84375 0.84375 0 0 0 12.65625 26.9375 L 21.09375 26.9375 A 0.84375 0.84375 0 0 0 21.09375 25.25 L 12.65625 25.25 z" />
	</g>


	<g id="book-comm">
		<path style="fill:currentColor;stroke:none;stroke-width:.82808" d="M5.908 1C4.302 1 3 2.343 3 4v18c0 1.657 1.302 3 2.908 3h10.125a5.78 5.78 0 0 1-1.078-1.8H5.908c-.642 0-1.162-.537-1.162-1.2h9.887a5.78 5.78 0 0 1-.065-.838 5.78 5.78 0 0 1 5.78-5.78 5.78 5.78 0 0 1 1.851.307V4c0-1.657-1.301-3-2.908-3H5.908zm1.746 3.6h9.309c.643 0 1.164.538 1.164 1.2V7c0 .663-.521 1.2-1.164 1.2H7.654C7.012 8.2 6.49 7.662 6.49 7V5.8c0-.662.522-1.2 1.164-1.2z"/>
		<path d="m25.161 31.667 6.508-4.44-5.553-8.132-4.996-.337-1.511 4.774z" fill="#e3334f"/>
		<path d="M25.161 32c.067 0 .133-.02.186-.057l6.508-4.44a.332.332 0 0 0 .087-.463l-5.55-8.132a.331.331 0 0 0-.252-.143l-4.997-.336a.33.33 0 0 0-.34.233l-1.507 4.777a.325.325 0 0 0 .043.286l5.546 8.129a.334.334 0 0 0 .276.146zm6.045-4.86-5.958 4.064-5.273-7.726 1.381-4.373 4.577.31z" fill="#231f20"/>
		<circle cx="32.95" cy="20.79" fill="#fff" r="3.38" transform="matrix(-.33287 0 0 .33287 33.989 14.624)"/>
		<path d="M23.024 23.006a1.457 1.457 0 0 0 1.202-2.28 1.453 1.453 0 0 0-2.027-.383 1.453 1.453 0 0 0-.383 2.027 1.453 1.453 0 0 0 1.208.636zm-.003-2.254a.786.786 0 0 1 .66.346.793.793 0 0 1-1.31.893.782.782 0 0 1-.123-.593.779.779 0 0 1 .333-.506.742.742 0 0 1 .44-.14z" fill="#231f20"/>
		<path d="M19.452 23.745c.047 0 .09 0 .137-.004.02 0 .03 0 .05-.003.18-.013.333-.166.326-.346-.007-.2-.163-.333-.376-.32-1.338.044-2.453-.595-2.806-1.58-.19-.537-.147-1.116.126-1.678.38-.78 1.142-1.405 2.09-1.718 1.425-.473 2.966-.107 3.669.869l.063.093a2.004 2.004 0 0 1 .296 1.341.333.333 0 0 0 .287.373.333.333 0 0 0 .372-.286 2.655 2.655 0 0 0-.396-1.784c-.026-.04-.053-.083-.083-.127-.882-1.225-2.696-1.684-4.42-1.111-1.119.369-2.021 1.118-2.477 2.057-.35.719-.406 1.498-.156 2.193.439 1.225 1.754 2.03 3.298 2.03z" fill="#231f20"/>
	</g>

	<g id="book-free">
		<path style="fill:currentColor;stroke:none;stroke-width:.82808" d="M6.01 1.03c-1.607 0-2.91 1.342-2.91 3v18c0 1.656 1.303 3 2.91 3h3.799c.15-.637.474-1.246.984-1.75l.049-.05H6.01c-.643 0-1.164-.538-1.164-1.2h7.209l3.216-3.188c1.476-1.463 3.89-1.503 5.413-.09l1.617 1.5V4.029c0-1.657-1.304-3-2.91-3H6.01zm1.744 3.6h9.31c.643 0 1.163.537 1.163 1.2v1.2c0 .662-.52 1.2-1.163 1.2h-9.31c-.643 0-1.164-.538-1.164-1.2v-1.2c0-.663.521-1.2 1.164-1.2z"/>
		<path style="fill:#455a64;stroke-width:.0326087" d="M13.13 25.043a.348.348 0 0 1-.246-.594l3.478-3.478a.348.348 0 0 1 .492.492l-3.478 3.478a.348.348 0 0 1-.246.102zM22.87 25.043a.348.348 0 0 1-.247-.101l-3.478-3.478a.348.348 0 0 1 .492-.492l3.478 3.478a.348.348 0 0 1-.245.593z"/>
		<path style="fill:#4caf50;stroke-width:.0326087" d="M11.74 24.348h12.52c.961 0 1.74.778 1.74 1.739v4.174c0 .96-.779 1.739-1.74 1.739H11.74A1.74 1.74 0 0 1 10 30.26v-4.173c0-.96.779-1.74 1.74-1.74z"/>
		<path style="fill:#fafafa;stroke-width:.0326087" d="M11.74 30.609a.348.348 0 0 1-.349-.348v-4.174c0-.192.156-.348.348-.348h2.087a.348.348 0 0 1 0 .696h-1.739v3.826a.348.348 0 0 1-.348.348z"/>
		<path style="fill:#fafafa;stroke-width:.0326087" d="M13.13 28.522h-1.39a.348.348 0 0 1 0-.696h1.39a.348.348 0 0 1 0 .696zM17.304 30.609a.348.348 0 0 1-.246-.102l-1.493-1.493v1.247a.348.348 0 0 1-.695 0v-4.174c0-.192.155-.348.347-.348h1.044a1.391 1.391 0 0 1 0 2.783h-.204l1.493 1.493a.348.348 0 0 1-.246.594zm-1.739-2.783h.696a.696.696 0 1 0 0-1.391h-.696zM20.783 30.609h-2.087a.348.348 0 0 1-.348-.348v-4.174c0-.192.156-.348.348-.348h2.087a.348.348 0 0 1 0 .696h-1.74v3.478h1.74a.348.348 0 0 1 0 .696z"/>
		<path style="fill:#fafafa;stroke-width:.0326087" d="M20.087 28.522h-1.391a.348.348 0 0 1 0-.696h1.391a.348.348 0 0 1 0 .696zM24.26 30.609h-2.086a.348.348 0 0 1-.348-.348v-4.174c0-.192.156-.348.348-.348h2.087a.348.348 0 0 1 0 .696h-1.74v3.478h1.74a.348.348 0 0 1 0 .696z"/>
		<path style="fill:#fafafa;stroke-width:.0326087" d="M23.565 28.522h-1.391a.348.348 0 0 1 0-.696h1.391a.348.348 0 0 1 0 .696z"/>
		<path style="fill:#607d8b;stroke-width:.0326087" d="M18 22.957a1.74 1.74 0 1 1 0-3.479 1.74 1.74 0 0 1 0 3.479z"/>
	</g>


	<g id="cross-slim">
		<path d="M 16,14.000234 5.99977,4 4,5.99977 14.00023,16 4,26.000234 5.99977,28 16,17.999766 26.000234,28 28,26.000234 17.99977,16 28,5.99977 26.000234,4 Z" />
	</g>

	<g id="cross-mini">
		<path d="M 16,14.500176 8.4998275,7 7,8.4998275 14.500173,16 7,23.500175 8.4998275,25 16,17.499825 23.500175,25 25,23.500175 17.499828,16 25,8.4998275 23.500175,7 Z" />
	</g>

	<g id="file-person">
		<path d="M 27.25,27.25 V 9.4375 L 18.8125,1 H 8.5 A 3.75,3.75 0 0 0 4.75,4.75 v 22.5 A 3.75,3.75 0 0 0 8.5,31 h 15 a 3.75,3.75 0 0 0 3.75,-3.75 z M 18.8125,6.625 a 2.8125,2.8125 0 0 0 2.8125,2.8125 h 3.75 V 26.790625 C 25.375,26.790625 23.5,23.5 16,23.5 8.5,23.5 6.625,26.790625 6.625,26.790625 V 4.75 A 1.875,1.875 0 0 1 8.5,2.875 H 18.8125 Z M 21.625,16 a 5.625,5.625 0 1 1 -11.25,0 5.625,5.625 0 0 1 11.25,0 z" />
	</g>

	<g id="nav-question">
		<path d="m 19.195369,23.875 v 5.25001 C 19.195369,29.60624 18.801608,30 18.320375,30 h -5.250003 c -0.481233,0 -0.874994,-0.39376 -0.874994,-0.87499 V 23.875 c 0,-0.48123 0.393761,-0.87499 0.874994,-0.87499 h 5.250003 c 0.481233,0 0.874994,0.39376 0.874994,0.87499 z m 6.912479,-13.12498 c 0,4.15623 -2.821862,5.75313 -4.899997,6.91248 -1.290613,0.74376 -2.099993,2.25311 -2.099993,2.88751 v 0 c 0,0.48123 -0.371864,1.05002 -0.874994,1.05002 h -5.250002 c -0.481234,0 -0.787484,-0.74377 -0.787484,-1.225 v -0.98437 c 0,-2.64687 2.624983,-4.92185 4.549992,-5.79688 1.684374,-0.76563 2.384385,-1.4875 2.384385,-2.88752 0,-1.225 -1.596863,-2.31873 -3.368748,-2.31873 -0.984364,0 -1.881255,0.30625 -2.362488,0.63436 -0.524989,0.37186 -1.050016,0.89689 -2.340629,2.51561 -0.174983,0.21874 -0.437516,0.35001 -0.678114,0.35001 -0.19688,0 -0.371863,-0.0656 -0.5468851,-0.17499 L 6.2454039,8.97813 C 5.8735389,8.69374 5.7860279,8.21251 6.0266649,7.81875 8.3891529,3.90311 11.714145,2 16.176664,2 c 4.681259,0 9.931261,3.74061 9.931261,8.74998 z" />
	</g>


	<g id="person-add">
		<path d="m 24.181818,18.72727 v -4.09091 h -4.090909 v -2.72727 h 4.090909 V 7.81818 h 2.727273 v 4.09091 H 31 v 2.72727 h -4.090909 v 4.09091 z M 11.909091,16 q -2.25,0 -3.852273,-1.60227 -1.602273,-1.60227 -1.602273,-3.85227 0,-2.25 1.602273,-3.85228 1.602273,-1.60227 3.852273,-1.60227 2.25,0 3.852273,1.60227 1.602272,1.60228 1.602272,3.85228 0,2.25 -1.602272,3.85227 Q 14.159091,16 11.909091,16 Z M 1,26.90909 v -3.81818 q 0,-1.15909 0.596591,-2.13068 0.596591,-0.97159 1.585227,-1.48296 2.113637,-1.05681 4.295455,-1.58522 2.181818,-0.52841 4.431818,-0.52841 2.25,0 4.431818,0.52841 2.181818,0.52841 4.295455,1.58522 0.988636,0.51137 1.585227,1.48296 0.596591,0.97159 0.596591,2.13068 v 3.81818 z m 2.727273,-2.72727 h 16.363636 v -1.09091 q 0,-0.375 -0.1875,-0.68182 -0.1875,-0.30682 -0.494318,-0.47727 -1.840909,-0.92046 -3.715909,-1.38068 -1.875,-0.46023 -3.784091,-0.46023 -1.909091,0 -3.784091,0.46023 -1.875,0.46022 -3.715909,1.38068 -0.306818,0.17045 -0.494318,0.47727 -0.1875,0.30682 -0.1875,0.68182 z m 8.181818,-10.90909 q 1.125,0 1.926136,-0.80114 0.801137,-0.80113 0.801137,-1.92613 0,-1.125 -0.801137,-1.92614 -0.801136,-0.80114 -1.926136,-0.80114 -1.125,0 -1.926136,0.80114 -0.801137,0.80114 -0.801137,1.92614 0,1.125 0.801137,1.92613 0.801136,0.80114 1.926136,0.80114 z m 0,-2.72727 z m 0,13.63636 z" />
	</g>

	<g id="person-edit">
		<path d="m 13.09068,15.24433 q -2.4937,0 -4.2695205,-1.77582 -1.77582,-1.77582 -1.77582,-4.26952 0,-2.4937 1.77582,-4.26952 1.7758205,-1.77582 4.2695205,-1.77582 2.4937,0 4.26952,1.77582 1.77582,1.77582 1.77582,4.26952 0,2.4937 -1.77582,4.26952 -1.77582,1.77582 -4.26952,1.77582 z M 0.9999995,27.33501 v -4.23174 q 0,-1.24685 0.64232,-2.34257 0.64231,-1.09571 1.77582,-1.66247 1.92695,-0.98236 4.34508,-1.66246 2.4181395,-0.6801 5.3274595,-0.6801 h 0.52897 q 0.2267,0 0.4534,0.0756 -0.302269,0.6801 -0.51008,1.41688 -0.20781,0.73677 -0.32116,1.53023 h -0.15113 q -2.68262,0 -4.8173795,0.6801 -2.13476,0.6801 -3.49496,1.3602 -0.34005,0.18891 -0.54786,0.52896 -0.20781,0.34006 -0.20781,0.75567 v 1.20907 h 9.5214095 q 0.2267,0.79345 0.60453,1.56801 0.37784,0.77456 0.83124,1.45466 z m 21.1586915,1.51134 -0.4534,-2.26701 q -0.453401,-0.18891 -0.850132,-0.39672 -0.39672,-0.20781 -0.81234,-0.51008 l -2.19143,0.6801 -1.51134,-2.56927 1.73804,-1.51133 q -0.0756,-0.52897 -0.0756,-0.98237 0,-0.4534 0.0756,-0.98237 l -1.73804,-1.51133 1.51134,-2.56927 2.19143,0.6801 q 0.41562,-0.30227 0.81234,-0.51008 Q 21.25189,16.18891 21.705291,16 l 0.4534,-2.267 h 3.02267 l 0.4534,2.267 q 0.4534,0.18891 0.85013,0.41561 0.39672,0.2267 0.81234,0.56676 l 2.19143,-0.75567 1.51134,2.64483 -1.73804,1.51134 q 0.0756,0.4534 0.0756,0.94458 0,0.49119 -0.0756,0.94459 l 1.73804,1.51133 -1.51134,2.56927 -2.19143,-0.6801 q -0.41562,0.30227 -0.81234,0.51008 -0.396731,0.20781 -0.850131,0.39672 l -0.4534,2.26701 z m 1.51134,-4.53401 q 1.24685,0 2.13476,-0.88791 0.88791,-0.88791 0.88791,-2.13476 0,-1.24685 -0.88791,-2.13476 -0.88791,-0.88791 -2.13476,-0.88791 -1.24686,0 -2.13477,0.88791 -0.887901,0.88791 -0.887901,2.13476 0,1.24685 0.887901,2.13476 0.88791,0.88791 2.13477,0.88791 z M 13.09068,12.22166 q 1.24685,0 2.13476,-0.88791 0.88791,-0.88791 0.88791,-2.13476 0,-1.24685 -0.88791,-2.13476 -0.88791,-0.88791 -2.13476,-0.88791 -1.24685,0 -2.13476,0.88791 -0.88791,0.88791 -0.88791,2.13476 0,1.24685 0.88791,2.13476 0.88791,0.88791 2.13476,0.88791 z m 0,-3.02267 z m 0.4534,15.11335 z" />
	</g>

	<g id="person-off">
		<path d="M 28.84363,31 24.87137,27.02774 H 4.97226 v -4.23707 q 0,-1.28626 0.66204,-2.36444 0.66204,-1.07818 1.75914,-1.64565 1.7024,-0.87011 3.46154,-1.39975 1.75914,-0.52963 3.57503,-0.79445 L 1,3.15637 3.15637,1 31,28.84363 Z M 7.99874,24.00126 h 13.84615 l -4.53972,-4.53972 h -0.22699 q -2.11853,0 -4.19924,0.51072 -2.08071,0.51072 -4.12358,1.53215 -0.34048,0.18916 -0.54855,0.52964 -0.20807,0.34048 -0.20807,0.75662 z m 18.76419,-5.22068 q 1.0971,0.52963 1.74022,1.60782 0.64313,1.07818 0.68096,2.32661 l -5.06936,-5.06936 q 0.68096,0.26482 1.34301,0.52963 0.66204,0.26482 1.30517,0.6053 z m -6.35562,-4.84237 -2.23203,-2.23203 q 0.87012,-0.34048 1.39975,-1.11602 0.52964,-0.77553 0.52964,-1.72131 0,-1.24842 -0.88903,-2.13745 -0.88903,-0.88903 -2.13746,-0.88903 -0.94577,0 -1.72131,0.52963 -0.77553,0.52964 -1.11601,1.39975 L 12.00883,5.53972 q 0.87011,-1.28625 2.1942,-2.00504 1.32408,-0.71879 2.87515,-0.71879 2.49685,0 4.27491,1.77806 1.77806,1.77805 1.77806,4.2749 0,1.55107 -0.71879,2.87516 -0.71879,1.32409 -2.00505,2.1942 z m 1.43758,10.06305 H 7.99874 Z M 16.20807,9.73897 Z" />
	</g>

	<g id="front">
		<path d="M 0,4 A 4,4 0 0 1 4,0 h 16 a 4,4 0 0 1 4,4 v 4 h 4 a 4,4 0 0 1 4,4 v 16 a 4,4 0 0 1 -4,4 H 12 A 4,4 0 0 1 8,28 V 24 H 4 A 4,4 0 0 1 0,20 Z m 10,20 v 4 a 2,2 0 0 0 2,2 h 16 a 2,2 0 0 0 2,-2 V 12 a 2,2 0 0 0 -2,-2 h -4 v 10 a 4,4 0 0 1 -4,4 z" />
	</g>

	<g id="folder">
		<path d="m 17.73325,6 -6.517375,5.924875 C 10.98575,12.134 10.686,12.25 10.375,12.25 H 1 V 23.5 c 0,2.761375 2.238575,5 5,5 h 20 c 2.761375,0 5,-2.238625 5,-5 V 11 C 31,8.238575 28.761375,6 26,6 Z m -3.7165,0 H 13.9385 L 11.155875,3.7739125 C 10.93425,3.5966 10.658875,3.5 10.375,3.5 H 6 c -2.761425,0 -5,2.238575 -5,5 v 1.25 h 8.89175 z" />
	</g>

	<g id="folder-opened">
		<path d="m 0.00636815,6.7755925 c 6.897e-4,-1.9927311 1.61631405,-3.60781 3.60906125,-3.60781 h 6.3447617 c 0.8429799,0 1.6593659,0.2950768 2.3075369,0.8340621 l 3.819237,3.1758134 h 9.183537 c 1.993164,0 3.609061,1.6158328 3.609061,3.609062 v 1.20634 H 7.0985423 c -1.6566072,0 -3.1004883,1.127872 -3.5016395,2.735107 L 0.51391435,27.080459 c 0.068893,-0.276374 -0.00159,0.0063 0,0 C 0.18744675,26.537496 -2.2444548e-4,25.901659 1.5452089e-7,25.221873 Z M 2.8052352,27.835957 c -0.1263171,0.506231 0.256516,0.996261 0.7781457,0.996261 H 26.424279 c 1.287873,0 2.410692,-0.876601 2.723157,-2.126138 l 2.828221,-11.310477 c 0.126557,-0.50607 -0.256324,-0.996422 -0.778114,-0.996422 H 7.0985423 c -0.5522024,0 -1.0334907,0.375824 -1.1672185,0.911569 z" />
	</g>

	<g id="folder-new">
		<path d="M 6 3.5 C 3.238575 3.5 1 5.738575 1 8.5 L 1 9.75 L 9.8925781 9.75 L 14.017578 6 L 13.939453 6 L 11.15625 3.7734375 C 10.934625 3.596125 10.658875 3.5 10.375 3.5 L 6 3.5 z M 17.732422 6 L 11.216797 11.925781 C 10.986672 12.134906 10.686 12.25 10.375 12.25 L 1 12.25 L 1 23.5 C 1 26.261375 3.238575 28.5 6 28.5 L 18.162109 28.5 A 7.5 7.5 0 0 1 17 24.5 A 7.5 7.5 0 0 1 24.5 17 A 7.5 7.5 0 0 1 31 20.761719 L 31 11 C 31 8.238575 28.761375 6 26 6 L 17.732422 6 z M 24.013672 18.017578 A 6.5 6.5 0 0 0 18 24.5 A 6.5 6.5 0 0 0 31 24.5 A 6.5 6.5 0 0 0 24.013672 18.017578 z M 24.5 20.785156 A 0.92857143 0.92857143 0 0 1 25.427734 21.714844 L 25.427734 23.572266 L 27.285156 23.572266 A 0.9285715 0.9285715 0 0 1 27.285156 25.427734 L 25.427734 25.427734 L 25.427734 27.285156 A 0.92857143 0.92857143 0 0 1 23.572266 27.285156 L 23.572266 25.427734 L 21.714844 25.427734 A 0.9285715 0.9285715 0 0 1 21.714844 23.572266 L 23.572266 23.572266 L 23.572266 21.714844 A 0.92857143 0.92857143 0 0 1 24.5 20.785156 z " />
	</g>

	<g id="item-edit">
		<path d="m 2,26.991717 a 2.8673064,2.8673064 0 0 0 2.8673064,2.867306 H 25.89422 a 2.8673064,2.8673064 0 0 0 2.867307,-2.867306 V 15.522491 a 0.9557688,0.9557688 0 0 0 -1.911537,0 v 11.469226 a 0.9557688,0.9557688 0 0 1 -0.95577,0.955769 H 4.8673064 A 0.9557688,0.9557688 0 0 1 3.9115376,26.991717 V 5.9648034 A 0.9557688,0.9557688 0 0 1 4.8673064,5.0090346 H 17.292302 a 0.95576881,0.95576881 0 0 0 0,-1.9115376 H 4.8673064 A 2.8673064,2.8673064 0 0 0 2,5.9648034 Z M 29.721118,4.8943424 a 0.9557688,0.9557688 0 0 1 0,1.3495456 L 27.727384,8.2395334 23.904309,4.416458 25.898044,2.4208127 a 0.9557688,0.9557688 0 0 1 1.351457,0 l 2.471617,2.4716181 z M 26.375928,9.5890784 22.552852,5.7660035 9.5295469,18.791221 a 0.9557688,0.9557688 0 0 0 -0.231297,0.374661 L 7.7594628,23.780334 A 0.4778844,0.4778844 0 0 0 8.3635089,24.38438 L 12.97796,22.845592 a 0.9557688,0.9557688 0 0 0 0.374662,-0.229385 L 26.375928,9.5909894 Z" />
	</g>

	<g id="suite">
		<path d="M 2.6289062 3 C 1.8083689 3 1.1425781 3.6657907 1.1425781 4.4863281 L 1.1425781 6.7148438 C 1.1425781 7.5353812 1.8083688 8.1992188 2.6289062 8.1992188 L 29.371094 8.1992188 C 30.191632 8.1992191 30.857422 7.5353813 30.857422 6.7148438 L 30.857422 4.4863281 C 30.857422 3.6657905 30.191632 2.9999996 29.371094 3 L 2.6289062 3 z M 3 10.427734 L 3 24.357422 C 3 26.855279 4.8958102 29 7.3769531 29 L 24.623047 29 C 27.10419 29 29 26.855279 29 24.357422 L 29 10.427734 L 3 10.427734 z M 9.75 14 L 14.25 14 C 14.664212 13.999998 15 14.335786 15 14.75 L 15 19.25 C 15 19.664213 14.664212 20.000001 14.25 20 L 9.75 20 C 9.3357863 20 9.0000009 19.664213 9 19.25 L 9 14.75 C 9 14.335786 9.3357863 14 9.75 14 z M 17.75 14 L 22.25 14 C 22.664213 13.999998 23 14.335786 23 14.75 L 23 19.25 C 23 19.664213 22.664213 20.000001 22.25 20 L 17.75 20 C 17.335786 20 17.000001 19.664213 17 19.25 L 17 14.75 C 17 14.335786 17.335786 14 17.75 14 z M 9.75 22 L 14.25 22 C 14.664214 22 15 22.223858 15 22.5 L 15 25.5 C 15 25.776142 14.664214 26.000001 14.25 26 L 9.75 26 C 9.3357863 26 9.000001 25.776142 9 25.5 L 9 22.5 C 9 22.223858 9.3357863 22 9.75 22 z M 17.75 22 L 22.25 22 C 22.664215 22 23 22.223858 23 22.5 L 23 25.5 C 23 25.776142 22.664215 26.000001 22.25 26 L 17.75 26 C 17.335787 26 17 25.776142 17 25.5 L 17 22.5 C 17 22.223858 17.335787 22 17.75 22 z" />
	</g>

	<g id="suite-opened">
		<path d="M 1.0620006,7.7619958 C 0.27560424,7.9962215 -0.17201877,8.8235996 0.06220708,9.6099963 l 0.6361551,2.1358467 c 0.23422585,0.786396 1.06160392,1.234018 1.84800032,0.999793 L 28.176513,5.1117749 C 28.96291,4.8775493 29.410533,4.0501711 29.176307,3.2637741 L 28.540152,1.1279284 C 28.305926,0.34153135 27.478548,-0.10609166 26.69215,0.12813467 Z M 3,13.427734 V 27.357422 C 3,29.855279 4.8958102,32 7.3769531,32 H 24.623047 C 27.10419,32 29,29.855279 29,27.357422 V 13.427734 Z m 16.984375,3.556641 c 0.146446,0 0.294514,0.05623 0.40625,0.167969 l 2.427734,2.427734 c 0.22347,0.223468 0.22347,0.587076 0,0.810547 l -2.427734,2.427734 c -0.22347,0.223469 -0.587078,0.223469 -0.810547,0 l -2.427734,-2.427734 c -0.223469,-0.223471 -0.223468,-0.587076 0,-0.810547 l 2.427734,-2.427734 c 0.111736,-0.111735 0.257851,-0.167969 0.404297,-0.167969 z M 9.75,17 h 4.5 c 0.414212,-2e-6 0.75,0.335786 0.75,0.75 v 4.5 c 0,0.414213 -0.335788,0.750001 -0.75,0.75 H 9.75 C 9.3357863,23 9.0000009,22.664213 9,22.25 v -4.5 C 9,17.335786 9.3357863,17 9.75,17 Z m 0,8 h 4.5 c 0.414214,0 0.75,0.223858 0.75,0.5 v 3 c 0,0.276142 -0.335786,0.500001 -0.75,0.5 H 9.75 C 9.3357863,29 9.000001,28.776142 9,28.5 v -3 C 9,25.223858 9.3357863,25 9.75,25 Z m 8,0 h 4.5 c 0.414215,0 0.75,0.223858 0.75,0.5 v 3 c 0,0.276142 -0.335785,0.500001 -0.75,0.5 h -4.5 C 17.335787,29 17,28.776142 17,28.5 v -3 C 17,25.223858 17.335787,25 17.75,25 Z" />
	</g>

	<g id="book">
		<path d="M 7.6363637,2 C 5.6280582,2 4,3.567006 4,5.5 v 21 C 4,28.43298 5.6280582,30 7.6363637,30 H 26.909091 C 27.511563,30 28,29.52988 28,28.95 28,28.37012 27.511563,27.9 26.909091,27.9 H 7.6363637 C 6.8330473,27.9 6.1818183,27.27322 6.1818183,26.5 H 26.909091 C 27.511563,26.5 28,26.02988 28,25.45 V 5.5 C 28,3.567006 26.371927,2 24.363636,2 Z M 9.818183,6.2 h 11.636365 c 0.803343,0 1.454543,0.626808 1.454543,1.4 V 9 c 0,0.773192 -0.6512,1.4 -1.454543,1.4 H 9.818183 C 9.014865,10.4 8.3636364,9.773192 8.3636364,9 V 7.6 c 0,-0.773192 0.6512286,-1.4 1.4545466,-1.4 z"
		   style="fill:currentColor;stroke:none;" />
	</g>

	<g id="book-opened">
		<path style="fill:currentColor"
		   d="M 4.4453125,0 C 3.6953132,0 3.0432983,0.26416932 2.4921875,0.79296875 1.9413547,1.3220351 1.6660156,1.9460164 1.6660156,2.6660156 V 29.333984 c 0,0.72 0.2753391,1.343982 0.8261719,1.873047 C 3.0432983,31.735831 3.6953132,32 4.4453125,32 H 27.554688 c 0.749999,0 1.402014,-0.264169 1.953124,-0.792969 0.550833,-0.529065 0.826172,-1.153047 0.826172,-1.873047 V 2.6660156 c 0,-0.7199992 -0.275339,-1.3439805 -0.826172,-1.87304685 C 28.956702,0.26416932 28.304687,0 27.554688,0 Z m 0,2.6660156 H 15.611328 V 13.494141 l 4.083984,-2.294922 4.082032,2.294922 V 2.6660156 h 3.777344 V 29.333984 H 4.4453125 Z M 22.916016,15.144531 19.396484,18.685547 17.625,16.914062 l -1.0625,1.0625 2.833984,2.833985 L 24,16.207031 Z M 8,17.810547 v 1.5 h 7 v -1.5 z m 10.0625,4 -1.0625,1.0625 1.9375,1.9375 -1.9375,1.9375 1.0625,1.0625 1.9375,-1.9375 1.9375,1.9375 L 23,26.748047 21.0625,24.810547 23,22.873047 21.9375,21.810547 20,23.748047 Z M 8,24.310547 v 1.5 h 7 v -1.5 z" />
	</g>
	
	
	<g id="book-popup">
		<path d="M 9.7265625 0 C 8.220335 0 7 1.2592026 7 2.8125 L 7 19.6875 C 7 21.240784 8.220335 22.5 9.7265625 22.5 L 24.181641 22.5 C 24.633493 22.5 25 22.122223 25 21.65625 C 25 21.190274 24.633493 20.8125 24.181641 20.8125 L 9.7265625 20.8125 C 9.1240761 20.8125 8.6367187 20.308836 8.6367188 19.6875 L 24.181641 19.6875 C 24.633493 19.6875 25 19.309723 25 18.84375 L 25 2.8125 C 25 1.2592026 23.779653 0 22.273438 0 L 9.7265625 0 z M 11.363281 3.375 L 20.091797 3.375 C 20.694304 3.375 21.181641 3.8786856 21.181641 4.5 L 21.181641 5.625 C 21.181641 6.2463144 20.694304 6.75 20.091797 6.75 L 11.363281 6.75 C 10.760792 6.75 10.273438 6.2463144 10.273438 5.625 L 10.273438 4.5 C 10.273438 3.8786856 10.760792 3.375 11.363281 3.375 z M 5.6542969 9.5019531 C 3.0809647 9.5200554 1 11.609903 1 14.1875 L 1 27.3125 C 1 29.901329 3.0986702 32 5.6875 32 L 26.3125 32 C 28.901329 32 31 29.901329 31 27.3125 L 31 14.1875 C 31 11.609903 28.919036 9.5200554 26.345703 9.5019531 L 26.345703 11.376953 C 27.883495 11.394984 29.125 12.645436 29.125 14.1875 L 29.125 27.3125 C 29.125 28.865797 27.865797 30.125 26.3125 30.125 L 5.6875 30.125 C 4.1342022 30.125 2.875 28.865797 2.875 27.3125 L 2.875 14.1875 C 2.875 12.645436 4.1165051 11.394984 5.6542969 11.376953 L 5.6542969 9.5019531 z " />		
	</g>
	
	<g id="book-popup-opened">
		<path d="M 8.7441406 0 C 8.2732321 0 7.8655609 0.16602521 7.5195312 0.49804688 C 7.1736746 0.83023554 7 1.2217566 7 1.6738281 L 7 18.417969 C 7 18.870041 7.1736746 19.261561 7.5195312 19.59375 C 7.8655609 19.925772 8.2732321 20.091797 8.7441406 20.091797 L 23.255859 20.091797 C 23.726767 20.091797 24.134439 19.925772 24.480469 19.59375 C 24.826325 19.261561 25 18.870041 25 18.417969 L 25 1.6738281 C 25 1.2217566 24.826325 0.83023554 24.480469 0.49804688 C 24.134439 0.16602521 23.726767 -7.4014794e-17 23.255859 0 L 8.7441406 0 z M 8.7441406 1.6738281 L 15.755859 1.6738281 L 15.755859 8.4726562 L 18.320312 7.03125 L 20.882812 8.4726562 L 20.882812 1.6738281 L 23.255859 1.6738281 L 23.255859 18.417969 L 8.7441406 18.417969 L 8.7441406 1.6738281 z M 5.6542969 9.5019531 C 3.0809647 9.5200554 1 11.609903 1 14.1875 L 1 27.3125 C 1 29.901329 3.0986702 32 5.6875 32 L 26.3125 32 C 28.901329 32 31 29.901329 31 27.3125 L 31 14.1875 C 31 11.609903 28.919036 9.5200554 26.345703 9.5019531 L 26.345703 11.376953 C 27.883495 11.394984 29.125 12.645436 29.125 14.1875 L 29.125 27.3125 C 29.125 28.865797 27.865797 30.125 26.3125 30.125 L 5.6875 30.125 C 4.1342022 30.125 2.875 28.865797 2.875 27.3125 L 2.875 14.1875 C 2.875 12.645436 4.1165051 11.394984 5.6542969 11.376953 L 5.6542969 9.5019531 z M 20.341797 9.5097656 L 18.132812 11.732422 L 17.019531 10.619141 L 16.353516 11.287109 L 18.132812 13.066406 L 21.023438 10.175781 L 20.341797 9.5097656 z M 10.976562 11.183594 L 10.976562 12.125 L 15.373047 12.125 L 15.373047 11.183594 L 10.976562 11.183594 z M 17.294922 13.695312 L 16.626953 14.361328 L 17.84375 15.578125 L 16.626953 16.794922 L 17.294922 17.460938 L 18.511719 16.246094 L 19.728516 17.460938 L 20.394531 16.794922 L 19.177734 15.578125 L 20.394531 14.361328 L 19.728516 13.695312 L 18.511719 14.910156 L 17.294922 13.695312 z M 10.976562 15.263672 L 10.976562 16.205078 L 15.373047 16.205078 L 15.373047 15.263672 L 10.976562 15.263672 z " />
	</g>
	
	<g id="book-min">
		<path
		   d="M 5.6542969,9.5019531 C 3.0809647,9.5200554 1,11.609903 1,14.1875 v 13.125 C 1,29.901329 3.0986702,32 5.6875,32 h 20.625 C 28.901329,32 31,29.901329 31,27.3125 V 14.1875 C 31,11.609903 28.919036,9.5200554 26.345703,9.5019531 V 11.376953 C 27.883495,11.394984 29.125,12.645436 29.125,14.1875 v 13.125 c 0,1.553297 -1.259203,2.8125 -2.8125,2.8125 H 5.6875 c -1.5532978,0 -2.8125,-1.259203 -2.8125,-2.8125 v -13.125 c 0,-1.542064 1.2415051,-2.792516 2.7792969,-2.810547 z" />
		<path
		   d="M 10.600264,12.425956 V 13.77589 H 21.399736 V 12.425956 Z M 7,16.940384 v 9.260143 c 0,0.485976 0.185845,0.907144 0.557639,1.264245 C 7.929619,27.821694 8.36971,28 8.875934,28 h 14.248133 c 0.506223,0 0.946314,-0.178306 1.318294,-0.535228 C 24.814154,27.107671 25,26.686503 25,26.200527 v -9.260143 h -1.875933 v 9.260143 H 8.875934 v -9.260143 z m 13.668083,-0.31727 -2.375568,2.390069 -1.195694,-1.195694 -0.717152,0.717153 1.912846,1.912846 3.107221,-3.107222 z m -10.067819,1.799473 v 1.012451 h 4.724769 v -1.012451 z m 6.791856,2.699868 -0.717153,0.717152 1.307749,1.307749 -1.307749,1.307749 0.717153,0.717152 1.307748,-1.307749 1.307749,1.307749 0.717152,-0.717152 -1.307748,-1.307749 1.307748,-1.307749 -0.717152,-0.717152 -1.307749,1.307748 z m -6.791856,1.687417 v 1.012451 h 4.724769 v -1.012451 z" />
	</g>
	
	<g id="book-popup-min">
		<path d="M 5.6542969,9.5019531 C 3.0809647,9.5200554 1,11.609903 1,14.1875 v 13.125 C 1,29.901329 3.0986702,32 5.6875,32 h 20.625 C 28.901329,32 31,29.901329 31,27.3125 V 14.1875 C 31,11.609903 28.919036,9.5200554 26.345703,9.5019531 V 11.376953 C 27.883495,11.394984 29.125,12.645436 29.125,14.1875 v 13.125 c 0,1.553297 -1.259203,2.8125 -2.8125,2.8125 H 5.6875 c -1.5532978,0 -2.8125,-1.259203 -2.8125,-2.8125 v -13.125 c 0,-1.542064 1.2415051,-2.792516 2.7792969,-2.810547 z" />
		<path d="M 10.600264,12.425956 V 13.77589 H 21.399736 V 12.425956 Z M 7,16.940384 v 9.260143 c 0,0.485976 0.185845,0.907144 0.557639,1.264245 C 7.929619,27.821694 8.36971,28 8.875934,28 h 14.248133 c 0.506223,0 0.946314,-0.178306 1.318294,-0.535228 C 24.814154,27.107671 25,26.686503 25,26.200527 v -9.260143 h -1.875933 v 9.260143 H 8.875934 v -9.260143 z m 13.668083,-0.31727 -2.375568,2.390069 -1.195694,-1.195694 -0.717152,0.717153 1.912846,1.912846 3.107221,-3.107222 z m -10.067819,1.799473 v 1.012451 h 4.724769 v -1.012451 z m 6.791856,2.699868 -0.717153,0.717152 1.307749,1.307749 -1.307749,1.307749 0.717153,0.717152 1.307748,-1.307749 1.307749,1.307749 0.717152,-0.717152 -1.307748,-1.307749 1.307748,-1.307749 -0.717152,-0.717152 -1.307749,1.307748 z m -6.791856,1.687417 v 1.012451 h 4.724769 v -1.012451 z" />		
	</g>

	<g id="book-broken">
		<path clip-path="none"
		   style="fill:#000000;fill-opacity:1;stroke-width:1.06727"
		   d="M 8.3339844,2 C 6.4930377,2 5,3.567006 5,5.5 v 21 C 5,28.43298 6.4930377,30 8.3339844,30 H 26 c 0.552266,0 1,-0.470901 1,-1.050781 0,-0.57988 -0.447734,-1.048828 -1,-1.048828 H 8.3339844 C 7.597611,27.900391 7,27.27322 7,26.5 h 19 c 0.552266,0 1,-0.470901 1,-1.050781 V 6.0507812 C 25.837791,5.0146323 25.06797,4.5078869 22.298828,2 Z M 10.333984,6.1992188 H 21 c 0.736398,0 1.333984,0.6271986 1.333984,1.4003906 V 9 c 0,0.773192 -0.597586,1.400391 -1.333984,1.400391 H 10.333984 C 9.5976104,10.400391 9,9.773192 9,9 V 7.5996094 C 9,6.8264174 9.5976104,6.1992187 10.333984,6.1992188 Z" />
		<path style="fill:#ffffff;fill-opacity:1;stroke:#ffffff;stroke-width:0;stroke-miterlimit:4;stroke-dasharray:none;stroke-opacity:1"
		   d="m 20.694854,4.5701722 h 4.469591 V 15.034275 h -4.469591 z" />
		<path
		   d="m 24.241557,13.647363 v -1.842926 c 0,-0.174599 -0.135795,-0.320086 -0.310393,-0.320086 h -1.862328 c -0.174598,0 -0.310394,0.145487 -0.310394,0.320086 v 1.842926 c 0,0.174598 0.135796,0.320086 0.310394,0.320086 h 1.862328 c 0.174598,0 0.310393,-0.145488 0.310393,-0.320086 z m -0.0194,-3.627664 0.174599,-4.4521427 c 0,-0.058204 -0.02909,-0.135795 -0.09699,-0.1842912 -0.0582,-0.048495 -0.145489,-0.106701 -0.232788,-0.106701 H 21.93306 c -0.0873,0 -0.174599,0.058204 -0.232788,0.106701 -0.0679,0.048495 -0.09699,0.1454879 -0.09699,0.203693 l 0.164889,4.4327409 c 0,0.126104 0.145487,0.223094 0.329796,0.223094 h 1.794429 c 0.1746,0 0.320087,-0.09699 0.329795,-0.223094 z M 24.086361,0.96023345 31.535687,14.61733 c 0.213386,0.378291 0.203694,0.843864 -0.0194,1.222156 -0.223094,0.378291 -0.630479,0.611077 -1.066958,0.611077 H 15.550674 c -0.436481,0 -0.843866,-0.232786 -1.06696,-0.611077 -0.223093,-0.378292 -0.232787,-0.843865 -0.0194,-1.222156 L 21.913639,0.96023345 c 0.213384,-0.39769285 0.630478,-0.64988152 1.08636,-0.64988152 0.45588,0 0.872975,0.25218867 1.08636,0.64988152 z"
		   style="fill:#d40000;fill-opacity:1;stroke:#ffffff;stroke-width:0.620704;stroke-miterlimit:4;stroke-dasharray:none;stroke-opacity:1" />
	</g>

	<g id="book-absent">
		<path
		   clip-path="none"
		   style="fill:#483737;fill-opacity:1;stroke-width:1.06727"
		   d="M 8.3339844,2 C 6.4930377,2 5,3.567006 5,5.5 v 21 C 5,28.43298 6.4930377,30 8.3339844,30 H 26 c 0.552266,0 1,-0.470901 1,-1.050781 0,-0.57988 -0.447734,-1.048828 -1,-1.048828 H 8.3339844 C 7.597611,27.900391 7,27.27322 7,26.5 h 19 c 0.552266,0 1,-0.470901 1,-1.050781 V 6.0507812 C 25.837791,5.0146323 25.06797,4.5078869 22.298828,2 Z M 12.621122,6.9988283 21,6.1992188 c 0.733067,-0.069958 1.333984,0.6271986 1.333984,1.4003906 V 9 c 0,0.773192 -0.600917,1.330433 -1.333984,1.400391 l -8.378878,0.79961 c -0.733043,0.06996 -1.333984,-0.627199 -1.333984,-1.4003915 V 8.3992189 c 0,-0.773192 0.600941,-1.3304351 1.333984,-1.4003906 z" />
		<path
		   style="fill:#ffffff;fill-opacity:1;stroke:#ffffff;stroke-width:0"
		   d="M 30.999999,11.999782 A 10.999998,10.999782 0 0 1 20,22.999563 10.999998,10.999782 0 0 1 9,11.999782 10.999998,10.999782 0 0 1 20,1.0000005 10.999998,10.999782 0 0 1 30.999999,11.999782 Z" />
		<path
		   d="m 18.910561,15.920197 q -1.54,0 -2.34,-1.14 -0.8,-1.140001 -0.76,-2.560001 l -0.36,-0.539999 q -0.22,-0.340001 -0.73,-1.540001 -0.51,-1.2 -0.51,-3.0200008 0,-2.0599998 1.02,-3.4300001 1.02,-1.3699991 2.58,-1.3699991 1.700001,0 2.65,1.5099999 0.950001,1.5099999 0.950001,3.2899993 0,1.1599999 -0.320001,2.1399998 -0.32,0.980001 -0.56,1.580001 l 0.160001,0.26 q 0.159999,0.280001 0.439999,0.890001 0.280001,0.61 0.280001,1.27 0,1.139999 -0.710001,1.9 -0.709999,0.76 -1.79,0.76 z m -2.1,-5.120001 2.2,-0.44 q 0.260001,-0.640001 0.53,-1.46 0.27,-0.8200007 0.27,-1.7800008 0,-1.2000001 -0.55,-2.1999991 -0.55,-1.0000003 -1.45,-1.0000003 -0.9,0 -1.45,1.0000003 -0.55,0.999999 -0.55,2.1999991 0,1.2600005 0.35,2.2299998 0.35,0.970001 0.65,1.450001 z m 2.1,3.52 q 0.380001,0 0.64,-0.279999 0.26,-0.28 0.26,-0.78 0,-0.340001 -0.16,-0.7 -0.16,-0.360001 -0.32,-0.64 l -1.92,0.4 q 0,0.8 0.350001,1.399999 0.35,0.6 1.149999,0.6 z m 6.6,5.600001 q -1.08,0 -1.79,-0.76 -0.71,-0.760001 -0.71,-1.9 0,-0.66 0.280001,-1.27 0.279999,-0.61 0.439999,-0.890001 l 0.16,-0.26 q -0.24,-0.599999 -0.56,-1.579999 -0.32,-0.980001 -0.32,-2.140001 0,-1.78 0.95,-3.2900001 0.95,-1.5099999 2.650001,-1.5099999 1.559999,0 2.58,1.3699991 1.019999,1.3699999 1.019999,3.4300009 0,1.82 -0.51,3.010001 -0.509999,1.189999 -0.729999,1.53 l -0.360001,0.559999 q 0.02,1.420001 -0.77,2.560001 -0.789999,1.14 -2.33,1.14 z m 2.1,-5.120001 q 0.3,-0.48 0.65,-1.439999 0.35,-0.96 0.35,-2.240001 0,-1.200001 -0.55,-2.2 -0.549999,-1.0000002 -1.449999,-1.0000002 -0.900001,0 -1.450001,1.0000002 -0.55,0.999999 -0.55,2.2 0,0.96 0.27,1.77 0.270001,0.81 0.530001,1.47 z m -2.1,3.520001 q 0.8,0 1.15,-0.600001 0.35,-0.599999 0.35,-1.399999 l -1.92,-0.4 q -0.159999,0.28 -0.32,0.64 -0.16,0.36 -0.16,0.7 0,0.4 0.250001,0.73 0.249999,0.33 0.649999,0.33 z"
		   style="fill:#483737;stroke-width:0.02" />
	</g>

	<g id="regular">
		<path
		   style="fill:currentColor;fill-opacity:0.3;stroke:none;stroke-width:0;stroke-dasharray:none"
		   d="M 4.973552,14 H 27.026448 V 28.070065 H 4.973552 Z" />
		<path
		   d="M 7.7215914,28.996847 H 24.278407 c 1.524012,3e-6 2.759469,-1.454718 2.759472,-3.249209 V 6.2523627 c 0,-1.7944895 -1.23546,-3.2492127 -2.759472,-3.2492097 H 7.7215914 c -1.5240132,0 -2.7594703,1.4547202 -2.7594703,3.2492097 V 25.747638 c 2.4e-6,1.794491 1.2354571,3.249209 2.7594703,3.249209 z"
		   style="fill:none;stroke:currentColor;stroke-width:2;stroke-miterlimit:4;stroke-dasharray:none" />
		<path
		   style="fill:currentColor;fill-opacity:1"
		   d="M 1,2 H 31 V 14 H 1 Z" />
		<path
		   d="M 4.5631513,8.078594 V 3.109615 H 7.7190376 V 7.383007 H 11.129529 V 3.109615 h 2.547094 l -0.02734,0.111793 c -0.05314,0.217192 -0.984758,4.243166 -1.098127,4.745353 -0.06324,0.280155 -0.102616,0.521446 -0.08749,0.536211 0.01513,0.01477 0.638395,0.109056 1.385055,0.209534 l 1.357564,0.18272 0.20701,-0.236431 c 0.584462,-0.667486 1.57786,-0.678841 2.151484,-0.02461 0.751848,0.857436 0.09896,2.196227 -1.068587,2.191122 -0.414292,-0.0018 -0.746011,-0.150595 -1.057478,-0.474434 l -0.246529,-0.256321 -1.355787,0.187559 c -0.745697,0.103174 -1.367167,0.19871 -1.381121,0.212291 -0.05314,0.05187 0.219668,0.705186 0.438791,1.050754 0.402598,0.634954 0.88779,1.038521 1.597608,1.328764 0.180546,0.07383 0.337807,0.143059 0.34946,0.153863 0.01165,0.01078 -0.818669,0.01961 -1.845205,0.01961 H 11.129529 V 9.370333 H 7.7190386 v 3.677056 H 4.5631513 Z"
		   style="fill:#ffffff" />
		<path
		   d="m 18.537335,13.004482 c 0.02657,-0.02398 0.165274,-0.08059 0.308204,-0.125823 C 20.06373,12.493084 21.002044,11.020832 21.00309,9.493235 21.003717,8.611129 20.731246,7.925201 20.137998,7.315592 19.735149,6.901609 19.306861,6.638038 18.73832,6.454215 18.364677,6.333417 18.259697,6.322246 17.465778,6.318835 c -0.811619,-0.0035 -0.893021,0.0049 -1.311226,0.134686 -0.245232,0.07611 -0.480276,0.151269 -0.522326,0.167015 -0.04937,0.0185 -0.06849,0.0047 -0.05398,-0.03901 0.01234,-0.03721 0.09475,-0.375099 0.183098,-0.750871 l 0.160671,-0.683232 h 4.623263 v -2.04939 l 2.379729,0.02475 c 2.21843,0.02308 2.407343,0.03192 2.786845,0.130356 1.055553,0.273722 1.677149,0.825107 1.995352,1.770011 0.117491,0.348856 0.134374,0.482602 0.138077,1.093151 0.0032,0.519301 -0.01849,0.777543 -0.0854,1.01863 -0.291384,1.049814 -1.066997,1.785777 -2.175334,2.064093 -0.407535,0.102317 -1.372041,0.167015 -2.532449,0.169854 l -0.878062,0.0021 v 3.677057 h -1.842653 c -1.059089,0 -1.822087,-0.01852 -1.794284,-0.04358 z m 5.47348,-5.751158 C 24.365672,7.150457 24.684148,6.850615 24.770299,6.538295 24.932037,5.951906 24.597139,5.358859 24.012656,5.196644 23.911379,5.168544 23.456292,5.131274 23.00135,5.113814 l -0.827162,-0.03172 v 2.31672 l 0.78076,-0.03288 c 0.471825,-0.01985 0.889653,-0.06441 1.055846,-0.112588 z"
		   style="fill:#ffffff" />
	</g>

	<g id="regular-opened">
		<path style="fill:currentColor;"
		   d="M 1 0 L 1 20 L 1 32 L 3 32 L 29 32 L 31 32 L 31 20 L 31 0 L 30 0 L 29 0 L 3 0 L 2.5 0 L 2 0 L 1 0 z M 3 1 L 29 1 L 29 1.4238281 L 29 20 L 3 20 L 3 1.4238281 L 3 1 z M 22 2 C 20.61667 2 19.437888 2.4878936 18.462891 3.4628906 C 17.487894 4.4378878 17 5.6166709 17 7 C 17 8.3833291 17.487894 9.562113 18.462891 10.537109 C 19.437888 11.512106 20.61667 12 22 12 C 23.38333 12 24.562112 11.512106 25.537109 10.537109 C 26.512106 9.5621129 27 8.3833291 27 7 C 27 5.6166709 26.512106 4.4378878 25.537109 3.4628906 C 24.562112 2.4878936 23.38333 2 22 2 z M 24.125 5 L 24.824219 5.6992188 L 21.300781 9.25 L 19.175781 7.125 L 19.875 6.4003906 L 21.300781 7.8242188 L 24.125 5 z M 7 8 L 7 10 L 14.25 10 C 14.033333 9.7000009 13.849219 9.3841136 13.699219 9.0507812 C 13.549219 8.7174491 13.417448 8.3666655 13.300781 8 L 7 8 z M 7 12 L 7 14 L 19 14 L 19 12.925781 C 18.516667 12.859114 18.058333 12.746221 17.625 12.587891 C 17.191667 12.429558 16.783721 12.233333 16.400391 12 L 7 12 z M 7 16 L 7 18 L 19 18 L 19 16 L 7 16 z M 20.544922 21.097656 L 22.925781 21.123047 C 25.144205 21.146127 25.331436 21.155467 25.710938 21.253906 C 26.766485 21.527628 27.388831 22.078534 27.707031 23.023438 C 27.824522 23.372291 27.842 23.506639 27.845703 24.117188 C 27.848903 24.636486 27.826676 24.893679 27.759766 25.134766 C 27.468382 26.184577 26.692318 26.920903 25.583984 27.199219 C 25.176452 27.301536 24.213139 27.366302 23.052734 27.369141 L 22.173828 27.371094 L 22.173828 31.048828 L 20.332031 31.048828 C 19.272945 31.048828 18.509306 31.028966 18.537109 31.003906 C 18.563679 30.979926 18.702773 30.924136 18.845703 30.878906 C 20.063891 30.493334 21.00286 29.021732 21.003906 27.494141 C 21.004533 26.612038 20.731917 25.926015 20.138672 25.316406 C 19.735823 24.902426 19.306822 24.638901 18.738281 24.455078 C 18.364641 24.33428 18.25876 24.32177 17.464844 24.318359 C 16.653228 24.314859 16.572499 24.323359 16.154297 24.453125 C 15.909065 24.529235 15.674862 24.605348 15.632812 24.621094 C 15.583443 24.639594 15.563615 24.625691 15.578125 24.582031 C 15.590465 24.544821 15.673375 24.20585 15.761719 23.830078 L 15.921875 23.146484 L 20.544922 23.146484 L 20.544922 21.097656 z M 4.5625 21.109375 L 7.71875 21.109375 L 7.71875 25.382812 L 11.128906 25.382812 L 11.128906 21.109375 L 13.675781 21.109375 L 13.648438 21.220703 C 13.595298 21.437895 12.66415 25.46461 12.550781 25.966797 C 12.487541 26.246952 12.447765 26.489141 12.462891 26.503906 C 12.478021 26.518676 13.102952 26.612413 13.849609 26.712891 L 15.207031 26.894531 L 15.414062 26.658203 C 15.998524 25.99072 16.990832 25.980538 17.564453 26.634766 C 18.316298 27.492199 17.663642 28.831277 16.496094 28.826172 C 16.081802 28.824372 15.75092 28.675401 15.439453 28.351562 L 15.191406 28.09375 L 13.835938 28.28125 C 13.090241 28.384424 12.469032 28.48056 12.455078 28.494141 C 12.401938 28.546011 12.675408 29.199354 12.894531 29.544922 C 13.297129 30.179873 13.78237 30.582804 14.492188 30.873047 C 14.672731 30.946877 14.830144 31.01654 14.841797 31.027344 C 14.853447 31.038124 14.022627 31.046875 12.996094 31.046875 L 11.128906 31.046875 L 11.128906 27.371094 L 7.71875 27.371094 L 7.71875 31.046875 L 4.5625 31.046875 L 4.5625 26.078125 L 4.5625 21.109375 z M 22.173828 23.082031 L 22.173828 25.398438 L 22.955078 25.365234 C 23.426903 25.345384 23.845526 25.302084 24.011719 25.253906 C 24.366573 25.151039 24.68338 24.851382 24.769531 24.539062 C 24.931269 23.952676 24.596199 23.359478 24.011719 23.197266 C 23.910442 23.169166 23.456895 23.130741 23.001953 23.113281 L 22.173828 23.082031 z " />
	</g>
	
	<g id="regular-popup">
		<g>
			<path
			   style="fill:currentColor;fill-opacity:0.3;stroke:none;stroke-width:0;stroke-dasharray:none"
			   d="M 8.6490346,8.0000001 H 23.350965 V 18.380043 H 8.6490346 Z" />
			<path
			   d="m 10.481061,18.997898 h 11.037877 c 1.016008,2e-6 1.839646,-0.969812 1.839648,-2.166139 V 2.8349085 c 0,-1.1963263 -0.82364,-2.16614179 -1.839648,-2.16613979 H 10.481061 c -1.0160089,0 -1.839647,0.96981349 -1.839647,2.16613979 V 16.831759 c 1.6e-6,1.196327 0.8236381,2.166139 1.839647,2.166139 z"
			   style="fill:none;stroke:currentColor;stroke-width:1.33333;stroke-miterlimit:4;stroke-dasharray:none" />
			<path d="M 6,4e-8 H 26 V 8.0000001 H 6 Z" />
			<path
			   d="M 8.3754342,4.0523961 V 0.73974338 H 10.479358 V 3.5886714 h 2.273661 V 0.73974338 h 1.698063 l -0.01823,0.0745287 c -0.03543,0.14479467 -0.656505,2.82877732 -0.732084,3.16356862 -0.04216,0.18677 -0.06841,0.3476307 -0.05833,0.357474 0.01009,0.00985 0.425597,0.072704 0.92337,0.1396894 l 0.905043,0.1218133 0.138006,-0.1576207 c 0.389642,-0.4449906 1.051907,-0.4525606 1.434323,-0.016407 0.501232,0.571624 0.06597,1.4641513 -0.712391,1.460748 -0.276189,-0.0012 -0.497335,-0.1003963 -0.70498,-0.316289 L 15.461457,5.3963681 14.557599,5.5214074 c -0.497132,0.068783 -0.911445,0.1324733 -0.920748,0.1415273 -0.03543,0.03458 0.146446,0.470124 0.292528,0.7005027 0.268398,0.4233027 0.59186,0.6923473 1.065072,0.8858427 0.120364,0.04922 0.225204,0.095373 0.232973,0.1025753 0.0078,0.00719 -0.545779,0.013073 -1.230137,0.013073 h -1.244268 v -2.451373 h -2.27366 V 7.3649261 H 8.3754342 Z"
			   style="fill:#ffffff;stroke-width:1" />
			<path
			   d="m 17.691557,7.3363214 c 0.01771,-0.015987 0.110182,-0.053727 0.205469,-0.083882 0.812127,-0.25705 1.43767,-1.2385513 1.438367,-2.2569493 4.18e-4,-0.5880707 -0.181229,-1.045356 -0.576728,-1.451762 -0.268566,-0.2759887 -0.554091,-0.4517027 -0.933118,-0.5742514 -0.249096,-0.080532 -0.319082,-0.087979 -0.848362,-0.090253 -0.541079,-0.00233 -0.595347,0.00327 -0.87415,0.089791 -0.163488,0.05074 -0.320184,0.100846 -0.348218,0.1113433 -0.03291,0.012333 -0.04566,0.00313 -0.03599,-0.026007 0.0082,-0.024807 0.06317,-0.250066 0.122065,-0.5005806 l 0.107114,-0.455488 h 3.082175 V 0.73202204 l 1.586486,0.0165 c 1.478954,0.0153867 1.604896,0.02128 1.857897,0.086904 0.703702,0.18248136 1.118099,0.55007136 1.330235,1.18000736 0.07833,0.2325707 0.08958,0.3217347 0.09205,0.7287673 0.0021,0.3462007 -0.01233,0.518362 -0.05693,0.6790867 -0.194256,0.699876 -0.711332,1.190518 -1.450223,1.376062 -0.27169,0.068211 -0.914694,0.1113433 -1.688299,0.113236 l -0.585375,0.0014 v 2.4513713 h -1.228435 c -0.70606,0 -1.214725,-0.012347 -1.19619,-0.029053 z m 3.648986,-3.8341053 c 0.236572,-0.068578 0.448889,-0.2684727 0.506323,-0.476686 0.107825,-0.390926 -0.11544,-0.7862907 -0.505095,-0.894434 -0.06752,-0.018733 -0.37091,-0.04358 -0.674204,-0.05522 l -0.551442,-0.021147 v 1.54448 l 0.520507,-0.02192 c 0.31455,-0.013233 0.593102,-0.04294 0.703897,-0.075059 z"
			   style="fill:#ffffff;stroke-width:1" />
		</g>
		<path
		   style="stroke-width:2"
		   d="M 5.6542969,9.5019535 C 3.0809622,9.5200535 1,11.6099 1,14.1875 v 13.125 C 1,29.901332 3.0986676,32 5.6875,32 h 20.625 C 28.901332,32 31,29.901332 31,27.3125 V 14.1875 C 31,11.6099 28.919038,9.5200555 26.345703,9.5019535 V 11.376953 C 27.883496,11.394983 29.125,12.645434 29.125,14.1875 v 13.125 c 0,1.553299 -1.259201,2.8125 -2.8125,2.8125 H 5.6875 c -1.5532994,0 -2.8125,-1.259201 -2.8125,-2.8125 v -13.125 c 0,-1.542066 1.2415036,-2.792515 2.7792969,-2.810547 z" />			
	</g>
	
	<g id="regular-popup-opened">
		<path style="stroke-width:2"
			 d="M 5.6542969,9.5019535 C 3.0809622,9.5200535 1,11.6099 1,14.1875 v 13.125 C 1,29.901332 3.0986676,32 5.6875,32 h 20.625 C 28.901332,32 31,29.901332 31,27.3125 V 14.1875 C 31,11.6099 28.919038,9.5200555 26.345703,9.5019535 V 11.376953 C 27.883496,11.394983 29.125,12.645434 29.125,14.1875 v 13.125 c 0,1.553299 -1.259201,2.8125 -2.8125,2.8125 H 5.6875 c -1.5532994,0 -2.8125,-1.259201 -2.8125,-2.8125 v -13.125 c 0,-1.542066 1.2415036,-2.792515 2.7792969,-2.810547 z" />
		<path style="fill:currentColor;stroke-width:1"
		   d="m 7,0 v 12 7.2 H 8.2 23.8 25 V 12 0 H 24.4 23.8 8.2 7.9 7.6 Z M 8.2,0.6000003 H 23.8 V 0.8542971 12 H 8.2 V 0.8542971 Z m 11.4,0.5999994 c -0.829998,0 -1.537268,0.2927367 -2.122266,0.8777349 C 16.892736,2.6627327 16.6,3.3700026 16.6,4.2 c 0,0.8299975 0.292736,1.5372678 0.877734,2.1222654 C 18.062732,6.9072636 18.770002,7.2 19.6,7.2 20.429998,7.2 21.137267,6.9072636 21.722266,6.3222654 22.307264,5.7372677 22.6,5.0299975 22.6,4.2 22.6,3.3700026 22.307264,2.6627327 21.722266,2.0777346 21.137267,1.4927364 20.429998,1.1999997 19.6,1.1999997 Z M 20.875,3 21.294532,3.4195313 19.180469,5.55 17.905468,4.275 18.325,3.8402344 19.180469,4.6945313 Z M 10.6,4.8 V 6 h 4.35 C 14.82,5.8200006 14.709531,5.6304681 14.619531,5.4304687 14.529531,5.2304694 14.450469,5.0199993 14.380469,4.8 Z m 0,2.4 v 1.2 h 7.2 V 7.7554686 C 17.51,7.7154666 17.235,7.6477326 16.975,7.5527346 16.715001,7.4577346 16.470233,7.3399998 16.240234,7.2 Z m 0,2.4 v 1.2 h 7.2 V 9.6 Z m 8.126953,3.058594 1.428515,0.01523 c 1.331055,0.01385 1.443393,0.01945 1.671095,0.07851 0.633328,0.164233 1.006736,0.494777 1.197655,1.061719 0.0705,0.209312 0.08098,0.289921 0.0832,0.65625 0.0019,0.311579 -0.01142,0.465894 -0.05156,0.610547 -0.17483,0.629887 -0.640469,1.071682 -1.305469,1.238672 -0.244519,0.06139 -0.822507,0.10025 -1.51875,0.101953 l -0.527344,0.0012 v 2.20664 h -1.105077 c -0.635453,0 -1.093635,-0.01192 -1.076954,-0.02695 0.01594,-0.01439 0.0994,-0.04786 0.185156,-0.075 0.730914,-0.231343 1.294295,-1.114304 1.294922,-2.030859 3.76e-4,-0.529262 -0.163193,-0.940875 -0.51914,-1.30664 -0.241709,-0.248389 -0.49911,-0.406503 -0.840234,-0.516797 -0.224185,-0.07248 -0.287713,-0.07998 -0.764063,-0.08204 -0.48697,-0.0021 -0.535407,0.003 -0.786328,0.08086 -0.147139,0.04567 -0.287661,0.09133 -0.312891,0.100781 -0.02962,0.0111 -0.04152,0.0028 -0.03281,-0.02344 0.0074,-0.02233 0.05715,-0.225709 0.110156,-0.451172 l 0.09609,-0.410156 h 2.773828 z m -9.589453,0.007 h 1.89375 v 2.564061 h 2.046094 v -2.564062 h 1.528125 l -0.01641,0.0668 c -0.03189,0.130315 -0.590573,2.546344 -0.658594,2.847656 -0.03794,0.168093 -0.06181,0.313406 -0.05273,0.322265 0.0091,0.0089 0.384037,0.06511 0.832031,0.125392 l 0.814453,0.108983 0.124219,-0.141796 c 0.350677,-0.40049 0.946062,-0.4066 1.290235,-0.01407 0.451107,0.514459 0.05952,1.317907 -0.641016,1.314843 -0.248575,-0.0011 -0.447104,-0.09046 -0.633984,-0.284765 l -0.148829,-0.154688 -0.81328,0.1125 c -0.447418,0.0619 -0.820144,0.119586 -0.828516,0.127734 -0.03189,0.03112 0.132197,0.423128 0.263671,0.630469 0.241559,0.380971 0.532704,0.622729 0.958594,0.796876 0.108326,0.0443 0.202774,0.08609 0.209766,0.09258 0.007,0.0065 -0.491502,0.01172 -1.107422,0.01172 h -1.120314 v -2.205463 h -2.046094 v 2.205469 h -1.89375 v -2.98125 z m 10.566796,1.183593 v 1.389847 l 0.468751,-0.01992 c 0.283095,-0.01191 0.534269,-0.03789 0.633984,-0.0668 0.212912,-0.06172 0.402997,-0.241514 0.454688,-0.428907 0.09704,-0.351831 -0.104,-0.70775 -0.454688,-0.805077 -0.06077,-0.01686 -0.332894,-0.03992 -0.605859,-0.05039 z" />		
	</g>
	

	<g id="regular-min">
		<path
			 d="M 5.6542969,9.5019535 C 3.0809622,9.5200535 1,11.6099 1,14.1875 v 13.125 C 1,29.901332 3.0986676,32 5.6875,32 h 20.625 C 28.901332,32 31,29.901332 31,27.3125 V 14.1875 C 31,11.6099 28.919038,9.5200555 26.345703,9.5019535 V 11.376953 C 27.883496,11.394983 29.125,12.645434 29.125,14.1875 v 13.125 c 0,1.553299 -1.259201,2.8125 -2.8125,2.8125 H 5.6875 c -1.5532994,0 -2.8125,-1.259201 -2.8125,-2.8125 v -13.125 c 0,-1.542066 1.2415036,-2.792515 2.7792969,-2.810547 z" />
		<path
		   d="m 11.2,13.6 v 1.2 h 9.6 V 13.6 Z M 7,17.2 V 20.8 28 H 8.2 23.8 25 v -7.2 -3.6 h -1.2 v 3.6 H 8.2 v -3.6 z m 11.726953,4.258594 1.428515,0.01524 c 1.331059,0.01385 1.443393,0.01945 1.671095,0.07852 0.633331,0.164233 1.006734,0.494776 1.197655,1.061719 0.0705,0.209314 0.08098,0.28992 0.0832,0.65625 0.0019,0.31158 -0.01142,0.465894 -0.05156,0.610547 -0.17483,0.629888 -0.640467,1.071682 -1.305469,1.238671 -0.244521,0.06139 -0.822505,0.10025 -1.51875,0.101953 l -0.527344,0.0012 v 2.20664 h -1.105077 c -0.635454,0 -1.093635,-0.01192 -1.076954,-0.02696 0.01594,-0.01439 0.0994,-0.04786 0.185156,-0.075 0.730915,-0.231345 1.294295,-1.114301 1.294922,-2.030859 3.76e-4,-0.529263 -0.163192,-0.940875 -0.51914,-1.306641 -0.241709,-0.24839 -0.49911,-0.406503 -0.840234,-0.516797 -0.224187,-0.07248 -0.287712,-0.07998 -0.764063,-0.08204 -0.486972,-0.0021 -0.535405,0.003 -0.786328,0.08086 -0.147139,0.04567 -0.287661,0.09133 -0.312891,0.100782 -0.02962,0.0111 -0.04152,0.0028 -0.03281,-0.02344 0.0074,-0.02233 0.05715,-0.225709 0.110156,-0.451171 l 0.09609,-0.410123 h 2.773828 z m -9.589453,0.007 h 1.89375 v 2.564062 h 2.046094 v -2.564042 h 1.528125 l -0.01641,0.0668 c -0.03189,0.130315 -0.590573,2.546343 -0.658594,2.847656 -0.03794,0.168093 -0.06181,0.313406 -0.05273,0.322265 0.0091,0.0088 0.384035,0.06511 0.832031,0.125392 l 0.814453,0.108983 0.124219,-0.141796 c 0.350678,-0.400492 0.94606,-0.406602 1.290235,-0.01407 0.451109,0.514461 0.05952,1.317906 -0.641016,1.314844 -0.248575,-0.0011 -0.447104,-0.09046 -0.633985,-0.284767 l -0.148828,-0.154687 -0.813281,0.1125 c -0.447417,0.0619 -0.820143,0.119587 -0.828515,0.127735 -0.03189,0.03112 0.132197,0.423128 0.263671,0.630468 0.241559,0.380973 0.532704,0.62273 0.958594,0.796875 0.108327,0.0443 0.202774,0.08609 0.209766,0.09258 0.007,0.0065 -0.491501,0.01172 -1.107422,0.01172 h -1.120313 v -2.205468 h -2.046093 v 2.205468 h -1.89375 v -2.98125 z m 10.566797,1.183593 v 1.389845 l 0.46875,-0.01992 c 0.283095,-0.01191 0.534269,-0.03789 0.633984,-0.0668 0.212914,-0.06172 0.402997,-0.241514 0.454688,-0.428907 0.09704,-0.351833 -0.103998,-0.707748 -0.454688,-0.805078 -0.06077,-0.01686 -0.332894,-0.03992 -0.605859,-0.05039 z" />		
	</g>
	
	<g id="regular-popup-min">
		<path d="M 5.6542969,9.5019535 C 3.0809622,9.5200535 1,11.6099 1,14.1875 v 13.125 C 1,29.901332 3.0986676,32 5.6875,32 h 20.625 C 28.901332,32 31,29.901332 31,27.3125 V 14.1875 C 31,11.6099 28.919038,9.5200555 26.345703,9.5019535 V 11.376953 C 27.883496,11.394983 29.125,12.645434 29.125,14.1875 v 13.125 c 0,1.553299 -1.259201,2.8125 -2.8125,2.8125 H 5.6875 c -1.5532994,0 -2.8125,-1.259201 -2.8125,-2.8125 v -13.125 c 0,-1.542066 1.2415036,-2.792515 2.7792969,-2.810547 z" />
		<path d="m 11.2,13.6 v 1.2 h 9.6 V 13.6 Z M 7,17.2 V 20.8 28 H 8.2 23.8 25 v -7.2 -3.6 h -1.2 v 3.6 H 8.2 v -3.6 z m 11.726953,4.258594 1.428515,0.01524 c 1.331059,0.01385 1.443393,0.01945 1.671095,0.07852 0.633331,0.164233 1.006734,0.494776 1.197655,1.061719 0.0705,0.209314 0.08098,0.28992 0.0832,0.65625 0.0019,0.31158 -0.01142,0.465894 -0.05156,0.610547 -0.17483,0.629888 -0.640467,1.071682 -1.305469,1.238671 -0.244521,0.06139 -0.822505,0.10025 -1.51875,0.101953 l -0.527344,0.0012 v 2.20664 h -1.105077 c -0.635454,0 -1.093635,-0.01192 -1.076954,-0.02696 0.01594,-0.01439 0.0994,-0.04786 0.185156,-0.075 0.730915,-0.231345 1.294295,-1.114301 1.294922,-2.030859 3.76e-4,-0.529263 -0.163192,-0.940875 -0.51914,-1.306641 -0.241709,-0.24839 -0.49911,-0.406503 -0.840234,-0.516797 -0.224187,-0.07248 -0.287712,-0.07998 -0.764063,-0.08204 -0.486972,-0.0021 -0.535405,0.003 -0.786328,0.08086 -0.147139,0.04567 -0.287661,0.09133 -0.312891,0.100782 -0.02962,0.0111 -0.04152,0.0028 -0.03281,-0.02344 0.0074,-0.02233 0.05715,-0.225709 0.110156,-0.451171 l 0.09609,-0.410123 h 2.773828 z m -9.589453,0.007 h 1.89375 v 2.564062 h 2.046094 v -2.564042 h 1.528125 l -0.01641,0.0668 c -0.03189,0.130315 -0.590573,2.546343 -0.658594,2.847656 -0.03794,0.168093 -0.06181,0.313406 -0.05273,0.322265 0.0091,0.0088 0.384035,0.06511 0.832031,0.125392 l 0.814453,0.108983 0.124219,-0.141796 c 0.350678,-0.400492 0.94606,-0.406602 1.290235,-0.01407 0.451109,0.514461 0.05952,1.317906 -0.641016,1.314844 -0.248575,-0.0011 -0.447104,-0.09046 -0.633985,-0.284767 l -0.148828,-0.154687 -0.813281,0.1125 c -0.447417,0.0619 -0.820143,0.119587 -0.828515,0.127735 -0.03189,0.03112 0.132197,0.423128 0.263671,0.630468 0.241559,0.380973 0.532704,0.62273 0.958594,0.796875 0.108327,0.0443 0.202774,0.08609 0.209766,0.09258 0.007,0.0065 -0.491501,0.01172 -1.107422,0.01172 h -1.120313 v -2.205468 h -2.046093 v 2.205468 h -1.89375 v -2.98125 z m 10.566797,1.183593 v 1.389845 l 0.46875,-0.01992 c 0.283095,-0.01191 0.534269,-0.03789 0.633984,-0.0668 0.212914,-0.06172 0.402997,-0.241514 0.454688,-0.428907 0.09704,-0.351833 -0.103998,-0.707748 -0.454688,-0.805078 -0.06077,-0.01686 -0.332894,-0.03992 -0.605859,-0.05039 z" />
	</g>
	

	<g id="regular-broken">
		<path
		   style="fill:none;stroke:currentColor;stroke-width:2;stroke-miterlimit:4;stroke-dasharray:none;stroke-opacity:1"
		   d="M 7.75,3 C 6.2312168,3 5,4.455075 5,6.25 v 19.5 c 2.4e-6,1.794926 1.2312168,3.25 2.75,3.25 h 16.5 c 1.518781,3e-6 2.749997,-1.455074 2.75,-3.25 V 8.4257812 L 22.541016,3 Z" />
		<path
		   style="fill:#ffffff;fill-opacity:1;stroke:#ffffff;stroke-width:0;stroke-miterlimit:4;stroke-dasharray:none;stroke-opacity:1"
		   d="m 20.694854,4.5701722 h 4.469591 V 15.034275 h -4.469591 z" />
		<path
		   d="m 24.241557,13.647363 v -1.842926 c 0,-0.174599 -0.135795,-0.320086 -0.310393,-0.320086 h -1.862328 c -0.174598,0 -0.310394,0.145487 -0.310394,0.320086 v 1.842926 c 0,0.174598 0.135796,0.320086 0.310394,0.320086 h 1.862328 c 0.174598,0 0.310393,-0.145488 0.310393,-0.320086 z m -0.0194,-3.627664 0.174599,-4.4521427 c 0,-0.058204 -0.02909,-0.135795 -0.09699,-0.1842912 -0.0582,-0.048495 -0.145489,-0.106701 -0.232788,-0.106701 H 21.93306 c -0.0873,0 -0.174599,0.058204 -0.232788,0.106701 -0.0679,0.048495 -0.09699,0.1454879 -0.09699,0.203693 l 0.164889,4.4327409 c 0,0.126104 0.145487,0.223094 0.329796,0.223094 h 1.794429 c 0.1746,0 0.320087,-0.09699 0.329795,-0.223094 z M 24.086361,0.96023345 31.535687,14.61733 c 0.213386,0.378291 0.203694,0.843864 -0.0194,1.222156 -0.223094,0.378291 -0.630479,0.611077 -1.066958,0.611077 H 15.550674 c -0.436481,0 -0.843866,-0.232786 -1.06696,-0.611077 -0.223093,-0.378292 -0.232787,-0.843865 -0.0194,-1.222156 L 21.913639,0.96023345 c 0.213384,-0.39769285 0.630478,-0.64988152 1.08636,-0.64988152 0.45588,0 0.872975,0.25218867 1.08636,0.64988152 z"
		   style="fill:#d40000;fill-opacity:1;stroke:#ffffff;stroke-width:0.620704;stroke-miterlimit:4;stroke-dasharray:none;stroke-opacity:1" />
	</g>

	<g id="regular-absent">
		<path
		   d="M 6.7500008,30 H 23.249998 c 1.518781,3e-6 2.749999,-1.455071 2.750002,-3.249997 V 7.249998 C 26,5.455073 24.768779,3.999997 23.249998,4 H 6.7500008 C 5.2312176,4 4.0000003,5.455073 4.0000003,7.249998 V 26.750003 C 4.0000027,28.544929 5.2312176,30 6.7500008,30 Z"
		   style="fill:none;stroke:#483737;stroke-width:2;stroke-miterlimit:4;stroke-dasharray:none;stroke-opacity:1" />
		<path
		   d="m 17.537335,22.004482 c 0.02657,-0.02398 0.165274,-0.08059 0.308204,-0.125823 1.218191,-0.385575 2.156505,-1.857827 2.157551,-3.385424 6.27e-4,-0.882106 -0.271844,-1.568034 -0.865092,-2.177643 -0.402849,-0.413983 -0.831137,-0.677554 -1.399678,-0.861377 -0.373643,-0.120798 -0.478623,-0.131969 -1.272542,-0.13538 -0.811619,-0.0035 -0.893021,0.0049 -1.311226,0.134686 -0.245232,0.07611 -0.480276,0.151269 -0.522326,0.167015 -0.04937,0.0185 -0.06849,0.0047 -0.05398,-0.03901 0.01234,-0.03721 0.09475,-0.375099 0.183098,-0.750871 l 0.160671,-0.683232 h 4.623263 v -2.04939 l 2.379729,0.02475 c 2.21843,0.02308 2.407343,0.03192 2.786845,0.130356 1.055553,0.273722 1.677149,0.825107 1.995352,1.770011 0.117491,0.348856 0.134374,0.482602 0.138077,1.093151 0.0032,0.519301 -0.01849,0.777543 -0.0854,1.01863 -0.291384,1.049814 -1.066997,1.785777 -2.175334,2.064093 -0.407535,0.102317 -1.372041,0.167015 -2.532449,0.169854 l -0.878062,0.0021 v 3.677057 h -1.842653 c -1.059089,0 -1.822087,-0.01852 -1.794284,-0.04358 z m 5.47348,-5.751158 c 0.354857,-0.102867 0.673333,-0.402709 0.759484,-0.715029 0.161738,-0.586389 -0.17316,-1.179436 -0.757643,-1.341651 -0.101277,-0.0281 -0.556364,-0.06537 -1.011306,-0.08283 l -0.827162,-0.03172 v 2.31672 l 0.78076,-0.03288 c 0.471825,-0.01985 0.889653,-0.06441 1.055846,-0.112588 z"
		   style="fill:#ffffff" />
		<path
		   style="fill:#ffffff;fill-opacity:1;stroke:#ffffff;stroke-width:0"
		   d="M 30.999999,11.999784 A 11,10.999783 0 0 1 20,22.999567 11,10.999783 0 0 1 9.0000001,11.999784 11,10.999783 0 0 1 20,1.0000005 11,10.999783 0 0 1 30.999999,11.999784 Z" />
		<path
		   d="m 18.805278,15.458033 q -1.54,0 -2.34,-1.14 -0.8,-1.140001 -0.76,-2.560001 l -0.36,-0.539999 q -0.22,-0.340001 -0.73,-1.540001 -0.51,-1.2 -0.51,-3.0200013 0,-2.0599987 1.02,-3.43 1.02,-1.3699987 2.58,-1.3699987 1.700001,0 2.65,1.51 0.950001,1.51 0.950001,3.2899987 0,1.16 -0.320001,2.1400003 -0.32,0.980002 -0.56,1.580001 l 0.160001,0.26 q 0.159999,0.280001 0.439999,0.890001 0.280001,0.61 0.280001,1.27 0,1.139999 -0.710001,1.9 -0.709999,0.76 -1.79,0.76 z m -2.1,-5.120001 2.2,-0.44 q 0.260001,-0.640001 0.53,-1.46 0.27,-0.8200013 0.27,-1.7800013 0,-1.2 -0.55,-2.1999987 -0.55,-1 -1.45,-1 -0.9,0 -1.45,1 -0.55,0.9999987 -0.55,2.1999987 0,1.2600013 0.35,2.2300003 0.35,0.970001 0.65,1.450001 z m 2.1,3.52 q 0.380001,0 0.64,-0.279999 0.26,-0.28 0.26,-0.78 0,-0.340001 -0.16,-0.7 -0.16,-0.360001 -0.32,-0.64 l -1.92,0.4 q 0,0.8 0.350001,1.399999 0.35,0.6 1.149999,0.6 z m 6.6,5.600001 q -1.08,0 -1.79,-0.76 -0.71,-0.760001 -0.71,-1.9 0,-0.66 0.280001,-1.27 0.279999,-0.61 0.439999,-0.890001 l 0.16,-0.26 q -0.24,-0.599999 -0.56,-1.579999 -0.32,-0.980001 -0.32,-2.140001 0,-1.78 0.95,-3.29 0.95,-1.51 2.650001,-1.51 1.559999,0 2.58,1.3699987 1.019999,1.3700013 1.019999,3.4300013 0,1.82 -0.51,3.010001 -0.509999,1.189999 -0.729999,1.53 l -0.360001,0.559999 q 0.02,1.420001 -0.77,2.560001 -0.789999,1.14 -2.33,1.14 z m 2.1,-5.120001 q 0.3,-0.48 0.65,-1.439999 0.35,-0.96 0.35,-2.240001 0,-1.200001 -0.55,-2.2 -0.549999,-1 -1.449999,-1 -0.900001,0 -1.450001,1 -0.55,0.999999 -0.55,2.2 0,0.96 0.27,1.77 0.270001,0.81 0.530001,1.47 z m -2.1,3.520001 q 0.8,0 1.15,-0.600001 0.35,-0.599999 0.35,-1.399999 l -1.92,-0.4 q -0.159999,0.28 -0.32,0.64 -0.16,0.36 -0.16,0.7 0,0.4 0.250001,0.73 0.249999,0.33 0.649999,0.33 z"
		   style="fill:#483737;stroke-width:0.02" />
	</g>


	<g id="delete">
		<path d="M13.5 6.5V7H18.5V6.5C18.5 5.11929 17.3807 4 16 4C14.6193 4 13.5 5.11929 13.5 6.5ZM11.5 7V6.5C11.5 4.01472 13.5147 2 16 2C18.4853 2 20.5 4.01472 20.5 6.5V7H28C28.5523 7 29 7.44772 29 8C29 8.55228 28.5523 9 28 9H26.4922L24.5988 25.5677C24.3102 28.0931 22.1729 30 19.6311 30H12.3689C9.82714 30 7.68984 28.0931 7.40123 25.5677L5.50778 9H4C3.44772 9 3 8.55228 3 8C3 7.44772 3.44772 7 4 7H11.5ZM14 13.5C14 12.9477 13.5523 12.5 13 12.5C12.4477 12.5 12 12.9477 12 13.5V23.5C12 24.0523 12.4477 24.5 13 24.5C13.5523 24.5 14 24.0523 14 23.5V13.5ZM19 12.5C18.4477 12.5 18 12.9477 18 13.5V23.5C18 24.0523 18.4477 24.5 19 24.5C19.5523 24.5 20 24.0523 20 23.5V13.5C20 12.9477 19.5523 12.5 19 12.5Z" />
	</g>

	<g id="install">
		<path d="M 6.8183594 0 C 5.8142084 0 5 0.83946758 5 1.875 L 5 13.125 C 5 14.160526 5.8142084 15 6.8183594 15 L 16.455078 15 C 16.756315 15 17 14.74815 17 14.4375 C 17 14.12685 16.756315 13.875 16.455078 13.875 L 6.8183594 13.875 C 6.4167014 13.875 6.0917969 13.539226 6.0917969 13.125 L 16.455078 13.125 C 16.756315 13.125 17 12.87315 17 12.5625 L 17 1.875 C 17 0.83946758 16.185786 1.4802974e-16 15.181641 0 L 6.8183594 0 z M 7.9082031 2.25 L 13.726562 2.25 C 14.128236 2.25 14.455078 2.58579 14.455078 3 L 14.455078 3.75 C 14.455078 4.16421 14.128236 4.5 13.726562 4.5 L 7.9082031 4.5 C 7.5065451 4.5 7.1816406 4.16421 7.1816406 3.75 L 7.1816406 3 C 7.1816406 2.58579 7.5065451 2.25 7.9082031 2.25 z M 21.699219 8.2011719 C 21.312573 8.2011719 21 8.5138066 21 8.9003906 L 21 15 L 19.701172 15 C 19.101081 15 18.778617 15.705021 19.171875 16.158203 L 22.470703 19.960938 C 22.749855 20.282616 23.250184 20.282616 23.529297 19.960938 L 26.828125 16.158203 C 27.221372 15.705021 26.89894 15 26.298828 15 L 25 15 L 25 8.9003906 C 25 8.5138066 24.687427 8.2011719 24.300781 8.2011719 L 21.699219 8.2011719 z M 4.9140625 22 C 3.3000972 22 2 23.300097 2 24.914062 L 2 29.085938 C 2 30.699903 3.3000972 32 4.9140625 32 L 27.085938 32 C 28.699903 32 30 30.699903 30 29.085938 L 30 24.914062 C 30 23.300097 28.699903 22 27.085938 22 L 4.9140625 22 z M 24.048828 25.056641 A 2 2 0 0 1 26.048828 27.056641 A 2 2 0 0 1 24.048828 29.056641 A 2 2 0 0 1 22.048828 27.056641 A 2 2 0 0 1 24.048828 25.056641 z M 16.945312 25.085938 A 2 2 0 0 1 18.945312 27.085938 A 2 2 0 0 1 16.945312 29.085938 A 2 2 0 0 1 14.945312 27.085938 A 2 2 0 0 1 16.945312 25.085938 z" />
	</g>

	<g id="open-book">
		<path d="m 8.100684,32 c 5.091953,0 7.632969,-2.02919 8.900996,-3.626649 1.268027,-1.59746 1.263066,-3.256595 1.263066,-3.996705 h 2.904297 0.05078 0.818359 L 15.891698,19 9.282323,24.376646 h 0.59375 c -0.04764,0.02869 0.03809,0 0.394531,0 h 2.902344 c 0,0 0.656185,5.15632 -5.072266,7.623354 z M 11.701172,0.00195313 C 11.176861,-0.00837246 10.649854,0.01680523 10.136719,0.06640625 7.7462982,0.29991255 5.3351227,1.0930681 3.8320312,1.7539062 3.5503623,1.8777359 3.3692263,2.1481601 3.3691406,2.4472656 V 19.236328 c 1.587e-4,0.55497 0.5926176,0.923117 1.1152344,0.69336 1.39257,-0.610474 3.6364324,-1.344502 5.810547,-1.556641 1.772014,-0.172625 3.31513,0.01656 4.375,0.708984 L 16,18 l 1.275391,1.117188 c 1.061042,-0.721815 2.626785,-0.91971 4.427734,-0.744141 2.175692,0.212139 4.421509,0.946167 5.8125,1.556641 0.522617,0.229756 1.115075,-0.13839 1.115234,-0.69336 V 2.4472656 C 28.630774,2.1481601 28.449637,1.8777358 28.167969,1.7539062 26.664877,1.0930682 24.253702,0.29991255 21.863281,0.06640625 19.810741,-0.13352415 17.555194,0.06084167 16,1.3535156 14.833604,0.38400656 13.274104,0.03292989 11.701172,0.00195313 Z M 11.804688,1.53125 c 1.4352,0.047574 2.63181,0.4144683 3.40625,1.203125 V 17.607422 C 13.734687,16.798544 11.862433,16.687589 10.136719,16.855469 8.2736434,17.038611 6.3950964,17.559585 4.9472656,18.09375 V 2.9492188 C 6.3445722,2.3845302 8.348541,1.7751845 10.296875,1.5859375 10.821852,1.5348103 11.326287,1.515392 11.804688,1.53125 Z m 8.390624,0 c 0.478401,-0.015858 0.982836,0.00356 1.507813,0.054687 1.948335,0.189247 3.952302,0.7985927 5.349609,1.3632813 V 18.09375 c -1.449409,-0.534165 -3.326377,-1.056238 -5.189453,-1.236328 -1.727292,-0.169406 -3.597968,-0.0604 -5.074219,0.75 V 2.734375 c 0.77444,-0.7886562 1.97105,-1.1555509 3.40625,-1.203125 z" />
	</g>

	<g id="close-book">
		<path d="M 23.791014,0 C 18.699061,0 16.158045,2.0291901 14.890018,3.6266492 13.621991,5.2241083 13.626952,6.8832433 13.626952,7.6233534 H 10.722655 10.671875 9.853516 L 16,13 22.609375,7.6233534 h -0.59375 c 0.04764,-0.028694 -0.03809,0 -0.394531,0 H 18.71875 c 0,0 -0.656185,-5.1563197 5.072266,-7.6233534 z M 10.296875,12 c -1.369298,0 -2.4785156,1.119289 -2.4785156,2.5 v 15 c 0,1.380702 1.1092176,2.5 2.4785156,2.5 h 13.142578 c 0.410777,0 0.742188,-0.335799 0.742188,-0.75 0,-0.414199 -0.331411,-0.75 -0.742188,-0.75 H 10.296875 c -0.5477164,0 -0.9902344,-0.447698 -0.9902344,-1 H 23.439453 c 0.410777,0 0.742188,-0.335799 0.742188,-0.75 V 14.5 c 0,-1.380711 -1.109226,-2.5 -2.478516,-2.5 h -2.875 L 16,14 13.171875,12 Z m 1.970703,3.921875 h 7.935547 c 0.547739,0 0.992187,0.447719 0.992187,1 v 1 c 0,0.552279 -0.444448,1 -0.992187,1 h -7.935547 c -0.547715,0 -0.990234,-0.447721 -0.990234,-1 v -1 c 0,-0.552281 0.442519,-1 0.990234,-1 z" />
	</g>

	<g id="open-folder">
		<path d="M 7.3125004,-4.9999999e-8 C 5.7595753,-4.9999999e-8 4.5005378,1.259588 4.5000004,2.8125 l -0.00586,14.373047 c -1.751e-4,0.529749 0.1459781,1.026094 0.4003906,1.449219 L 7.2968754,9.0097656 C 7.609488,7.7572656 8.734416,6.8769531 10.025391,6.8769531 H 27 V 5.9375 C 27,4.3842 25.740749,3.125 24.1875,3.125 H 17.03125 L 14.054688,0.65039057 C 13.549576,0.23036457 12.912784,-4.9999999e-8 12.25586,-4.9999999e-8 Z M 10.025391,8.7519531 c -0.430325,0 -0.8039905,0.2934375 -0.9082031,0.7109375 l -2.4375,9.7597654 C 6.5812509,19.617156 6.8806096,20 7.2871098,20 h 5.9882812 l 3.6875,-3 3.429688,3 h 4.693359 c 1.003624,0 1.879546,-0.6825 2.123047,-1.65625 L 29.41211,9.5292969 C 29.51073,9.1349219 29.213266,8.7519531 28.806641,8.7519531 Z M 9.063575,32 c 5.091953,0 7.632969,-2.02919 8.900996,-3.626649 1.268027,-1.59746 1.263066,-3.256595 1.263066,-3.996705 h 2.904297 0.05078 0.818359 L 16.854589,19 10.245214,24.376646 h 0.59375 c -0.04764,0.02869 0.03809,0 0.394531,0 h 2.902344 c 0,0 0.656185,5.15632 -5.072266,7.623354 z" />
	</g>

	<g id="close-folder">
		<path d="m 17.3866,14 -5.2139,4.7399 C 11.9886,18.9072 11.7488,19 11.5,19 H 3.9999999 v 9 c 0,2.2091 1.7908598,4 3.9999997,4 H 24 c 2.2091,0 4,-1.7909 4,-4 V 18 c 0,-2.20914 -1.7909,-4 -4,-4 z m -2.9732,0 H 14.3508 L 12.1247,12.219129 C 11.9474,12.07728 11.7271,12 11.5,12 H 7.9999996 c -2.2091399,0 -3.9999997,1.79086 -3.9999997,4 v 1 H 11.1134 Z M 23.791014,0 C 18.699061,0 16.158045,2.0291901 14.890018,3.6266492 13.621991,5.2241083 13.626952,6.8832433 13.626952,7.6233534 H 10.722655 10.671875 9.853516 L 16,13 22.609375,7.6233534 h -0.59375 c 0.04764,-0.028694 -0.03809,0 -0.394531,0 H 18.71875 c 0,0 -0.656185,-5.1563197 5.072266,-7.6233534 z" />
	</g>

	<g id="relocate">
		<path d="m 23,21 c -0.55228,0 -1,0.44772 -1,1 v 1.5 c 0,0.55228 0.44772,1 1,1 h 1.5 c 0.55228,0 1,-0.44772 1,-1 V 22 c 0,-0.55228 -0.44772,-1 -1,-1 z m 0,4.5 c -0.55228,0 -1,0.44772 -1,1 V 28 c 0,0.5523 0.44772,1 1,1 h 1.5 c 0.55228,0 1,-0.4477 1,-1 v -1.5 c 0,-0.55228 -0.44772,-1 -1,-1 z M 27.5,21 c -0.55228,0 -1,0.44772 -1,1 v 1.5 c 0,0.55228 0.44772,1 1,1 H 29 c 0.5523,0 1,-0.44772 1,-1 V 22 c 0,-0.55228 -0.4477,-1 -1,-1 z m 0,4.5 c -0.55228,0 -1,0.44772 -1,1 V 28 c 0,0.5523 0.44772,1 1,1 H 29 c 0.5523,0 1,-0.4477 1,-1 v -1.5 c 0,-0.55228 -0.4477,-1 -1,-1 z M 20,21.5 C 20,20.11929 21.11929,19 22.5,19 h 7 c 1.3807,0 2.5,1.11929 2.5,2.5 v 7 c 0,1.3807 -1.1193,2.5 -2.5,2.5 h -7 C 21.11929,31 20,29.8807 20,28.5 Z M 22.5,20 C 21.67157,20 21,20.67157 21,21.5 v 7 c 0,0.8284 0.67157,1.5 1.5,1.5 h 7 c 0.8284,0 1.5,-0.6716 1.5,-1.5 v -7 C 31,20.67157 30.3284,20 29.5,20 Z M 17.55982,7.01909 19.81568,9.27485 c 0.29289,0.2929 0.29289,0.7677 0,1.0606 -0.26627,0.2663 -0.68293,0.2905 -0.97654,0.0727 L 18.75502,10.33545 15.21949,6.79996 15.15092,6.72116 15.11038,6.66179 15.0613,6.56752 15.02849,6.47572 15.0126,6.40791 15.0037,6.34603 15,6.25241 15.0037,6.19323 15.01932,6.09928 15.04977,6 15.09619,5.90146 15.131,5.84576 C 15.15658,5.80837 15.18614,5.77265 15.2195,5.7393 L 15.15093,5.81809 C 15.17195,5.79025 15.19487,5.76392 15.2195,5.7393 l 3.53553,-3.5355405 c 0.29289,-0.29289 0.76777,-0.29289 1.06066,0 0.26627,0.26627 0.29047,0.6829305 0.07262,0.9765505 l -0.07262,0.08411 -2.25586,2.25467 2.8775,5.4e-4 c 3.65149,0 6.13249,2.07664 6.24589,5.03702 l 0.0041,6.498376 c 0,0.4142 -0.3358,0.75 -0.75,0.75 -0.4142,0 -0.75,-0.3358 -0.75,-0.75 0,-0.02676 -2.67e-4,-6.338796 -8.01e-4,-6.365366 C 25.14461,8.6025599 23.460121,7.1106326 20.69494,7.02364 l -0.25761,-0.004 -2.8775,-5.4e-4 2.25586,2.25576 z M 2,21.600001 V 29.4 C 2,30.83598 3.1192871,32 4.5000007,32 H 14.5 c 1.38075,0 2.5,-1.16402 2.5,-2.6 v -6.5 c 0,-1.435942 -1.11925,-2.600001 -2.5,-2.600001 H 8.4692363 L 7.0779371,19.142442 C 6.9671106,19.050234 6.8294256,19 6.6874999,19 H 4.5000007 C 3.1192871,19 2,20.164059 2,21.600001 Z m 1.2499993,0 c 0,-0.717966 0.55965,-1.300002 1.2500014,-1.300002 h 1.9682614 l 1.0851621,0.90285 -1.1075485,1.047126 H 3.2499993 Z m 5.7416249,0 H 14.5 c 0.690375,0 1.250001,0.582036 1.250001,1.299999 v 6.5 c 0,0.71799 -0.559626,1.300001 -1.250001,1.300001 H 4.5000007 C 3.8096493,30.700001 3.2499993,30.11799 3.2499993,29.4 v -5.850026 h 3.4375006 c 0.155475,0 0.3053743,-0.06026 0.4204243,-0.16904 z M 3.4266739,1.1443895 c 0.067632,0.00298 0.136452,0.017105 0.2040962,0.043945 L 8.246152,3.0194251 C 8.58154,3.1524812 8.799999,3.4645034 8.799999,3.8104608 V 14.284318 c 0,0.40768 -0.435552,0.684191 -0.830771,0.527311 L 3.353846,12.980607 C 3.0184578,12.847494 2.7999976,12.535449 2.7999976,12.189583 V 1.7156912 c 0,-0.3219171 0.2715962,-0.5620353 0.5804524,-0.5715988 0.00648,1.942e-4 0.013008,2.971e-4 0.019548,2.971e-4 z m 3.2133254,0 h 4.8600017 c 0.49704,0 0.9,0.3836633 0.9,0.8569525 v 3.4816841 c 0,0.092106 -0.01561,0.1836164 -0.0462,0.2709913 l -1.04604,2.9880453 c -0.07141,0.203898 -0.107757,0.417404 -0.107757,0.632316 v 2.3390803 c 0,0.473268 -0.40296,0.856953 -0.9,0.856953 H 10 V 3.8104603 C 10,3.0032339 9.490253,2.2751898 8.707696,1.9647102 Z M 10,13.713016 h 0.300001 c 1.159801,0 2.1,-0.89523 2.1,-1.999557 V 9.3743787 c 0,-0.09211 0.01561,-0.183604 0.0462,-0.270991 L 13.49224,6.1153429 C 13.56365,5.9114567 13.599997,5.6979384 13.599997,5.4830261 V 2.001342 c 0,-1.10432625 -0.9402,-1.99956065 -2.100001,-1.99956065 H 3.4800499 C 2.4976576,-0.04130615 1.5999972,0.70200765 1.5999972,1.7156912 V 12.189583 c 0,0.807135 0.5097482,1.535201 1.2923045,1.845761 l 4.6153939,1.831022 C 8.693332,16.336776 10,15.50736 10,14.284318 Z" />
	</g>

	<g id="arrow-left-fat">
		<path d="M 3.2864499,18.554761 C 1.6542861,17.251072 1.6543824,14.747148 3.2866428,13.443566 L 15.722645,3.5117191 c 1.407049,-1.123558 3.475088,-0.10972 3.475088,1.703912 v 4.271551 h 8.583568 c 1.184882,0 2.145564,0.9717199 2.145564,2.1706569 v 8.682713 c 0,1.198829 -0.960682,2.170679 -2.145564,2.170679 l -8.583568,-8.5e-5 v 4.273299 c 0,1.813653 -2.068189,2.827533 -3.475216,1.703674 z" />
	</g>

	<g id="arrow-right-fat">
		<path d="m 28.71355,18.554761 c 1.632164,-1.303689 1.632068,-3.807613 -1.93e-4,-5.111195 L 16.277355,3.5117191 c -1.407049,-1.123558 -3.475088,-0.10972 -3.475088,1.703912 v 4.271551 H 4.2186989 c -1.184882,0 -2.145564,0.9717199 -2.145564,2.1706569 v 8.682713 c 0,1.198829 0.960682,2.170679 2.145564,2.170679 l 8.5835681,-8.5e-5 v 4.273299 c 0,1.813653 2.068189,2.827533 3.475216,1.703674 z" />
	</g>

	<g id="arrow-up-fat">
		<path d="M 18.554761,3.28645 C 17.251072,1.654286 14.747148,1.654382 13.443566,3.286643 L 3.5117194,15.722645 c -1.123558,1.407049 -0.10972,3.475088 1.7039116,3.475088 h 4.271551 v 8.583568 c 0,1.184882 0.97172,2.145564 2.170657,2.145564 h 8.682713 c 1.198829,0 2.170679,-0.960682 2.170679,-2.145564 l -8.5e-5,-8.583568 h 4.273299 c 1.813653,0 2.827533,-2.068189 1.703674,-3.475216 z" />
	</g>

	<g id="arrow-down-fat">
		<path d="M 22.264118,15.613394 22.147833,15.51301 c -0.405966,-0.301294 -0.982144,-0.267833 -1.350223,0.100384 l -3.760158,3.760019 -4.14e-4,-9.249914 -0.0094,-0.1407202 C 16.958914,9.4765937 16.525017,9.0864609 16,9.0864609 l -0.140761,0.00949 c -0.506073,0.068661 -0.896276,0.5025489 -0.896276,1.0275671 l 4.15e-4,9.252678 -3.761941,-3.763615 -0.116301,-0.100384 c -0.405924,-0.301294 -0.982046,-0.26797 -1.350291,0.100107 -0.405067,0.404859 -0.405192,1.061511 -2.78e-4,1.466647 l 5.530796,5.532939 0.116425,0.100384 c 0.405965,0.301433 0.982143,0.267971 1.35036,-0.100245 l 5.53197,-5.531973 0.100384,-0.116423 c 0.301294,-0.405986 0.267833,-0.982026 -0.100384,-1.350242 z M 4.4938272,3.5555552 C 2.0119488,3.5555552 0,5.567504 0,8.0493825 V 23.950617 c 0,2.481837 2.0119488,4.493828 4.4938272,4.493828 H 27.506173 C 29.98801,28.444445 32,26.432454 32,23.950617 V 8.0493825 C 32,5.567504 29.98801,3.5555552 27.506173,3.5555552 Z M 2.0740736,8.0493825 c 0,-1.3363948 1.0833589,-2.4197537 2.4197536,-2.4197537 H 27.506173 c 1.336394,0 2.419753,1.0833589 2.419753,2.4197537 V 23.950617 c 0,1.336396 -1.083357,2.419754 -2.419753,2.419754 H 4.4938272 c -1.3363947,0 -2.4197536,-1.083358 -2.4197536,-2.419754 z" />
	</g>

	<g id="blocked">
		<path d="M 32,16 C 32,24.836533 24.836533,32 16,32 7.16344,32 0,24.836533 0,16 0,7.16344 7.16344,0 16,0 24.836533,0 32,7.16344 32,16 Z m -4,0 C 28,13.408267 27.1784,11.008507 25.781467,9.0468533 L 9.0468533,25.781467 C 11.008507,27.1784 13.408267,28 16,28 22.627467,28 28,22.627467 28,16 Z M 22.952933,6.21844 C 20.991333,4.82156 18.5916,4 16,4 9.3725867,4 4,9.3725867 4,16 c 0,2.5916 0.82156,4.991333 2.21844,6.952933 z" />
	</g>

	<g id="discard">
		<path d="M 15.523438 2 A 0.51035637 0.51035637 0 0 0 15.166016 2.1191406 L 10.347656 6.1308594 A 0.51035637 0.51035637 0 0 0 10.347656 6.9160156 L 15.166016 10.929688 A 0.51035637 0.51035637 0 0 0 16.001953 10.537109 L 16.001953 7.5449219 A 10.207127 10.207127 0 1 1 6.7226562 13.492188 A 1.0207127 1.0207127 0 0 0 4.8671875 12.642578 A 12.248553 12.248553 0 1 0 16.001953 5.5019531 L 16.001953 2.5097656 A 0.51035637 0.51035637 0 0 0 15.523438 2 z M 12.066406 12.996094 L 11.234375 13.830078 L 15.400391 17.996094 L 11.234375 22.164062 L 12.066406 22.996094 L 16.234375 18.830078 L 20.400391 22.996094 L 21.234375 22.164062 L 17.066406 17.996094 L 21.234375 13.830078 L 20.400391 12.996094 L 16.234375 17.164062 L 12.066406 12.996094 z " />
	</g>

	<g id="accept">
		<path d="m 25.241509,7.2075988 a 1.5993055,1.5993055 0 0 1 2.284411,0 c 0.624012,0.6305584 0.63274,1.6494884 0.02182,2.2909561 L 14.646383,24.749777 a 1.5993055,1.5993055 0 0 1 -2.323684,0.04364 L 4.4723555,16.838342 a 1.6516702,1.6516702 0 0 1 0,-2.312775 1.5993055,1.5993055 0 0 1 2.2844105,0 l 6.659046,6.748502 11.78206,-14.0184692 a 0.53892015,0.53892015 0 0 1 0.04364,-0.048001 z" />
	</g>

	<g id="ellipsis-h">
		<path d="m 10,14.5 v 3 C 10,18.328 9.328,19 8.5,19 h -3 C 4.672,19 4,18.328 4,17.5 v -3 C 4,13.672 4.672,13 5.5,13 h 3 c 0.828,0 1.5,0.672 1.5,1.5 z m 9,0 v 3 c 0,0.828 -0.672,1.5 -1.5,1.5 h -3 C 13.672,19 13,18.328 13,17.5 v -3 C 13,13.672 13.672,13 14.5,13 h 3 c 0.828,0 1.5,0.672 1.5,1.5 z m 9,0 v 3 c 0,0.828 -0.672,1.5 -1.5,1.5 h -3 C 22.672,19 22,18.328 22,17.5 v -3 C 22,13.672 22.672,13 23.5,13 h 3 c 0.828,0 1.5,0.672 1.5,1.5 z" />
	</g>

	<g id="reloc-from">
		<path
		   style="stroke:#ffffff;stroke-width:2"
		   d="M 16,1.4545442 C 7.966771,1.4545442 1.4545443,7.966771 1.4545443,16 1.4545443,24.033156 7.966771,30.545456 16,30.545456 24.033156,30.545456 30.545456,24.033156 30.545456,16 30.545456,7.9667709 24.033156,1.4545442 16,1.4545442 Z" />
		<path
		   d="m 16.44851,23.248049 0.116187,-0.134522 c 0.348587,-0.469688 0.309873,-1.136305 -0.116187,-1.562321 l -4.350246,-4.350218 10.701919,-4.8e-4 0.162853,-0.01147 C 23.548548,17.109646 24,16.607688 24,16.000263 l -0.01147,-0.162816 c -0.0794,-0.58567 -0.581353,-1.036963 -1.188777,-1.036963 l -10.705079,5.2e-4 4.354407,-4.352502 0.116333,-0.134541 C 16.914346,9.8446304 16.875633,9.1780604 16.449777,8.7520133 15.981369,8.2833809 15.221644,8.283237 14.75308,8.7516933 L 8.3515427,15.150697 8.2353398,15.285219 c -0.3486018,0.469738 -0.3099355,1.136516 0.1160789,1.562527 l 6.4004173,6.400305 0.134522,0.1162 c 0.469682,0.34859 1.136145,0.309875 1.562157,-0.1162 z"
		   style="fill:#ffffff;stroke:none;" />
	</g>

	<g id="reloc-to">
		<path
			 style="stroke:#ffffff;stroke-width:2"
			 d="M 16,1.4545442 C 24.033229,1.4545442 30.545456,7.966771 30.545456,16 30.545456,24.033156 24.033229,30.545456 16,30.545456 7.9668443,30.545456 1.4545443,24.033156 1.4545443,16 1.4545443,7.9667709 7.9668443,1.4545442 16,1.4545442 Z" />
		<path
		   d="M 15.55149,23.248049 15.435303,23.113527 C 15.086716,22.643839 15.12543,21.977222 15.55149,21.551206 l 4.350246,-4.350218 -10.7019187,-4.8e-4 -0.162853,-0.01147 c -0.585512,-0.07939 -1.036964,-0.58135 -1.036964,-1.188775 l 0.01147,-0.162816 c 0.0794,-0.58567 0.581353,-1.036963 1.188777,-1.036963 l 10.7050787,5.2e-4 -4.354407,-4.352502 -0.116333,-0.134541 C 15.085654,9.8446304 15.124367,9.1780604 15.550223,8.7520133 16.018631,8.2833809 16.778356,8.283237 17.24692,8.7516933 l 6.401538,6.3990037 0.116202,0.134522 c 0.348602,0.469738 0.309936,1.136516 -0.116078,1.562527 l -6.400418,6.400305 -0.134522,0.1162 c -0.469682,0.34859 -1.136145,0.309875 -1.562157,-0.1162 z"
		   style="fill:#ffffff;stroke:none"  />
	</g>

	<g id="root-target">
		<path d="M 15.128906 0 L 14.994141 0.00390625 C 13.969701 0.073180511 13.160156 0.92674857 13.160156 1.96875 L 13.160156 4.375 L 18.591797 4.375 L 18.683594 4.3691406 C 18.773921 4.3564586 18.85999 4.3254217 18.9375 4.2773438 L 19.011719 4.2226562 L 21.691406 1.9882812 L 19.851562 0.45703125 L 19.714844 0.3515625 C 19.386159 0.12313523 18.994786 0 18.591797 0 L 15.128906 0 z M 2.3398438 0.75 C 1.7858445 0.75 1.3398438 1.488861 1.3398438 2.40625 L 1.3398438 29.59375 C 1.3398437 30.511139 1.7858445 31.25 2.3398438 31.25 C 2.893843 31.25 3.3398438 30.511139 3.3398438 29.59375 L 3.3398438 27.554688 L 13.160156 27.505859 L 13.160156 30.03125 L 13.166016 30.166016 C 13.23529 31.190465 14.086905 32 15.128906 32 L 28.691406 32 L 28.826172 31.996094 C 29.850621 31.926794 30.660156 31.073287 30.660156 30.03125 L 30.660156 22.15625 L 30.65625 22.021484 L 30.642578 21.882812 C 30.509666 20.924766 29.686018 20.1875 28.691406 20.1875 L 23.503906 20.1875 L 19.851562 23.230469 L 19.714844 23.335938 C 19.433111 23.531675 19.105456 23.649768 18.763672 23.679688 L 18.591797 23.6875 L 13.160156 23.6875 L 13.160156 25.505859 L 3.3398438 25.554688 L 3.3398438 9.6933594 L 13.160156 9.6445312 L 13.160156 12.03125 L 13.166016 12.166016 C 13.23529 13.190465 14.086905 14 15.128906 14 L 28.691406 14 L 28.826172 13.996094 C 29.850621 13.926794 30.660156 13.073286 30.660156 12.03125 L 30.660156 4.15625 L 30.65625 4.0214844 L 30.642578 3.8828125 C 30.509666 2.9247667 29.686018 2.1875 28.691406 2.1875 L 23.503906 2.1875 L 19.851562 5.2304688 L 19.714844 5.3359375 C 19.433111 5.5316748 19.105456 5.6497625 18.763672 5.6796875 L 18.591797 5.6875 L 13.160156 5.6875 L 13.160156 7.6445312 L 3.3398438 7.6933594 L 3.3398438 2.40625 C 3.3398438 1.488861 2.893843 0.75 2.3398438 0.75 z M 15.128906 18 L 14.994141 18.003906 C 13.969701 18.073181 13.160156 18.926748 13.160156 19.96875 L 13.160156 22.375 L 18.591797 22.375 L 18.683594 22.369141 C 18.773921 22.356461 18.85999 22.325424 18.9375 22.277344 L 19.011719 22.222656 L 21.691406 19.988281 L 19.851562 18.457031 L 19.714844 18.351562 C 19.386159 18.123135 18.994786 18 18.591797 18 L 15.128906 18 z " />
	</g>

	<g id="active-pnl-c">
		<path d="M 4.3339844,1 C 3.417318,1 2.6312935,1.3257377 1.9785156,1.9785156 1.3257377,2.6312935 1,3.417318 1,4.3339844 V 27.666016 c 0,0.916666 0.3257377,1.70269 0.9785156,2.355468 C 2.6312935,30.674262 3.417318,31 4.3339844,31 H 27.666016 c 0.916666,0 1.70269,-0.325738 2.355468,-0.978516 C 30.674262,29.368706 31,28.582682 31,27.666016 V 4.3339844 C 31,3.417318 30.674262,2.6312935 30.021484,1.9785156 29.368706,1.3257377 28.582682,1 27.666016,1 Z m 0,6.6660156 H 27.666016 V 27.666016 H 4.3339844 Z M 7.6660156,12.666016 V 18 H 24.333984 v -5.333984 z m 10.6582034,8.654296 v 3.333985 h 6 v -3.333985 z m -10.6582034,0.01367 v 3.332032 h 6.0000004 v -3.332032 z" />
	</g>

	<g id="active-pnl-o">
		<path d="M 4.3339844,1 C 3.417318,1 2.6312935,1.3257377 1.9785156,1.9785156 1.3257377,2.6312935 1,3.417318 1,4.3339844 V 27.666016 c 0,0.916666 0.3257377,1.70269 0.9785156,2.355468 C 2.6312935,30.674262 3.417318,31 4.3339844,31 H 27.666016 c 0.916666,0 1.70269,-0.325738 2.355468,-0.978516 C 30.674262,29.368706 31,28.582682 31,27.666016 V 4.3339844 C 31,3.417318 30.674262,2.6312935 30.021484,1.9785156 29.368706,1.3257377 28.582682,1 27.666016,1 Z m 0,6.6660156 H 27.666016 V 27.666016 H 4.3339844 Z M 7.6660156,12.666016 V 18 H 24.333984 v -5.333984 z m 10.6582034,8.654296 v 3.333985 h 6 v -3.333985 z m -10.6582034,0.01367 v 3.332032 h 6.0000004 v -3.332032 z" />
		<circle r="5" cx="27" cy="5" style="fill:#00ff00;" />
	</g>

	<g id="nav-content">
		<path d="m 2.0000007,6.1282852 c 1.77,-0.790566 4.308,-1.643094 6.776,-1.90804 2.6600003,-0.286313 4.9160003,0.13461 6.2240003,1.60677 V 26.650927 c -1.87,-1.132432 -4.24,-1.288408 -6.4260003,-1.053375 -2.36,0.256399 -4.74,0.985001 -6.574,1.732833 z M 17,5.8270152 c 1.308,-1.47216 3.564,-1.893083 6.224,-1.60677 2.468,0.264946 5.005999,1.117474 6.775999,1.90804 V 27.330385 C 28.163999,26.582553 25.786,25.851815 23.426,25.599689 21.238,25.362519 18.87,25.516359 17,26.650927 Z m -1,-1.931543 c -1.969999,-1.809753 -4.825999,-2.078972 -7.4259992,-1.801206 -3.028,0.326909 -6.084,1.435837 -7.98800005,2.361012 a 0.99999994,1.0683312 0 0 0 -0.586,0.972181 V 28.930745 a 0.99999994,1.0683312 0 0 0 1.41399995,0.972182 c 1.764,-0.854665 4.6060001,-1.8824 7.36,-2.179396 2.8180003,-0.303406 5.1800003,0.18589 6.4460003,1.873853 a 0.99999994,1.0683312 0 0 0 1.559999,0 c 1.266,-1.687963 3.628,-2.177259 6.444,-1.873853 2.756,0.296996 5.599999,1.324731 7.361999,2.179396 a 0.99999994,1.0683312 0 0 0 1.414,-0.972182 V 5.4274592 a 0.99999994,1.0683312 0 0 0 -0.586,-0.972181 C 29.509999,3.5301032 26.454,2.4211752 23.426,2.0942662 20.826,1.8143632 17.97,2.0857662 16,3.8954722 Z" />
	</g>

	<g id="nav-logout">
		<path d="M 2,2e-7 C 1.450002,2e-7 0.979556,0.1962242 0.587891,0.5878908 0.196224,0.9795564 0,1.4500017 0,2.0000002 V 30 c 0,0.549998 0.196224,1.020444 0.587891,1.412109 C 0.979556,31.803776 1.450002,32 2,32 H 9 V 29 H 3 V 3.0000002 h 6 v -3 z M 19,1 C 17.762503,1 16.701562,1.4390634 15.820312,2.3203125 14.939064,3.2015616 14.5,4.2625022 14.5,5.5 c 0,1.2374968 0.439064,2.2984384 1.320312,3.1796875 C 16.701562,9.5609346 17.762503,10 19,10 20.237498,10 21.298438,9.5609346 22.179688,8.6796875 23.060936,7.7984384 23.5,6.7374968 23.5,5.5 23.5,4.2625022 23.060936,3.2015606 22.179688,2.3203125 21.298438,1.4390634 20.237498,1 19,1 Z m 0,11.25 c -1.124998,0 -2.203127,0.112892 -3.234375,0.337891 -1.031248,0.224999 -2.032814,0.544532 -3.007813,0.957031 -0.862497,0.374999 -1.537891,0.937502 -2.02539,1.6875 C 10.244922,15.982419 10,16.805079 10,17.705078 V 19 h 18 v -1.294922 c 0,-0.899999 -0.244924,-1.722659 -0.732422,-2.472656 -0.487499,-0.749998 -1.162892,-1.3125 -2.02539,-1.6875 C 24.267189,13.132423 23.265623,12.810937 22.234375,12.585938 21.203127,12.360939 20.124998,12.25 19,12.25 Z M 23,21 21.625,22.449219 24.175781,25 H 10 v 2 H 24.175781 L 21.625,29.550781 23,31 28,26 Z" />
	</g>

	<g id="pack-update">
		<path
		   d="m 0.921145,5.0008933 a 3,3 0 0 1 3,-3 h 12 a 3,3 0 0 1 3,3 V 23.000893 a 3,3 0 0 1 -3,3 h -12 a 3,3 0 0 1 -3,-3 z m 15,-1.5 h -12 a 1.5,1.5 0 0 0 -1.5,1.5 V 23.000893 a 1.5,1.5 0 0 0 1.5,1.5 h 12 a 1.5,1.5 0 0 0 1.5,-1.5 V 5.0008933 a 1.5,1.5 0 0 0 -1.5,-1.5"
		   style="fill:currentColor;stroke:none;"/>
		<path
		   fill-rule="evenodd"
		   d="m 25.952091,13.000893 c 0.276142,0 0.5,0.223858 0.5,0.5 v 13.793 l 3.146,-3.147 c 0.472,-0.472 1.18,0.236 0.708,0.708 l -4,4 c -0.195364,0.195858 -0.512636,0.195858 -0.708,0 l -4,-4 c -0.472,-0.472 0.236,-1.18 0.708,-0.708 l 3.146,3.147 v -13.793 c 0,-0.276142 0.223858,-0.5 0.5,-0.5"
		   style="fill:currentColor;stroke:currentColor;stroke-width:1;"/>
		<path
		   d="m 5.7142507,8 a 0.71425057,0.71428576 0 0 0 0,1.428571 h 8.5710063 a 0.71425057,0.71428576 0 0 0 0,-1.428571 z m -0.7142505,3.571428 a 0.71425049,0.71428568 0 0 1 0.7142505,-0.714285 h 8.5710063 a 0.71425049,0.71428568 0 0 1 0,1.428571 H 5.7142507 A 0.71425049,0.71428568 0 0 1 5.0000002,11.571428 m 0.7142505,2.142858 a 0.71425049,0.71428568 0 0 0 0,1.428571 h 8.5710063 a 0.71425049,0.71428568 0 0 0 0,-1.428571 z m 0,2.857142 a 0.71425081,0.714286 0 0 0 0,1.428572 h 4.285503 a 0.71425081,0.714286 0 0 0 0,-1.428572 z"
		   style="fill:currentColor;stroke:none;" />
	</g>

	<g id="pack-install">
		<path
		   style="fill:currentColor;stroke:none"
		   d="M 3.921875 6 A 3 3 0 0 0 0.921875 9 L 0.921875 27 A 3 3 0 0 0 3.921875 30 L 15.921875 30 A 3 3 0 0 0 18.921875 27 L 18.921875 9 A 3 3 0 0 0 15.921875 6 L 3.921875 6 z M 3.921875 7.5 L 15.921875 7.5 A 1.5 1.5 0 0 1 17.421875 9 L 17.421875 27 A 1.5 1.5 0 0 1 15.921875 28.5 L 3.921875 28.5 A 1.5 1.5 0 0 1 2.421875 27 L 2.421875 9 A 1.5 1.5 0 0 1 3.921875 7.5 z M 5.7148438 12 A 0.71425057 0.71428576 0 0 0 5.7148438 13.427734 L 14.285156 13.427734 A 0.71425057 0.71428576 0 0 0 14.285156 12 L 5.7148438 12 z M 5.7148438 14.857422 A 0.71425049 0.71428568 0 0 0 5 15.572266 A 0.71425049 0.71428568 0 0 0 5.7148438 16.285156 L 14.285156 16.285156 A 0.71425049 0.71428568 0 0 0 14.285156 14.857422 L 5.7148438 14.857422 z M 5.7148438 17.714844 A 0.71425049 0.71428568 0 0 0 5.7148438 19.142578 L 14.285156 19.142578 A 0.71425049 0.71428568 0 0 0 14.285156 17.714844 L 5.7148438 17.714844 z M 5.7148438 20.572266 A 0.71425081 0.714286 0 0 0 5.7148438 22 L 10 22 A 0.71425081 0.714286 0 0 0 10 20.572266 L 5.7148438 20.572266 z " />
		<path
		   d="m 22.418261,1.5 c 0.552285,0 1,0.4477152 1,1 v 5.267999 l 4.562,-2.633999 c 1.15793,-0.6789332 2.166921,1.0686385 1,1.731999 l -4.562,2.6339996 4.562,2.6340004 c 1.166803,0.663393 0.157899,2.410814 -1,1.732 l -4.562,-2.634 c 0,1.515289 0,1.615642 0,5.268 0,1.333333 -2,1.333333 -2,0 v -5.268 l -4.562,2.634 c -1.157899,0.678814 -2.166803,-1.068607 -1,-1.732 l 4.562,-2.6340004 -4.562,-2.6339996 c -1.142639,-0.6698675 -0.151425,-2.3866501 1,-1.732 l 4.562,2.634 V 2.5 c 0,-0.5522848 0.447715,-1 1,-1"
		   style="fill:#fff6d5;fill-opacity:1;stroke:#ffeeaa;stroke-width:3" />
		<path
		   d="m 22.418261,1.5 a 1,1 0 0 1 1,1 v 5.267999 l 4.562,-2.633999 a 1,1 0 1 1 1,1.731999 l -4.562,2.6339996 4.562,2.6340004 a 1,1 0 1 1 -1,1.732 l -4.562,-2.634 v 5.268 a 1,1 0 1 1 -2,0 v -5.268 l -4.562,2.634 a 1,1 0 1 1 -1,-1.732 l 4.562,-2.6340004 -4.562,-2.6339996 a 1,1 0 0 1 1,-1.732 l 4.562,2.634 V 2.5 a 1,1 0 0 1 1,-1"
		   style="fill:#ffcc00;stroke:#ffcc00;stroke-width:0" />
	</g>

	<g id="">
		<path d="" />
	</g>


	<g id="">
		<path d="" />
	</g>



</svg>
