<svg xml:space="preserve" width="128" height="128" xmlns="http://www.w3.org/2000/svg"><path style="fill:#ea0c5c;stroke-width:.253905" d="M115.153 100.548a3.92 3.92 0 0 1-3.922 3.922H16.767a3.923 3.923 0 0 1-3.92-3.922V84.204a3.923 3.923 0 0 1 3.92-3.922h94.464a3.92 3.92 0 0 1 3.922 3.922z"/><path style="fill:#bc0852;stroke-width:.253905" d="M109.272 80.284a3.92 3.92 0 0 1 3.922 3.922v16.344a3.92 3.92 0 0 1-3.922 3.922H14.806"/><path style="fill:#ff7171;stroke-width:.253905" d="M12.847 84.205a3.923 3.923 0 0 1 3.92-3.922h94.464a3.92 3.92 0 0 1 3.922 3.922"/><path style="fill:#f2db06" d="M399.991 396.699a2.818 2.818 0 0 1-2.812 2.812 2.82 2.82 0 0 1-2.82-2.812V330.95c0-1.56 1.268-2.82 2.82-2.82a2.82 2.82 0 0 1 2.812 2.82zM417.84 396.699a2.813 2.813 0 0 1-2.812 2.812c-1.56 0-2.82-1.26-2.82-2.812V330.95a2.815 2.815 0 1 1 5.632 0zM435.689 396.699a2.812 2.812 0 1 1-5.624 0V330.95a2.812 2.812 0 1 1 5.624 0z" transform="matrix(.2539 0 0 .2539 -41.377 0)"/><path style="fill:#038462;stroke-width:.253905" d="M115.154 76.702a3.923 3.923 0 0 1-3.922 3.922H16.768a3.923 3.923 0 0 1-3.922-3.922V60.358a3.92 3.92 0 0 1 3.922-3.922h94.464a3.92 3.92 0 0 1 3.922 3.922v16.344z"/><path style="fill:#047769;stroke-width:.253905" d="M109.27 56.436a3.92 3.92 0 0 1 3.923 3.922v16.344a3.923 3.923 0 0 1-3.922 3.922H14.807"/><path style="fill:#2eaf8d;stroke-width:.253905" d="M12.847 60.358a3.92 3.92 0 0 1 3.922-3.922h94.462a3.92 3.92 0 0 1 3.922 3.922"/><path style="fill:#f2db06" d="M341.134 302.775a2.815 2.815 0 0 1-2.82 2.812 2.805 2.805 0 0 1-2.796-2.812v-65.757a2.805 2.805 0 0 1 2.796-2.812c1.56 0 2.82 1.26 2.82 2.812zM358.984 302.775a2.817 2.817 0 0 1-2.828 2.812 2.812 2.812 0 0 1-2.804-2.812v-65.757a2.812 2.812 0 0 1 2.804-2.812 2.817 2.817 0 0 1 2.828 2.812zM376.833 302.775a2.815 2.815 0 0 1-5.632 0v-65.757a2.815 2.815 0 0 1 2.82-2.812 2.818 2.818 0 0 1 2.812 2.812z" transform="matrix(.2539 0 0 .2539 -26.435 0)"/><path style="fill:#115989;stroke-width:.253905" d="M115.154 124.077a3.923 3.923 0 0 1-3.922 3.922H16.768a3.923 3.923 0 0 1-3.922-3.922v-16.343a3.922 3.922 0 0 1 3.922-3.923h94.464a3.922 3.922 0 0 1 3.922 3.923v16.343z"/><path style="fill:#003b5b;stroke-width:.253905" d="M109.27 103.811a3.922 3.922 0 0 1 3.923 3.923v16.343A3.923 3.923 0 0 1 109.27 128H14.807"/><path style="fill:#158acc;stroke-width:.253905" d="M12.847 107.734a3.922 3.922 0 0 1 3.922-3.923h94.462a3.922 3.922 0 0 1 3.922 3.923"/><path style="fill:#f2db06" d="M341.134 489.371a2.815 2.815 0 0 1-2.82 2.812 2.805 2.805 0 0 1-2.796-2.812v-65.757c0-1.536 1.252-2.812 2.796-2.812 1.56 0 2.82 1.276 2.82 2.812zM358.984 489.371a2.817 2.817 0 0 1-2.828 2.812 2.812 2.812 0 0 1-2.804-2.812v-65.757c0-1.536 1.26-2.812 2.804-2.812a2.827 2.827 0 0 1 2.828 2.812zM376.833 489.371a2.815 2.815 0 0 1-5.632 0v-65.757a2.825 2.825 0 0 1 2.82-2.812 2.829 2.829 0 0 1 2.812 2.812z" transform="matrix(.2539 0 0 .2539 -26.435 0)"/><circle style="fill:#fa0;stroke-width:.253905" cx="64" cy="33.478" r="23.61"/><path style="fill:#ff8500;stroke-width:.253905" d="M52.195 9.872c13.04 0 23.61 10.568 23.61 23.608 0 13.04-10.57 23.608-23.61 23.608"/><path style="fill:#54391e;stroke-width:.253905" d="M68.93 14.482a1.906 1.906 0 0 1-1.906-1.906c0-4.382-3.568-7.952-7.954-7.952a1.905 1.905 0 0 1-1.906-1.908c0-1.054.852-1.906 1.906-1.906 6.488 0 11.766 5.278 11.766 11.766a1.903 1.903 0 0 1-1.906 1.906z"/><path style="fill:#382413;stroke-width:.253905" d="M58.562 4.386c-.208 0-.4.056-.592.12.192.062.384.12.592.12 4.384 0 7.954 3.568 7.954 7.952 0 1.052.852 1.906 1.906 1.906.692 0 1.272-.386 1.608-.938-1.196-5.238-5.878-9.16-11.468-9.16z"/><path style="fill:#7ec441;stroke-width:.253905" d="M71.82.99C68.58-1.11 63.17.198 59.1 4.266c-4.07 4.072-3.398 7.506-.944 10.39z"/><path style="fill:#559e1b;stroke-width:.253905" d="M70.34.962c2.097 3.24.791 8.65-3.279 12.722-4.07 4.07-7.504 3.396-10.39.944z"/><g transform="matrix(.2539 0 0 .2539 11.793 0)"><path style="fill:#f4c951" d="M236.285 55.187c7.593 7.593-9.051 17.912-25.687 34.54-16.636 16.628-26.947 33.264-34.54 25.679-7.57-7.578-.236-27.199 16.384-43.827 16.636-16.636 36.249-23.97 43.843-16.392z"/><circle style="fill:#f4c951" cx="177.129" cy="129.971" r="4.072"/><circle style="fill:#f4c951" cx="176.814" cy="147.828" r="1.252"/></g></svg>