<svg xmlns="http://www.w3.org/2000/svg" viewBox="0 0 508 508" style="enable-background:new 0 0 508 508" xml:space="preserve"><circle style="fill:#90dfaa" cx="254" cy="254" r="254"/><path style="fill:#2c9984" d="M53.2 409.2C99.6 469.2 172.4 508 254 508s154.4-38.8 200.8-98.8H53.2z"/><path style="fill:#324a5e" d="M105.2 309.2v60.4c0 12.4 10 22 22 22h277.6c4.8 0 8.8 4 8.8 8.8 0 4.8-4 8.8-8.8 8.8H127.2c-22 0-39.6-17.6-39.6-39.6v-60.4c0-22 17.6-39.6 39.6-39.6h277.6c4.8 0 8.8 4 8.8 8.8 0 4.8-4 8.8-8.8 8.8H127.2c-12-.4-22 9.6-22 22z"/><path style="fill:#fff" d="M398.8 339.2c0 20 2.8 38.4 7.2 52.4H127.2c-12.4 0-22-10-22-22v-60.4c0-12 10-22 22-22H406c-4.8 13.6-7.2 32-7.2 52z"/><path style="fill:#e6e9ee" d="M402.4 301.2c-.4.8-.4 2-.4 3.2H106c.4-1.2.4-2 .8-3.2h295.6zM400 315.6c0 .8-.4 2-.4 3.2H105.2v-3.2H400zM398.8 330.4v3.2H105.2v-3.2h293.6zM398.8 348H105.2v-3.2h293.6v3.2zM400 362.8H105.2v-3.2h294.4c0 1.2.4 2.4.4 3.2zM402.4 377.6H106.8c-.4-.8-.8-2-.8-3.2h296c0 1.2 0 2 .4 3.2z"/><path style="fill:#ff7058" d="M83.2 191.6v46.8c0 9.6 7.6 17.2 17.2 17.2h214.8c3.6 0 6.8 3.2 6.8 6.8 0 3.6-3.2 6.8-6.8 6.8H100.4c-16.8 0-30.8-13.6-30.8-30.8v-46.8c0-16.8 13.6-30.8 30.8-30.8h214.8c3.6 0 6.8 3.2 6.8 6.8 0 3.6-3.2 6.8-6.8 6.8H100.4c-9.6.4-17.2 8-17.2 17.2z"/><path style="fill:#fff" d="M310.4 215.2c0 15.6 2 29.6 5.6 40.4H100.4c-9.6 0-17.2-7.6-17.2-17.2v-46.8c0-9.6 7.6-17.2 17.2-17.2h215.2c-3.2 11.2-5.2 25.2-5.2 40.8z"/><path style="fill:#e6e9ee" d="M312.8 185.6c0 .8-.4 1.6-.4 2.4H83.6c0-.8.4-1.6.8-2.4h228.4zM311.2 196.8c0 .8 0 1.6-.4 2.4H83.2v-2.4h228zM310.4 208.4v2.4H83.2v-2.4h227.2zM310.4 222H83.2v-2.4h227.2v2.4zM311.2 233.2h-228v-2.4h227.6c.4 1.2.4 2 .4 2.4zM312.8 244.8H84.4c-.4-.8-.4-1.6-.8-2.4h228.8c.4.8.4 1.6.4 2.4z"/><path transform="rotate(134.999 318.345 216.073)" style="fill:#2b3b4e" d="M312.343 198.873h12v34.4h-12z"/><circle style="fill:#324a5e" cx="260.4" cy="158" r="83.2"/><circle style="fill:#84dbff" cx="260.4" cy="158" r="66.4"/><path style="fill:#fff" d="M334.4 219.6 322 232c-2 2-2 5.6 0 7.6l94.8 94.8c2 2 5.6 2 7.6 0l12.4-12.4c2-2 2-5.6 0-7.6L342 219.6c-2-2-5.6-2-7.6 0z"/><path transform="rotate(-134.999 379.731 277.019)" style="fill:#ff7058" d="M326.93 263.017h105.599v28H326.93z"/></svg>