<svg version="1.1" id="Layer_1" x="0" y="0" viewBox="0 0 128 128" xml:space="preserve" width="128" height="128" xmlns="http://www.w3.org/2000/svg"><path style="fill: rgb(255, 202, 79); stroke-width: 0.25;" d="M64 128c35.25 0 64-28.75 64-64S99.25 0 64 0 0 28.75 0 64s28.75 64 64 64z" id="path1"/><path style="fill: rgb(93, 221, 211); stroke-width: 0.25;" d="M38.28 33.88v70.65l15.548-13.657v-70.65h-2.023l-1.077.821h-10.22l-.004-.835-1.68.013-15.55 13.656H38.28z" id="path2"/><path style="fill: rgb(255, 255, 255); stroke-width: 0.25;" d="M25.417 33.88h11.098l14.213-12.836H39.63z" id="path3"/><path style="fill: rgb(255, 117, 124); stroke-width: 0.25;" d="m42.208 30.43-1.84-.03-3.853 3.48H25.418l4.032-3.643-1.995-.03-4.18 3.673v70.65H38.28l3.928-3.45V30.43z" id="path4"/><path style="fill: rgb(236, 240, 241); stroke-width: 0.25;" d="M62.421 33.88v70.65L77.97 90.873V20.222h-2.025l-1.076.823H64.65l-.003-.836-1.682.012-15.55 13.657H62.424z" id="path5"/><path style="fill: rgb(255, 255, 255); stroke-width: 0.25;" d="M49.558 33.88h11.098L74.87 21.044H63.77z" id="path6"/><path style="fill: rgb(255, 117, 124); stroke-width: 0.25;" d="m66.35 30.43-1.842-.03-3.852 3.48H49.56l4.031-3.643-1.993-.03-4.18 3.673v70.65H62.42l3.929-3.45V30.43z" id="path7"/><path style="fill: rgb(93, 221, 211); stroke-width: 0.25;" d="M95.235 17.712 83.724 34.91l18.173 68.271 11.512-17.195-18.175-68.272-1.954.52-.828 1.07-9.876 2.63-.218-.806-1.622.445L69.224 38.77l14.5-3.861z" id="path8"/><path style="fill: rgb(255, 255, 255); stroke-width: 0.25;" d="m71.294 38.218 10.724-2.855 10.433-16.06-10.723 2.856-10.433 16.059v-.002z" id="path9"/><path style="fill: rgb(255, 117, 124); stroke-width: 0.25;" d="m86.632 30.564-1.787.447-2.827 4.353-10.724 2.855 2.96-4.557-1.934.485-3.095 4.624 18.173 68.272 14.5-3.86 2.908-4.344-18.173-68.273z" id="path10"/><g id="g12" transform="scale(0.25)"><path style="fill: rgb(255, 255, 255);" d="m394.41 146.76-3.65-13.895-25.732 42.073 3.65 13.894 25.733-42.075z" id="path11"/><path style="fill: rgb(255, 255, 255);" d="m380.512 138.87-1.938-9.03-17.367 28.4 1.94 9.026 17.368-28.396h-.003z" id="path12"/></g></svg>