<svg version="1.1" id="Capa_1" x="0" y="0" viewBox="0 0 128 128" xml:space="preserve" width="128" height="128" xmlns="http://www.w3.org/2000/svg"><g id="g384" transform="matrix(0.25,0,0,0.25,2.2568925e-6,0)"><polyline points="280.815 49.548 280.807 421.161 363.388 421.161 379.904 421.161 379.904 133.161 379.904 49.548 280.815 49.548" fill="#ea6b65" id="polyline2"/><polygon points="113.111 419.857 16.483 397.774 85.165 94.068 181.785 116.15" fill="#6cbae5" id="polygon4"/><polyline points="280.807 421.161 198.226 421.161 198.226 8.258 280.807 8.258 280.807 181.677 280.807 297.29 280.807 421.161 355.13 421.161" fill="#f7ba61" id="polyline6"/><g id="g16"><rect x="223.017" y="379.871" width="33.032" height="16.516" fill="#277baa" id="rect8"/><rect x="223.017" y="33.032" width="33.032" height="16.516" fill="#277baa" id="rect10"/><rect x="223.017" y="66.065" width="33.032" height="16.516" fill="#277baa" id="rect12"/><rect x="223.017" y="99.097" width="33.032" height="16.516" fill="#277baa" id="rect14"/></g><rect x="280.824" y="49.548" width="99.089" height="41.29" fill="#dc4d41" id="rect18"/><g id="g24"><polygon points="74.017 143.377 77.931 144.285 170.281 167.019 181.785 116.15 85.165 94.068" fill="#3b869e" id="polygon20"/><polygon points="124.87 367.839 35.534 345.856 28.606 344.163 16.483 397.774 113.111 419.857" fill="#3b869e" id="polygon22"/></g><polygon points="198.226 118.726 198.226 234.29 223.075 124.408" fill="#ea9d2d" id="polygon26"/><rect x="280.824" y="49.548" width="41.29" height="371.613" fill="#dc4d41" id="rect28"/><rect x="280.824" y="49.548" width="41.282" height="41.29" fill="#c7463b" id="rect30"/><polygon points="379.904 421.161 379.904 379.871 280.807 379.871 280.807 421.161 363.388 421.161" fill="#dc4d41" id="polygon32"/><rect x="346.888" y="404.645" width="66.065" height="99.097" fill="#4799cf" id="rect34"/><rect x="363.404" y="346.839" width="33.032" height="66.065" fill="#b9b9b9" id="rect36"/><rect x="363.404" y="388.129" width="33.032" height="16.516" fill="#6c7175" id="rect38"/><rect x="346.888" y="462.452" width="66.065" height="16.516" fill="#277baa" id="rect40"/><circle cx="379.92001" cy="239.48399" r="115.613" fill="#6fbbc6" id="circle42"/><circle cx="379.92001" cy="239.48399" r="82.581001" fill="#d9d9d9" id="circle44"/><path d="M379.904 156.903c-13.618 0-26.434 3.353-37.764 9.2a82.577 82.577 0 0 0-3.526 23.832c0 45.61 36.97 82.58 82.58 82.58 13.62 0 26.435-3.352 37.765-9.198a82.577 82.577 0 0 0 3.525-23.833c0-45.61-36.972-82.58-82.58-82.58z" fill="#f0f0f0" id="path46"/><rect x="346.888" y="404.645" width="66.065" height="33.032" fill="#dbdbdb" id="rect48"/><rect x="280.824" y="379.871" width="41.29" height="41.29" fill="#c7463b" id="rect50"/><path d="M388.162 116.034V49.548c0-4.567-3.7-8.258-8.258-8.258h-90.84V8.258c0-4.567-3.7-8.258-8.257-8.258h-82.58a8.256 8.256 0 0 0-8.26 8.258V421.16c0 4.568 3.7 8.26 8.26 8.26h140.386v74.322c0 4.567 3.7 8.258 8.258 8.258h66.066a8.256 8.256 0 0 0 8.258-8.258v-99.097c0-4.567-3.7-8.258-8.258-8.258h-8.258V360.86c56.47-11.51 99.097-61.546 99.097-121.376 0-65.52-51.16-119.172-115.613-123.45zm-99.097 39.515V99.096h82.58v16.937c-32.577 2.164-61.687 16.93-82.58 39.515zm82.58-97.744V82.58h-82.58V57.806zm-165.16-41.29h66.064v161.43c-10.447 18.15-16.517 39.126-16.517 61.538 0 22.412 6.07 43.38 16.516 61.54v111.88h-66.066zm198.193 396.387v16.516H355.13v-16.517h41.29zm-49.548 33.032h49.548v16.516H355.13zm0-74.322h-66.065V323.42c17.292 18.703 40.176 32.164 66.065 37.44zm-66.065 41.29V388.13h66.065v8.257h-8.258a8.256 8.256 0 0 0-8.258 8.258v8.258zm66.065 82.58V478.97h49.548v16.516zm33.032-132.128v33.032h-16.516v-33.032zm-8.258-16.516c-59.194 0-107.355-48.162-107.355-107.356 0-59.194 48.16-107.355 107.354-107.355 59.194 0 107.355 48.16 107.355 107.354 0 59.194-48.154 107.355-107.356 107.355z" fill="#000000" style="fill: rgb(57, 77, 177);" id="path52"/><path d="M379.904 148.645c-50.085 0-90.84 40.754-90.84 90.84 0 50.084 40.755 90.838 90.84 90.838 50.085 0 90.84-40.754 90.84-90.84 0-50.084-40.747-90.838-90.84-90.838zm0 165.16c-40.977 0-74.323-33.337-74.323-74.322 0-40.985 33.347-74.323 74.324-74.323 40.977 0 74.323 33.338 74.323 74.323 0 40.985-33.338 74.323-74.323 74.323z" fill="#000000" style="fill: rgb(57, 77, 177);" id="path54"/><path d="M113.11 428.115a8.365 8.365 0 0 0 4.403-1.263 8.286 8.286 0 0 0 3.658-5.17l68.683-303.707a8.246 8.246 0 0 0-6.218-9.868L87 86.024c-2.14-.512-4.386-.1-6.236 1.057a8.286 8.286 0 0 0-3.658 5.17L8.43 395.95c-1.006 4.442 1.776 8.852 6.22 9.867l96.618 22.082c.612.148 1.223.215 1.843.215zm5.558-70.3-80.22-19.738 41.78-184.725 80.218 19.745zM91.392 103.968l80.524 18.398-7.83 34.626L83.87 137.25zM26.36 391.555l8.456-37.376 80.22 19.737-8.152 36.038z" fill="#000000" style="fill: rgb(57, 77, 177);" id="path56"/><rect x="223.017" y="379.871" width="33.032" height="16.516" fill="#000000" style="fill: rgb(57, 77, 177);" id="rect58"/><rect x="223.017" y="33.032" width="33.032" height="16.516" fill="#000000" style="fill: rgb(57, 77, 177);" id="rect60"/><rect x="223.017" y="66.065" width="33.032" height="16.516" fill="#000000" style="fill: rgb(57, 77, 177);" id="rect62"/><rect x="223.017" y="99.097" width="33.032" height="16.516" fill="#000000" style="fill: rgb(57, 77, 177);" id="rect64"/></g></svg>