<?xml version="1.0" encoding="UTF-8" standalone="no"?>
<svg
   version="1.1"
   width="150"
   height="150"
   id="svg8"
   xmlns="http://www.w3.org/2000/svg">
  <path
     d="M 122.33333,0 H 28.166667 C 23.458333,0 18.75,4.6875 18.75,9.375 v 112.5 c 0,4.6875 4.708333,9.375 9.416667,9.375 H 47 V 150 L 61.125,135.9375 75.25,150 v -18.75 h 47.08333 c 4.70834,0 9.41667,-4.6875 9.41667,-9.375 V 9.375 C 131.75,4.6875 127.04167,0 122.33333,0 Z m 0,117.1875 c 0,2.34375 -2.20821,4.6875 -4.70833,4.6875 H 75.25 V 112.5 H 47 v 9.375 H 32.875 c -2.500126,0 -4.708333,-2.48907 -4.708333,-4.6875 V 103.125 h 94.166663 z m 0,-23.4375 H 44.991111 V 9.375 h 77.488179 z"
     style="fill-opacity:1;stroke-width:1.00222" />
  <path
     d="m 70.075909,7.1857871 c -1.472555,0.7508187 -2.962588,1.4770296 -4.435143,2.2278482 0.695954,1.2667167 1.394272,2.5319507 2.092645,3.7963187 -4.394736,2.779147 -8.186021,6.461095 -11.003059,10.761734 -3.694811,5.581225 -5.683013,12.196679 -5.728174,18.827792 -0.07039,6.189291 1.566653,12.388509 4.707927,17.770774 3.086606,5.319488 7.602424,9.851245 12.988045,13.003565 5.849115,3.469984 12.720854,5.196588 19.559036,5.139822 -0.004,2.949585 -0.03323,5.89903 -0.02611,8.848615 -4.066585,0.0023 -8.130653,-0.05759 -12.194022,-0.02767 -0.05616,2.11124 -0.0056,4.224019 -0.05536,6.33512 9.691853,0.0031 19.382867,0.0944 29.072216,0.08677 -0.0229,-2.11124 0.0261,-4.220943 0.006,-6.331345 -4.061,-0.01151 -8.120457,-0.01307 -12.179072,-0.05606 0.0032,-3.07542 0.0063,-6.15168 0.03955,-9.228638 3.258301,-0.45607 6.44222,-1.356577 9.460182,-2.627866 0.63744,1.131625 1.26221,2.267836 1.90207,3.396301 1.49395,-0.723917 2.99335,-1.436342 4.48492,-2.160316 -1.42669,-2.477422 -2.71819,-5.022376 -4.20808,-7.464424 -5.880019,3.553735 -12.957988,5.21812 -19.859648,4.560979 C 78.181911,73.47242 71.874195,70.881327 66.911801,66.742596 61.246965,62.07256 57.336975,55.438091 56.10966,48.317478 54.972414,41.929367 55.968095,35.198144 58.937743,29.386221 62.141516,23.030408 67.669471,17.836756 74.277095,14.866198 72.948481,12.27063 71.486203,9.7402177 70.076845,7.1851971 Z"
     style="stroke-width:0" />
  <path
     d="m 105.54615,20.008009 c 5.13018,3.714245 8.93027,9.10434 10.70176,15.0723 1.8158,6.045699 1.48598,12.671918 -0.87783,18.53138 -2.26658,5.698672 -6.47312,10.638975 -11.79862,13.890146 -5.051183,3.103104 -11.078146,4.696881 -17.056313,4.43738 C 79.446546,71.687404 72.494272,68.895952 67.346201,64.179217 62.650858,59.936043 59.454355,54.172915 58.367696,48.037315 57.300848,42.040692 58.23325,35.72249 61.024224,30.273532 c 2.647719,-5.234199 6.986389,-9.643197 12.256521,-12.4408 5.815838,-3.154557 12.751613,-4.300779 19.317152,-3.20601 4.67465,0.753895 9.154823,2.620175 12.947783,5.380867 z M 83.892651,18.694453 c 3.620568,0.934301 7.045671,2.535726 10.09914,4.63704 1.550015,-0.829886 3.109536,-1.64523 4.654097,-2.487349 -4.556924,-2.108864 -9.757427,-2.883591 -14.753517,-2.149551 z m -6.869362,1.947655 c 1.688433,3.001737 3.385675,5.998859 5.074108,9.002274 2.99964,-1.572245 5.980404,-3.17525 8.974591,-4.759799 -4.176482,-2.581027 -9.069387,-4.231569 -14.048839,-4.242335 z m 24.644191,1.871594 c -1.707449,0.926625 -3.43629,1.817904 -5.142899,2.74685 2.745871,2.322364 5.108089,5.069913 6.972969,8.106185 1.95269,-1.039486 3.90999,-2.069016 5.85779,-3.113031 -1.94948,-3.077658 -4.57035,-5.763268 -7.68786,-7.740004 z M 74.442262,22.040043 c -0.285492,0.204972 -0.661167,0.340874 -0.824069,0.672521 -2.423172,4.025898 -3.600014,8.708098 -3.598337,13.356603 3.173712,-1.667461 6.326032,-3.370994 9.499605,-5.039294 -1.697941,-2.994047 -3.386374,-5.991169 -5.077185,-8.98983 z m 19.293384,4.698419 c -3.398258,1.815667 -6.810778,3.608264 -10.203584,5.43232 1.70661,3.031658 3.410982,6.063455 5.131014,9.090499 4.081545,-2.174159 8.167845,-4.342165 12.249394,-6.516323 -1.905993,-3.037111 -4.324412,-5.771657 -7.176964,-8.006496 z M 62.436154,40.09898 c 1.569869,-0.808396 3.120722,-1.654458 4.683459,-2.479659 -0.186642,-3.621267 0.278362,-7.270917 1.387938,-10.733352 -3.298569,3.706556 -5.434697,8.351984 -6.071285,13.213011 z m 42.472296,-4.202488 c 1.62132,3.172174 2.68882,6.606925 3.18797,10.113123 1.66467,-0.859821 3.30654,-1.763376 4.96729,-2.627866 0.0925,-3.645036 -0.75843,-7.286297 -2.30615,-10.598987 -1.95101,1.036423 -3.90118,2.075867 -5.84911,3.11387 z M 80.931181,33.541131 c -3.570653,1.918572 -7.165075,3.797157 -10.733351,5.722581 0.419941,3.531504 1.472555,6.989185 3.108837,10.170587 4.246809,-2.273988 8.506342,-4.527982 12.760282,-6.792742 -1.705071,-3.036272 -3.429158,-6.064154 -5.135768,-9.100426 z m 20.730709,4.073436 c -3.856163,2.063563 -7.724208,4.105734 -11.581906,6.165522 1.703534,3.034034 3.43545,6.052689 5.122345,9.095812 3.377706,-1.788823 6.752341,-3.589809 10.125991,-5.383245 -0.34403,-3.18294 -1.19814,-6.314427 -2.53866,-9.237866 -0.12891,-0.324753 -0.35036,-0.634141 -0.33057,-0.993429 -0.3029,0.0039 -0.53223,0.234935 -0.79717,0.353164 z M 62.265577,43.45767 c 0.03716,3.615115 0.95217,7.21499 2.593191,10.458471 1.949472,-1.033306 3.898944,-2.067478 5.842823,-3.111493 -1.618804,-3.168399 -2.741816,-6.579241 -3.273261,-10.082363 -1.720032,0.910504 -3.429159,1.846287 -5.162613,2.735385 z m 25.223034,1.701996 c -4.257156,2.250918 -8.498513,4.531757 -12.763498,6.773587 1.927241,3.038648 4.388444,5.752501 7.270218,7.970422 3.54227,-1.886274 7.082023,-3.771011 10.625832,-5.651134 -1.717655,-3.02942 -3.419651,-6.062616 -5.132552,-9.092736 z m 20.904079,3.97053 c 0.13209,3.294235 -0.27995,6.60315 -1.21235,9.772947 2.95769,-3.448593 4.92227,-7.683238 5.62135,-12.11908 -1.46067,0.796119 -2.93952,1.566932 -4.409,2.346133 z m -11.758352,6.251509 c 1.587205,2.8313 3.18238,5.656448 4.780632,8.481735 0.26257,-0.2096 0.59788,-0.360058 0.7616,-0.663293 2.16857,-3.820087 3.2274,-8.175395 3.31199,-12.522873 -2.9507,1.572245 -5.900569,3.142952 -8.854348,4.704571 z M 72.134159,53.324294 c -1.947794,1.025672 -3.884683,2.069715 -5.831778,3.097652 2.015885,3.072344 4.762456,5.677979 7.944137,7.605779 1.646488,-0.890538 3.3057,-1.761837 4.960157,-2.63933 -2.781384,-2.300134 -5.16429,-5.039993 -7.072516,-8.064101 z m 12.552374,8.411826 c 3.740671,2.246304 8.006496,3.730325 12.409202,4.041977 0.639775,0.102133 1.179134,-0.300187 1.730378,-0.536632 -1.60706,-2.821373 -3.187135,-5.656447 -4.796431,-8.474045 -3.107998,1.666622 -6.225503,3.319542 -9.343149,4.968686 z m -2.926095,1.563017 c -1.463887,0.777678 -2.929312,1.550714 -4.389983,2.336067 4.227795,1.847126 8.976129,2.469033 13.570943,1.947655 -3.267809,-0.947346 -6.374968,-2.4029 -9.18096,-4.283722 z"
     style="stroke-width:0" />
</svg>
