<?xml version="1.0" encoding="UTF-8" standalone="no"?>
<svg
   version="1.1"
   width="370"
   height="240"
   viewBox="0 0 370 240"
   xmlns="http://www.w3.org/2000/svg">
  <path
     d="m 8.4,166.5 c -4.63246,0 -8.4,3.76851 -8.4,8.4 v 12.25001 c 0,4.63242 3.76754,8.4 8.4,8.39999 h 3.8 v 35.05 c 0,4.63249 3.76754,8.4 8.4,8.4 h 12.25 c 4.63246,0 8.4,-3.76801 8.4,-8.4 v -35.05 h 287.50002 v 35.05 c 0,4.63249 3.7675,8.4 8.4,8.4 h 12.25002 c 4.63242,0 8.39996,-3.76801 8.39996,-8.4 v -7.58333 c 0,-0.0768 -0.0416,-0.14216 -0.0504,-0.21664 0.008,-0.0744 0.0504,-0.13976 0.0504,-0.21664 v -27.03337 h 3.8 c 4.63246,0 8.4,-3.76808 8.4,-8.40001 V 174.9 c -4.8e-4,-4.63199 -3.76754,-8.4 -8.4,-8.4 z m 0,7.50033 h 353.2 c 0.49608,0 0.9,0.404 0.9,0.9 v 3.71668 c 0,0.49648 -0.404,0.89999 -0.9,0.89999 H 8.4 c -0.49648,0 -0.9,-0.404 -0.9,-0.89999 v -3.71668 c 0,-0.49647 0.40352,-0.9 0.9,-0.9 z m 19.83334,21.55 H 33.75 v 35.05 c 0,0.49648 -0.40352,0.90001 -0.9,0.90001 h -3.71666 c -0.49648,0 -0.9,-0.404 -0.9,-0.90001 z m 308.01668,0 h 5.51666 v 27.03334 c 0,0.0768 0.0424,0.14216 0.0504,0.21664 -0.008,0.0744 -0.0504,0.13976 -0.0504,0.21664 v 7.58332 c 0,0.49648 -0.40352,0.9 -0.89998,0.9 h -3.71668 c -0.496,0 -0.9,-0.404 -0.9,-0.9 z"
     id="shelf"
     style="fill:#4340d2;fill-opacity:1;stroke-width:8" />
  <g
     id="book01"
     transform="translate(2.19245,-11)">
    <rect
       style="fill:#fffff0;fill-opacity:1;stroke-width:0"
       id="rect1863"
       width="69.48259"
       height="83.82692"
       x="21.688278"
       y="86.353928" />
    <g
       id="g616"
       transform="matrix(3.2178052,0,0,3.2178052,8.4309848,79.5)"
       style="fill:#4340d2;fill-opacity:1">
	<g
   id="c45_book"
   style="fill:#4340d2;fill-opacity:1">
		<path
   d="M 27.169,27.637 V 1 c 0,-0.798 -1,-1 -1,-1 H 5.659 C 2.663,0 2.663,3.197 2.663,3.197 V 28.77 c 0,0.586 0.475,1.064 1.066,1.064 h 19.178 c 0.588,0 1.064,-0.479 1.064,-1.064 l 2.131,-0.003 c 1.145,0 1.067,-1.13 1.067,-1.13 z M 6.921,28.014 H 5.081 V 4.719 h 1.84 z M 22.483,10.705 H 12.309 V 5.227 h 10.174 z m 1.489,8.791 V 4.308 c 0,-0.589 -0.477,-1.065 -1.064,-1.065 L 4.759,3.234 C 4.759,2.502 5.861,2.13 5.861,2.13 h 18.111 c 1.133,0 1.1,0.998 1.1,0.998 v 23.98 c 0,0 -0.189,0.693 -1.1,0.693 v -8.305"
   id="path612"
   style="fill:#4340d2;fill-opacity:1" />

	</g>

	<g
   id="Capa_1_132_"
   style="fill:#4340d2;fill-opacity:1">
	</g>

</g>
  </g>
  <g
     id="book02"
     transform="translate(4.19245,-11)">
    <rect
       style="fill:#fffff0;fill-opacity:1;stroke-width:0"
       id="rect2650"
       width="62.035976"
       height="86.051605"
       x="107.47322"
       y="85.199608" />
    <g
       id="g456"
       transform="matrix(0.17706473,0,0,0.18749963,91.784868,79.500002)"
       style="fill:#4340d2;fill-opacity:1">
	<path
   class="st0"
   d="m 100.21,96.593 c -6.838,-6.864 -11.017,-16.18 -11.026,-26.63 0.009,-10.45 4.189,-19.766 11.026,-26.63 6.874,-6.847 16.189,-11.027 26.64,-11.036 H 438.96 V 0.009 L 126.849,0 C 88.21,0.018 56.905,31.314 56.896,69.963 v 372.084 c 0.009,38.639 31.314,69.944 69.954,69.954 H 455.105 V 107.62 H 126.849 c -10.45,0 -19.766,-4.18 -26.639,-11.027 z m 65.071,43.323 H 422.817 V 479.703 H 165.281 Z"
   id="path452"
   style="fill:#4340d2;fill-opacity:1" />

	<path
   class="st0"
   d="m 143.749,56.125 c -7.639,0 -13.838,6.198 -13.838,13.838 0,7.64 6.199,13.837 13.838,13.837 H 455.104 V 56.125 Z"
   id="path454"
   style="fill:#4340d2;fill-opacity:1" />

</g>
  </g>
  <g
     id="book03"
     transform="translate(6.19245,-11)">
    <rect
       style="fill:#fffff0;fill-opacity:1;stroke-width:0"
       id="rect3384"
       width="68.18438"
       height="92.999985"
       x="180.97549"
       y="79.500008" />
    <path
       fill="#231f20"
       d="M 255.15987,157.5 V 85.500001 c 0,-3.3165 -2.6835,-6 -6,-6 h -56 V 156 v 4.5 h 56 v 12 h -62 c -3.3135,0 -6,-2.6865 -6,-6 0,-3.3135 2.6865,-6 6,-6 h 3 V 156 79.500001 h -6 c -3.3165,0 -6,2.6835 -6,6 V 166.5 c 0,4.9695 4.0305,9 9,9 h 66.5 c 0.8295,0 1.5,-0.6705 1.5,-1.5 0,-0.8295 -0.6705,-1.5 -1.5,-1.5 h -1.5 v -12 c 1.656,0 3,-1.344 3,-3 z m -49.5,-57 h 15 c 0.8295,0 1.5,0.6705 1.5,1.5 0,0.8295 -0.6705,1.5 -1.5,1.5 h -15 c -0.8295,0 -1.5,-0.6705 -1.5,-1.5 0,-0.8295 0.6705,-1.5 1.5,-1.5 z m 25.5,23 h -25.5 c -0.8295,0 -1.5,-0.6705 -1.5,-1.5 0,-0.8295 0.6705,-1.5 1.5,-1.5 h 25.5 c 0.8295,0 1.5,0.6705 1.5,1.5 0,0.8295 -0.6705,1.5 -1.5,1.5 z m 10.5,-10 h -36 c -0.8295,0 -1.5,-0.6705 -1.5,-1.5 0,-0.8295 0.6705,-1.5 1.5,-1.5 h 36 c 0.8295,0 1.5,0.6705 1.5,1.5 0,0.8295 -0.6705,1.5 -1.5,1.5 z"
       id="path777"
       style="fill:#4340d2;fill-opacity:1;stroke-width:1.5" />
  </g>
  <g
     id="book04"
     transform="translate(8.19245,-11)">
    <rect
       style="fill:#fffff0;fill-opacity:1;stroke-width:0"
       id="rect3390"
       width="72.709167"
       height="96"
       x="264.36911"
       y="79.5" />
    <g
       stroke="none"
       stroke-width="1"
       fill="none"
       fill-rule="evenodd"
       id="g933"
       transform="matrix(6,0,0,6,249.6151,79.5)"
       style="fill:#4340d2;fill-opacity:1">
      <g
         transform="translate(2)"
         fill="#434343"
         id="g931"
         style="fill:#4340d2;fill-opacity:1">
        <rect
           x="0"
           y="0"
           width="0.91799998"
           height="16"
           class="si-glyph-fill"
           id="rect927"
           style="fill:#4340d2;fill-opacity:1" />
        <path
           d="M 12.404766,0 H 1.5 V 16 H 12.404766 C 13.009068,16 13.5,15.547303 13.5,14.989516 V 1.0104838 C 13.5,0.45168625 13.009068,0 12.404766,0 Z M 7.506,2.875 c 1.095,0 1.985,0.886 1.985,1.979 C 9.491,5.947 8.6,8.038 7.506,8.038 6.41,8.038 5.522,5.948 5.522,4.854 5.522,3.76 6.41,2.875 7.506,2.875 Z M 12.476,12 H 2.502 c 0,0 -0.171,-2.9868873 2.387,-2.9868873 0.537,0.5769591 1.272,0.9310022 2.625,0.9310022 1.354,0 1.999,-0.3596628 2.529,-0.9441149 2.878,0 2.433,3 2.433,3 z"
           class="si-glyph-fill"
           id="path929"
           style="fill:#4340d2;fill-opacity:1" />
      </g>
    </g>
  </g>
</svg>
