<!--version="1.0" encoding="UTF-8" standalone="no"--><svg version="1.1" width="512" height="512" viewBox="0 0 512 512" id="svg25" sodipodi:docname="sybershelf-icon_512.svg" inkscape:version="1.2.2 (732a01da63, 2022-12-09)" inkscape:export-filename="sybershelf-icon_256.png" inkscape:export-xdpi="96" inkscape:export-ydpi="96" xmlns:inkscape="http://www.inkscape.org/namespaces/inkscape" xmlns:sodipodi="http://sodipodi.sourceforge.net/DTD/sodipodi-0.dtd" xmlns="http://www.w3.org/2000/svg"><sodipodi:namedview id="namedview27" pagecolor="#ffffff" bordercolor="#000000" borderopacity="0.25" inkscape:showpageshadow="2" inkscape:pageopacity="0.0" inkscape:pagecheckerboard="0" inkscape:deskcolor="#d1d1d1" showgrid="true" inkscape:zoom="1.100301" inkscape:cx="69.98085" inkscape:cy="115.42296" inkscape:window-width="2560" inkscape:window-height="1406" inkscape:window-x="-11" inkscape:window-y="-11" inkscape:window-maximized="1" inkscape:current-layer="svg25"><inkscape:grid type="xygrid" id="grid657" originx="0" originy="0"/></sodipodi:namedview><path style="fill: rgb(0, 255, 0); fill-opacity: 0; stroke: rgb(0, 255, 0);" d="M-494.493 284.18c.663.196 1.325.392 0 0z" id="path8833"/><g id="g4671" transform="matrix(5.3333335,0,0,5.3333335,-3.5970089,-3.6873637)"><path id="rect845" style="fill: rgb(245, 241, 248); stroke-width: 0;" d="M6.647.977c-3.324 0-6 2.76-6 6.19v57.216c0 3.43 2.676 6.191 6 6.191h11.289V59.152c0-2.287 2.141-4.129 4.8-4.129h50.399c2.659 0 4.8 1.842 4.8 4.13v11.421h12.13c3.323 0 6-2.76 6-6.191V7.168c0-3.43-2.677-6.191-6-6.191z"/><path style="fill: rgb(245, 241, 248); fill-opacity: 1; stroke-width: 0;" d="m2.973 90.692 17.455-22.273H75.7L93.156 90.69z" id="path765"/><path id="shelf" style="fill: rgb(67, 64, 210); fill-opacity: 1; stroke-width: 2.74189;" d="M2.914 40.883c-1.571 0-2.85 1.305-2.85 2.91v4.241c0 1.604 1.279 2.91 2.85 2.91h1.289v12.73c0 1.604 1.278 2.91 2.85 2.91h4.155c1.571 0 2.85-1.306 2.85-2.91v-12.73h68.014v12.73c.001 1.604 1.28 2.91 2.85 2.91h4.156c1.572 0 2.85-1.306 2.85-2.91V61.05c0-.028-.015-.05-.017-.076.001-.026.016-.049.016-.076v-9.955h1.289c1.57 0 2.85-1.305 2.85-2.909v-4.242c0-1.604-1.28-2.909-2.85-2.909zm0 2.597h90.3a.31.31 0 0 1 .306.312v1.287a.31.31 0 0 1-.305.311h-90.3a.31.31 0 0 1-.306-.31v-1.288a.31.31 0 0 1 .304-.312zm6.727 7.463h1.873v12.731a.31.31 0 0 1-.305.312H9.947a.31.31 0 0 1-.306-.312zm74.975 0h1.872v9.955c0 .027.014.05.016.076-.002.025-.016.048-.016.075v2.624a.31.31 0 0 1-.305.312H84.92a.31.31 0 0 1-.305-.312z" sodipodi:nodetypes="sssscssssccccccssssscscsscsssssssssssccsssscccscsssssc"/><g id="book01" transform="matrix(0.33922185,0,0,0.34629044,-0.95331704,-21.474281)"><path id="rect1863" style="fill: rgb(255, 255, 240); stroke-width: 0;" d="M21.688 86.354h69.483v83.827H21.689z"/><g id="g616" transform="matrix(3.2178052,0,0,3.2178052,8.4309848,79.5)" style="fill: rgb(67, 64, 210); fill-opacity: 1;"><g id="c45_book" style="fill: rgb(67, 64, 210); fill-opacity: 1;"><path d="M27.17 27.637V1c0-.798-1-1-1-1H5.66C2.662 0 2.662 3.197 2.662 3.197V28.77c0 .586.475 1.064 1.066 1.064h19.177c.588 0 1.064-.48 1.064-1.064l2.132-.003c1.145 0 1.067-1.13 1.067-1.13zm-19.982.377H5.08V4.986H7.19zm15.028-16.51H12.042v-6.01h10.174zm1.756 7.992V4.308c0-.59-.477-1.065-1.064-1.065l-18.15-.01c0-.73 1.103-1.103 1.103-1.103h18.112c1.133 0 1.1.998 1.1.998v23.98s-.19.693-1.1.693v-8.304" id="path612" style="fill: rgb(67, 64, 210); fill-opacity: 1;" sodipodi:nodetypes="cscscsssccccccccccccccscccscccc"/></g></g></g><g id="book02" transform="matrix(0.33922185,0,0,0.34629044,1.3827253,-21.208544)"><path id="rect2650" style="fill: rgb(255, 255, 240); stroke-width: 0;" d="M107.473 85.2h62.036v86.051h-62.037z"/><g id="g456" transform="matrix(0.17706473,0,0,0.18749963,91.784868,79.500002)" style="fill: rgb(67, 64, 210); fill-opacity: 1;"><path class="st0" d="M100.21 96.593c-6.838-6.864-11.017-16.18-11.026-26.63.01-10.45 4.19-19.766 11.026-26.63 6.874-6.847 16.19-11.027 26.64-11.036h312.11V.01L126.85 0C88.21.018 56.904 31.314 56.895 69.963v372.084c.01 38.64 31.314 69.944 69.954 69.954h328.255V107.62H126.85c-10.45 0-19.767-4.18-26.64-11.027zm65.07 43.323h252.694v339.787H165.28z" id="path452" style="fill: rgb(67, 64, 210); fill-opacity: 1;" sodipodi:nodetypes="ccccccccccccscccccc"/><path class="st0" d="M143.75 56.125c-7.64 0-13.84 6.198-13.84 13.838 0 7.64 6.2 13.837 13.84 13.837h311.354V56.125z" id="path454" style="fill: rgb(67, 64, 210); fill-opacity: 1;"/></g></g><g id="book04" transform="matrix(0.33922185,0,0,0.34629044,-25.246727,-21.474281)"><path id="rect3390" style="fill: rgb(255, 255, 240); stroke-width: 0;" d="M264.37 79.5h72.708v96H264.37z"/><g stroke="none" stroke-width="1" fill="none" fill-rule="evenodd" id="g933" transform="matrix(6,0,0,6,249.6151,79.5)" style="fill: rgb(67, 64, 210); fill-opacity: 1;"><g transform="translate(2)" fill="#434343" id="g931" style="fill: rgb(67, 64, 210); fill-opacity: 1;"><path id="rect927" class="si-glyph-fill" d="M0 0h.918v16H0z"/><path d="M12.405 0H1.5v16h10.905c.604 0 1.095-.453 1.095-1.01V1.01C13.5.452 13.01 0 12.405 0zm-4.9 2.875c1.096 0 1.986.886 1.986 1.98 0 1.092-.89 3.183-1.984 3.183-1.096 0-1.984-2.09-1.984-3.184a1.98 1.98 0 0 1 1.984-1.98zm4.828 9.41H2.645S2.33 9.014 4.889 9.014c.536.577 1.27.931 2.624.931 1.354 0 2-.36 2.53-.944 2.877 0 2.29 3.286 2.29 3.286z" class="si-glyph-fill" id="path929" style="fill: rgb(67, 64, 210); fill-opacity: 1;" sodipodi:nodetypes="sccssssssssscccscc"/></g></g></g><path d="M20.464 67.658c-.488 0-1.067.264-1.298.592L.972 90.737c-.554.789-.386 1.439.385 1.439h93.414c.772 0 .94-.65.386-1.439L76.962 68.25c-.23-.328-.81-.592-1.297-.592H22.778zm.082 1.195h55.036L91.48 89.347H4.648zm1.392 3.453-1.493 4.142h5.06l1.262-4.142zm9.692 0-1.033 4.142h5.059l.803-4.142zm9.384 0-.574 4.142h5.06l.344-4.142zm9.27 0 .345 4.142h5.058l-.574-4.142zm9.693 0 .803 4.142h5.06l-1.034-4.142zm9.384 0 1.264 4.142h5.06l-1.493-4.142zm-49.736 8.06-1.868 4.396h5.603l1.58-4.396zm8.978 0-1.293 4.71h31.535l-.717-4.71zm33.382 0 1.006 4.396h5.602L67.3 80.365zm9.626 0 1.58 4.396h5.604l-1.868-4.397z" style="fill: rgb(67, 64, 210); fill-opacity: 1; stroke-width: 3.41511;" id="path527" sodipodi:nodetypes="sccssccsccccsccccccccccccccccccccccccccccccccccccccccccccccccccccccc"/><path d="M46.488 49.327v3.81c0 1.3 1.519 2.358 3.386 2.358h6.932c.904 0 1.756.245 2.395.69.64.445.654.801.654 1.431.113 1.092-1 1.572-2.258 1.599H38.403c-1.867 0-3.386 1.057-3.386 2.357 0 .63.352 1.222.991 1.667.64.444 1.49.69 2.395.69h8.13c.904 0 1.754.245 2.394.69.64.445.992 1.037.992 1.667v1.337h1.128v-1.337c0-.84-.47-1.63-1.322-2.223-.853-.594-1.988-.92-3.194-.92h-8.129c-.603 0-1.17-.164-1.597-.46-.426-.297-.66-.692-.66-1.112 0-.867 1.012-1.572 2.257-1.572h19.193c2.543-.396 3.387-.938 3.387-2.384 0-.84-.13-1.393-.984-1.987-.853-.595-1.988-.922-3.194-.922h-6.932c-1.245 0-2.257-.704-2.257-1.57v-3.81z" style="fill: rgb(67, 64, 210); fill-opacity: 1; stroke-width: 2.87004;" id="path4212" sodipodi:nodetypes="csscscccssccscsccscssssscscscsscc"/></g></svg>