<?xml version="1.0" encoding="UTF-8" standalone="no"?>
<svg
   width="96"
   height="128"
   viewBox="0 0 96 128"
   version="1.1"
   xmlns="http://www.w3.org/2000/svg">
  <path
     d="m 79.997329,24.869796 c 0,-1.127434 -0.915018,-2.042468 -2.042468,-2.042468 H 24.033705 c -0.07625,-0.0027 -0.166115,-0.0054 -0.255987,-0.0054 -4.19659,2e-6 -7.617045,3.322416 -7.777718,7.478158 v 0.01362 68.418334 c 0.307734,3.6247 3.325138,6.44603 7.004304,6.44603 0.171566,0 0.340417,-0.006 0.50925,-0.019 h -0.02183 54.465809 C 79.084982,105.15899 80,104.24395 80,103.11652 c 0,-1.12744 -2.042469,-2.04247 -2.042469,-2.04247 v 0 H 24.036429 c -0.06266,0.002 -0.136167,0.006 -0.209699,0.006 -1.952599,0 -3.556616,-1.489638 -3.739076,-3.39595 v -0.0164 -3.330584 c 0,-1.249984 1.5904,-2.344754 3.398665,-2.344754 l 54.471258,0.155167 h 0.0027 c 0.563717,0 1.440618,-0.599114 1.440618,-0.599114 v 0 c 0,0 0.068,-0.111666 0.109,-0.16334 0.128,-0.138833 0.236933,-0.299566 0.32135,-0.471133 l 0.0054,-0.01086 c 0.0435,-0.1335 0.079,-0.285947 0.09267,-0.446614 v -0.0081 c 0.03,-0.09533 0.0545,-0.2097 0.068,-0.32952 v -0.0082 -0.0054 z M 75.912393,88.064854 33.701389,87.945034 V 26.912262 h 42.211004 z m -55.827456,0.585513 v -58.33399 c 0.18246,-1.91992 1.789201,-3.409559 3.741799,-3.409559 0.0735,0 0.147,0.0027 0.217866,0.0054 h -0.0109 5.582747 v 61.01915 l -6.127403,-0.01634 c -1.233652,0.0054 -2.404666,0.275054 -3.455856,0.757066 z M 42.552081,41.86205 h 24.509616 c 1.127451,0 2.042468,-0.915017 2.042468,-2.042468 0,-1.127435 -2.042468,-2.042469 -2.042468,-2.042469 v 0 H 42.552081 c -1.127433,0 -2.042468,0.915018 -2.042468,2.042469 0,1.127451 0.915018,2.042468 2.042468,2.042468 z m 24.509618,6.808226 H 42.552081 c -1.127433,0 -2.042468,0.915034 -2.042468,2.042468 0,1.127434 2.042468,2.042468 2.042468,2.042468 v 0 h 24.509616 c 1.127451,0 2.042468,-0.915034 2.042468,-2.042468 0,-1.127434 -0.915017,-2.042468 -2.042466,-2.042468 z"
     style="fill:#5c2d91;fill-opacity:1;stroke:none;"/>
</svg>
