<?xml version="1.0" encoding="UTF-8" standalone="no"?>
<svg
   version="1.1"
   id="Capa_1"
   x="0px"
   y="0px"
   viewBox="0 0 128 128"
   xml:space="preserve"
   width="128"
   height="128"
   xmlns="http://www.w3.org/2000/svg"
   xmlns:svg="http://www.w3.org/2000/svg"><defs
     id="defs69" /><g
     id="g384"
     transform="matrix(0.25,0,0,0.25,2.2568925e-6,0)"><polyline
       points="280.815,49.548 280.807,421.161 363.388,421.161 379.904,421.161 379.904,133.161 379.904,49.548 280.815,49.548 "
       fill="#ea6b65"
       id="polyline2" /><polygon
       points="113.111,419.857 16.483,397.774 85.165,94.068 181.785,116.15 "
       fill="#6cbae5"
       id="polygon4" /><polyline
       points="280.807,421.161 198.226,421.161 198.226,8.258 280.807,8.258 280.807,181.677 280.807,297.29 280.807,421.161 355.13,421.161 "
       fill="#f7ba61"
       id="polyline6" /><g
       id="g16"><rect
         x="223.017"
         y="379.871"
         width="33.032001"
         height="16.516001"
         fill="#277baa"
         id="rect8" /><rect
         x="223.017"
         y="33.032001"
         width="33.032001"
         height="16.516001"
         fill="#277baa"
         id="rect10" /><rect
         x="223.017"
         y="66.065002"
         width="33.032001"
         height="16.516001"
         fill="#277baa"
         id="rect12" /><rect
         x="223.017"
         y="99.097"
         width="33.032001"
         height="16.516001"
         fill="#277baa"
         id="rect14" /></g><rect
       x="280.82401"
       y="49.548"
       width="99.088997"
       height="41.290001"
       fill="#dc4d41"
       id="rect18" /><g
       id="g24"><polygon
         points="74.017,143.377 77.931,144.285 170.281,167.019 181.785,116.15 85.165,94.068 "
         fill="#3b869e"
         id="polygon20" /><polygon
         points="124.87,367.839 35.534,345.856 28.606,344.163 16.483,397.774 113.111,419.857 "
         fill="#3b869e"
         id="polygon22" /></g><polygon
       points="198.226,118.726 198.226,234.29 223.075,124.408 "
       fill="#ea9d2d"
       id="polygon26" /><rect
       x="280.82401"
       y="49.548"
       width="41.290001"
       height="371.61301"
       fill="#dc4d41"
       id="rect28" /><rect
       x="280.82401"
       y="49.548"
       width="41.282001"
       height="41.290001"
       fill="#c7463b"
       id="rect30" /><polygon
       points="379.904,421.161 379.904,379.871 280.807,379.871 280.807,421.161 363.388,421.161 "
       fill="#dc4d41"
       id="polygon32" /><rect
       x="346.888"
       y="404.64499"
       width="66.065002"
       height="99.097"
       fill="#4799cf"
       id="rect34" /><rect
       x="363.40399"
       y="346.83899"
       width="33.032001"
       height="66.065002"
       fill="#b9b9b9"
       id="rect36" /><rect
       x="363.40399"
       y="388.129"
       width="33.032001"
       height="16.516001"
       fill="#6c7175"
       id="rect38" /><rect
       x="346.888"
       y="462.452"
       width="66.065002"
       height="16.516001"
       fill="#277baa"
       id="rect40" /><circle
       cx="379.92001"
       cy="239.48399"
       r="115.613"
       fill="#6fbbc6"
       id="circle42" /><circle
       cx="379.92001"
       cy="239.48399"
       r="82.581001"
       fill="#d9d9d9"
       id="circle44" /><path
       d="m 379.904,156.903 c -13.618,0 -26.434,3.353 -37.764,9.199 -2.271,7.548 -3.526,15.542 -3.526,23.833 0,45.609 36.971,82.581 82.581,82.581 13.618,0 26.434,-3.353 37.764,-9.199 2.271,-7.548 3.526,-15.542 3.526,-23.833 -0.001,-45.609 -36.972,-82.581 -82.581,-82.581 z"
       fill="#f0f0f0"
       id="path46" /><rect
       x="346.888"
       y="404.64499"
       width="66.065002"
       height="33.032001"
       fill="#dbdbdb"
       id="rect48" /><rect
       x="280.82401"
       y="379.871"
       width="41.290001"
       height="41.290001"
       fill="#c7463b"
       id="rect50" /><path
       d="M 388.162,116.034 V 49.548 c 0,-4.567 -3.7,-8.258 -8.258,-8.258 H 289.065 V 8.258 C 289.065,3.691 285.365,0 280.807,0 h -82.581 c -4.558,0 -8.258,3.691 -8.258,8.258 v 412.903 c 0,4.567 3.7,8.258 8.258,8.258 h 82.581 57.806 v 74.323 c 0,4.567 3.7,8.258 8.258,8.258 h 66.065 c 4.558,0 8.258,-3.691 8.258,-8.258 v -99.097 c 0,-4.567 -3.7,-8.258 -8.258,-8.258 h -8.258 v -35.526 c 56.469,-11.512 99.097,-61.547 99.097,-121.377 0,-65.52 -51.159,-119.172 -115.613,-123.45 z m -99.097,39.515 V 99.097 h 82.581 v 16.937 c -32.578,2.164 -61.688,16.929 -82.581,39.515 z M 371.646,57.806 V 82.58 H 289.065 V 57.806 Z M 206.484,16.516 h 66.065 v 161.429 c -10.446,18.151 -16.516,39.127 -16.516,61.539 0,22.412 6.07,43.38 16.516,61.539 v 111.88 h -66.065 z m 198.194,396.387 v 16.516 H 355.13 v -16.516 h 8.258 33.032 z m -49.548,33.032 h 49.548 v 16.516 H 355.13 Z m 0,-74.322 h -66.065 v -48.194 c 17.292,18.704 40.176,32.165 66.065,37.442 z m -66.065,41.29 v -24.774 h 66.065 v 8.258 h -8.258 c -4.558,0 -8.258,3.691 -8.258,8.258 v 8.258 z m 66.065,82.581 v -16.516 h 49.548 v 16.516 z m 33.032,-132.129 v 33.032 h -16.516 v -33.032 z m -8.258,-16.516 c -59.194,0 -107.355,-48.161 -107.355,-107.355 0,-59.194 48.161,-107.355 107.355,-107.355 59.194,0 107.355,48.161 107.355,107.355 0,59.194 -48.153,107.355 -107.355,107.355 z"
       fill="#000000"
       style="fill:#394db1"
       id="path52" /><path
       d="m 379.904,148.645 c -50.085,0 -90.839,40.754 -90.839,90.839 0,50.085 40.754,90.839 90.839,90.839 50.085,0 90.839,-40.754 90.839,-90.839 0,-50.085 -40.746,-90.839 -90.839,-90.839 z m 0,165.161 c -40.977,0 -74.323,-33.338 -74.323,-74.323 0,-40.985 33.346,-74.323 74.323,-74.323 40.977,0 74.323,33.338 74.323,74.323 0,40.985 -33.338,74.323 -74.323,74.323 z"
       fill="#000000"
       style="fill:#394db1"
       id="path54" /><path
       d="m 113.111,428.115 c 1.544,0 3.072,-0.438 4.402,-1.263 1.858,-1.173 3.171,-3.031 3.658,-5.17 l 68.682,-303.707 c 1.007,-4.443 -1.775,-8.861 -6.218,-9.868 L 86.999,86.024 c -2.139,-0.512 -4.385,-0.099 -6.235,1.057 -1.858,1.173 -3.171,3.031 -3.658,5.17 L 8.431,395.949 c -1.007,4.443 1.775,8.853 6.218,9.868 l 96.619,22.082 c 0.612,0.149 1.223,0.216 1.843,0.216 z m 5.557,-70.301 -80.219,-19.737 41.778,-184.725 80.219,19.745 z m -27.276,-253.845 80.524,18.399 -7.829,34.626 -80.219,-19.745 z m -65.032,287.587 8.456,-37.376 80.219,19.737 -8.151,36.038 z"
       fill="#000000"
       style="fill:#394db1"
       id="path56" /><rect
       x="223.017"
       y="379.871"
       width="33.032001"
       height="16.516001"
       fill="#000000"
       style="fill:#394db1"
       id="rect58" /><rect
       x="223.017"
       y="33.032001"
       width="33.032001"
       height="16.516001"
       fill="#000000"
       style="fill:#394db1"
       id="rect60" /><rect
       x="223.017"
       y="66.065002"
       width="33.032001"
       height="16.516001"
       fill="#000000"
       style="fill:#394db1"
       id="rect62" /><rect
       x="223.017"
       y="99.097"
       width="33.032001"
       height="16.516001"
       fill="#000000"
       style="fill:#394db1"
       id="rect64" /></g></svg>
