<?xml version="1.0" encoding="UTF-8" standalone="no"?>
<svg
   viewBox="0 0 400 225"
   version="1.1"
   xmlns="http://www.w3.org/2000/svg"
   xmlns:svg="http://www.w3.org/2000/svg">
  <defs
     id="defs1">
    <style
       id="style1">
      .cls-1 {
        fill: #d4efff;
      }

      .cls-2 {
        fill: #34495e;
      }

      .cls-3 {
        fill: #ecf0f1;
      }

      .cls-4 {
        fill: #2c3e50;
      }

      .cls-5 {
        fill: #2a80bb;
      }

      .cls-6 {
        fill: #3497da;
      }

      .cls-7 {
        fill: #8e44ad;
      }

      .cls-10, .cls-8 {
        opacity: 0.5;
      }

      .cls-9 {
        opacity: 0.25;
      }

      .cls-10 {
        fill: #662f84;
      }

      .cls-11 {
        opacity: 0.2;
      }

      .cls-12 {
        fill: #fff;
      }

      .cls-13 {
        opacity: 0.6;
      }

      .cls-14 {
        opacity: 0.3;
      }

      .cls-15 {
        fill: none;
      }
    </style>
  </defs>
  <path
     d="m 137.77777,192.5 q -7.33332,0 -12.55554,-5.22221 -5.22222,-5.22223 -5.22222,-12.55556 V 63.611113 q 0,-3.111112 1,-5.888889 1,-2.777778 3,-5.222222 l 12.44444,-15.111111 q 2,-2.444445 4.55555,-3.666666 2.55555,-1.222224 5.66667,-1.222224 h 106.66668 q 3.1111,0 5.66666,1.222224 2.55554,1.22222 4.55554,3.666666 l 12.44446,15.111111 q 2,2.444445 3,5.222222 0.99998,2.777778 0.99998,5.888889 V 174.72223 q 0,7.33333 -5.22221,12.55556 Q 269.55555,192.5 262.22223,192.5 Z m 3.55556,-133.33333 h 117.33334 l -7.55555,-8.888892 H 148.88889 Z m -3.55556,115.55556 H 262.22223 V 76.944449 H 137.77777 Z m 84.8889,-17.33332 31.55556,-31.55556 -31.55556,-31.555571 -12.88889,12.888901 18.66666,18.66667 L 209.77778,144.5 Z m -44.88889,0 L 190.66668,144.5 172,125.83335 190.66668,107.16668 177.77778,94.277779 146.22223,125.83335 Z m -40.00001,17.33332 V 76.944449 Z"
     id="path1"
     style="fill:#2475be;fill-opacity:1;stroke-width:0.222221" />
</svg>
