<?xml version="1.0" encoding="UTF-8" standalone="no"?>
<svg
   width="96"
   height="96"
   version="1.0"
   id="svg11"
   xmlns="http://www.w3.org/2000/svg"
   xmlns:svg="http://www.w3.org/2000/svg">
  <defs
     id="defs15" />
  <g
     id="g1225">
    <path
       style="fill:#ffffff;fill-opacity:1;fill-rule:evenodd;stroke:#5555a2;stroke-width:2.25298;stroke-linecap:butt;stroke-linejoin:miter;stroke-miterlimit:4;stroke-dasharray:none;stroke-opacity:1"
       d="M 75.49503,94.825034 H 20.512801 C 24.13961,56.388722 41.936677,55.877792 47.772743,55.773068 c 5.85522,-0.105114 24.308507,0.25305 27.722287,39.051966 z"
       id="path4598" />
    <path
       d="m 43.842426,57.474336 2.989588,2.989354 -6.55442,26.240263 7.885861,8.436453 7.700236,-8.3983 -6.349799,-26.235965 2.968877,-2.968909 c 0,0 -4.089466,-2.447637 -8.640343,-0.06291 z"
       style="fill:#5555a2;fill-opacity:1;fill-rule:evenodd;stroke:#5555a2;stroke-width:1.16793;stroke-linecap:butt;stroke-linejoin:miter;stroke-miterlimit:4;stroke-dasharray:none;stroke-opacity:1"
       id="path3" />
    <ellipse
       style="fill:#ffffff;fill-opacity:1;stroke:#a95800;stroke-width:2.33586;stroke-miterlimit:4;stroke-dasharray:none;stroke-dashoffset:0;stroke-opacity:1"
       cx="47.83268"
       cy="28.388605"
       rx="26.473057"
       ry="26.472389"
       id="ellipse5" />
    <path
       style="fill:#aa4400;fill-opacity:1;fill-rule:evenodd;stroke:#531c09;stroke-width:2.30677;stroke-linecap:butt;stroke-linejoin:miter;stroke-miterlimit:4;stroke-dasharray:none;stroke-opacity:1"
       d="m 20.632552,34.587854 c 0,0 17.718892,0.587811 23.195236,-3.578989 0,0 20.079668,-14.287032 28.366829,-14.755138 0,0 -9.112031,-18.7272055 -29.482435,-14.4793991 0,0 -24.656394,3.098486 -22.07963,32.8135261 z"
       id="path7" />
  </g>
</svg>
